<svg width="15px" height="15px" enable-background="new 0 0 15 15" version="1.1" viewBox="0 0 15 15" xmlns="http://www.w3.org/2000/svg">
 <path d="m9.0039-0.16016 0.50391 0.60547-0.95898-0.20117 0.4043 0.55469 0.45312 0.55469 0.45508 0.50391 0.58789 0.97852-0.32031 0.27539-0.25195 0.50391-0.30273 0.20117-0.10156 0.4043 0.082031 0.47852-1.9199 1.9609c-0.40578 0.32323-0.87057 0.6119-1.2285 0.99023-0.23901 0.25256-0.36092 0.62582-0.57422 0.91016l-0.23633 0.35547-0.099609 0.23828-0.2168 0.47461-1.2441 1.125-0.44141-0.25781-0.43164-1.123-0.46289-0.33984-0.41016 0.25c0.091214-0.16813 0.32496-0.15787 0.47461-0.28906-0.091337 0.077325-0.73559-0.63855-0.86133-0.64453-0.023992-0.00137-0.047863 0.0033057-0.070313 0.011719-0.15328 0.057736-0.26919 0.31334-0.34766 0.42578-0.045011 0.064456-0.26884 0.29759-0.26172 0.375 8.8e-5 1.464e-4 0.041016 0.44727 0.041016 0.44727l-0.48047 0.21875c-0.15971 0.24052-0.40706 0.5054-0.51367 0.76758-0.13558 0.33381 0.43397 0.60605 0.66211 0.75781 0.13506 0.08982 0.27165 0.17928 0.40625 0.26953 0.16223 0.10904 0.24039 0.10874 0.43945 0.11523-0.0067285-0.005318-0.034549-0.056158-0.046875-0.072265l0.10156 0.11914 0.29102 0.019532 0.027344 0.24023-0.080078 0.13867-0.1582 0.31641 0.1582 0.41602 0.21875 0.078125 0.10547-0.007813c-0.0020297 1.47e-4 -0.14897 0.36227-0.16602 0.40039-0.032371 0.07232-0.05509 0.087465-0.048828 0.16797 0.010667 0.13718 0.098375 0.35518 0.28125 0.20508 0.10895-0.08951 0.045053-0.1754 0.068359-0.26367l0.18555-0.24609 0.0097656-0.078125 0.080078 0.17969 0.17773 0.13867 0.23633 0.039063 0.17969-0.11914 0.058594-0.13867 0.019531-0.23828-0.039062-0.11719 0.099609-0.11914-0.027344-0.43164 0.11328 0.083985 0.10938 0.17969-0.015625-0.005859 0.55859 1.252 0.50391 0.30469 0.91797 0.66797 0.42383-0.76953 0.17969-0.25-0.033203-0.41797 0.4043-0.16992 0.5918-0.93359 0.09375 0.019531-1.4258-1.0156-0.84766-0.091797-0.41992-0.20312 0.76562-0.76562c0.12923-0.12931 0.30868-0.26058 0.41211-0.41211 0.095026-0.13938 0.14402-0.28704 0.23633-0.43359 0.075066-0.11925 0.13122-0.2501 0.22656-0.35156 0.21956-0.23363 0.31878-0.55165 0.51172-0.80664 0.20967-0.27699 0.46673-0.46595 0.71875-0.68555 0.17827-0.15534 0.3568-0.30951 0.53516-0.46484l1.4453-1.3867 0.27734-0.29688 0.033203 0.2207-0.4043 1.0586-0.099609 0.95898 0.050781 0.9082 0.048828 0.55469 0.25195 0.50391 0.15234 0.20117 0.15039 0.25391 0.019531 0.029296-0.10352 0.082032-1.2031 0.03125-0.42773 0.27539c-0.0044875-0.022039-0.0028069-0.045206-0.011719-0.066406 0.042437 0.10592-0.84876 0.45617-0.89648 0.56641-0.00924 0.02096-0.014129 0.043647-0.013672 0.066407 0.0031699 0.15502 0.20744 0.3397 0.28711 0.44531 0.045783 0.0606 0.19027 0.3334 0.26562 0.35156 7.32e-5 0 0.43555 0.10547 0.43555 0.10547l0.044922 0.49609c0.17335 0.21865 0.33931 0.52517 0.55078 0.70312 0.26935 0.2266 0.71817-0.196 0.9375-0.35156 0.12977-0.09208 0.25853-0.18586 0.38867-0.27734 0.15691-0.11032 0.18331-0.18181 0.25586-0.35742l0.013672-0.005859 0.26367-0.58203 0.050781 0.15234 0.050782 0.35352 0.50586 0.099609 0.60352-0.050781 0.25391-0.20117 0.60547-0.099609 0.099609-0.35352-0.15039-0.4043-0.30273 0.050781-0.30273-0.30273-0.34961-0.072266 0.16406-0.033203 0.001953-0.001953 1.3418-0.099609 0.45508-0.35352 0.9375-0.60937-0.58398-0.62109-0.17578-0.23828-0.40625-0.10156-0.023437-0.41602-0.68555-0.82617-0.27734 0.38867 0.27734-0.4375-1.4336 0.95117-0.45312 0.90625-0.40625 0.35742-0.0625-0.099609-0.33789-0.4082-0.10156-0.65625-0.15039-0.75586 0.15039-0.70703 0.20117-0.75586 0.25391-0.50391 0.15039-0.20312 0.30273-0.35352 0.35352-0.40234 0.25195-0.45508s-5.31e-4 -0.45242 0.20117-0.35156c0.20169 0.10086-0.15039-0.55469-0.15039-0.55469l-0.4043-0.60547h-0.019531l-0.29883-0.64844-0.45312-0.85742-0.4043-0.55469-0.50391-0.55469-0.55469-0.35352zm-6.7246 9.4746-0.0078125 0.19336-0.0058594 0.023438c-0.0093003-0.037249-0.023017-0.072891-0.021484-0.11328 0.0017748-0.046916 0.022208-0.070829 0.035156-0.10352zm10.037 1.0039 0.027344 0.001953-0.19336 0.21875 0.16602-0.2207zm0.24414 0.017579 0.17773 0.013671-0.041015 0.017579-0.13672-0.03125zm-9.8242 1.5117 0.080078 0.00586 0.0019532 0.001953-0.035156 0.03125-0.046875-0.039063zm1.5352 0.98047 0.10938 0.41406-0.074219-0.076172-0.035156-0.33789z" clip-rule="evenodd" fill-rule="evenodd" stroke-width=".073221"/>
</svg>
