<svg width="15px" height="15px" enable-background="new 0 0 15 15" version="1.1" viewBox="0 0 15 15" xmlns="http://www.w3.org/2000/svg">
 <path d="m3.6831 6.4559c-1.6352-2.4106-1.9387-2.658-1.9387-3.5439 0-1.2135 0.96742-2.1973 2.1608-2.1973 1.1934 0 2.1608 0.98375 2.1608 2.1973 0 0.88592-0.30353 1.1333-1.9387 3.5439-0.1073 0.15763-0.33684 0.15762-0.44413 0zm0.22207-2.6284c0.49724 0 0.90033-0.40989 0.90033-0.91553 0-0.50563-0.40309-0.91553-0.90033-0.91553-0.49725 0-0.90034 0.40989-0.90034 0.91553 0 0.50563 0.40309 0.91553 0.90034 0.91553z" fill="currentColor" stroke-width=".011349"/>
 <g transform="matrix(-.029266 0 0 .02976 15.088 1.6157)">
  <circle cx="121.75" cy="142.05" r="35.589" fill="#fbb03b"/>
  <polygon points="426.7 262.42 382.7 193.06 338.22 262.42" fill="#f2f2f2"/>
  <polygon points="263.61 378.73 205.4 287.98 145.85 380.81 501.8 380.81 426.7 262.42 338.22 262.42" fill="#b3b3b3"/>
  <path d="m110.15 370.53h-7.672c-5.632 0-10.199 4.566-10.199 10.199s4.567 10.199 10.199 10.199h7.672c5.632 0 10.199-4.566 10.199-10.199s-4.567-10.199-10.199-10.199z"/>
  <path d="m69.274 370.53h-59.075c-5.632 0-10.199 4.566-10.199 10.199s4.567 10.199 10.199 10.199h59.075c5.632 0 10.199-4.566 10.199-10.199s-4.567-10.199-10.199-10.199z"/>
  <path d="m167.54 142.06c0-25.248-20.541-45.788-45.789-45.788s-45.789 20.54-45.789 45.788 20.541 45.789 45.789 45.789 45.789-20.541 45.789-45.789zm-71.179 0c0-14 11.39-25.39 25.391-25.39s25.391 11.389 25.391 25.39c0 14-11.39 25.391-25.391 25.391s-25.391-11.39-25.391-25.391z"/>
  <path d="m121.75 79.991c5.632 0 10.199-4.566 10.199-10.199v-10.448c0-5.633-4.567-10.199-10.199-10.199s-10.199 4.566-10.199 10.199v10.448c0 5.633 4.567 10.199 10.199 10.199z"/>
  <path d="m63.798 97.299c1.991 1.991 4.601 2.986 7.211 2.986s5.221-0.996 7.212-2.987c3.983-3.984 3.983-10.441-1e-3 -14.425l-7.388-7.387c-3.982-3.982-10.441-3.982-14.424 1e-3 -3.983 3.984-3.983 10.441 1e-3 14.425z"/>
  <path d="m25.188 58.69c1.991 1.992 4.602 2.988 7.212 2.988s5.22-0.995 7.211-2.986c3.983-3.983 3.984-10.441 1e-3 -14.424l-2.823-2.823c-3.981-3.983-10.44-3.984-14.424-1e-3s-3.984 10.441-1e-3 14.424z"/>
  <path d="m28.835 140.31c0 5.633 4.567 10.199 10.199 10.199h10.447c5.632 0 10.199-4.566 10.199-10.199s-4.567-10.199-10.199-10.199h-10.447c-5.632 0-10.199 4.566-10.199 10.199z"/>
  <path d="m62.565 183.84-7.387 7.387c-3.983 3.983-3.983 10.441 0 14.425 1.992 1.992 4.602 2.987 7.212 2.987s5.22-0.995 7.212-2.987l7.387-7.387c3.983-3.983 3.983-10.441 0-14.425-3.984-3.983-10.44-3.983-14.424 0z"/>
  <path d="m130.2 244.06v-24.814c0-5.633-4.567-10.199-10.199-10.199s-10.199 4.566-10.199 10.199v24.814c0 5.633 4.567 10.199 10.199 10.199s10.199-4.566 10.199-10.199z"/>
  <path d="m177.96 185.07c-3.984-3.983-10.44-3.983-14.425 0-3.983 3.983-3.983 10.441 0 14.425l7.387 7.387c1.992 1.992 4.602 2.987 7.212 2.987s5.22-0.995 7.212-2.987c3.983-3.983 3.983-10.441 0-14.425z"/>
  <path d="m182.72 142.06c0 5.633 4.567 10.199 10.199 10.199h36.567c5.632 0 10.199-4.566 10.199-10.199s-4.567-10.199-10.199-10.199h-36.567c-5.632 0-10.199 4.566-10.199 10.199z"/>
  <path d="m174.4 99.093c2.611 0 5.22-0.995 7.212-2.987l12.611-12.611c3.983-3.983 3.983-10.441 0-14.425-3.984-3.983-10.44-3.983-14.425 0l-12.611 12.611c-3.983 3.983-3.983 10.441 0 14.425 1.993 1.992 4.603 2.987 7.213 2.987z"/>
  <path d="m395.73 419.49h-192.76c-5.632 0-10.199 4.566-10.199 10.199s4.567 10.199 10.199 10.199h192.76c5.632 0 10.199-4.566 10.199-10.199s-4.567-10.199-10.199-10.199z"/>
  <path d="m468.14 419.49h-28.558c-5.632 0-10.199 4.566-10.199 10.199s4.567 10.199 10.199 10.199h28.558c5.632 0 10.199-4.566 10.199-10.199s-4.567-10.199-10.199-10.199z"/>
  <path d="m288.91 193.18h48.756c5.632 0 10.199-4.566 10.199-10.199s-4.567-10.199-10.199-10.199h-48.756c-5.632 0-10.199 4.566-10.199 10.199 0 5.632 4.566 10.199 10.199 10.199z"/>
  <path d="m224.73 182.98c0 5.633 4.567 10.199 10.199 10.199h18.283c5.632 0 10.199-4.566 10.199-10.199s-4.567-10.199-10.199-10.199h-18.283c-5.633 0-10.199 4.566-10.199 10.199z"/>
  <path d="m510.41 375.35-75.103-118.4-43.994-69.355c-1.865-2.941-5.104-4.727-8.587-4.737h-0.025c-3.473 0-6.709 1.768-8.585 4.693l-110.51 172.28-49.626-77.363c-1.876-2.924-5.111-4.693-8.585-4.693s-6.709 1.769-8.585 4.693l-59.548 92.832c-2.014 3.139-2.153 7.126-0.364 10.399 1.788 3.272 5.22 5.308 8.949 5.308h355.95c3.72 0 7.145-2.026 8.938-5.285 1.791-3.259 1.667-7.236-0.326-10.377zm-345.9-4.736 40.889-63.743 40.89 63.743zm218.15-158.59 25.494 40.191h-51.275zm-101.73 158.59 62.861-97.997h77.3l62.163 97.997z"/>
  <path d="m370.23 293.02h-20.398c-5.632 0-10.199 4.566-10.199 10.199s4.567 10.199 10.199 10.199h20.398c5.632 0 10.199-4.566 10.199-10.199s-4.567-10.199-10.199-10.199z"/>
  <path d="m394.71 342.99c0 5.633 4.567 10.199 10.199 10.199h19.378c5.632 0 10.199-4.566 10.199-10.199s-4.567-10.199-10.199-10.199h-19.378c-5.632 0-10.199 4.566-10.199 10.199z"/>
 </g>
</svg>
