<svg width="15px" height="15px" enable-background="new 0 0 15 15" version="1.1" viewBox="0 0 15 15" xmlns="http://www.w3.org/2000/svg">
 <path d="m5.9922-0.16016-0.55469 0.35352-0.50391 0.55469-0.4043 0.55469-0.45312 0.85742-0.29883 0.64844h-0.019531l-0.4043 0.60547s-0.35208 0.65555-0.15039 0.55469c0.2017-0.10086 0.20117 0.35156 0.20117 0.35156l0.25195 0.45508 0.35352 0.40234 0.30273 0.35352 0.15039 0.20312 0.25391 0.50391 0.20117 0.75586 0.15039 0.70703-0.15039 0.75586-0.10156 0.65625-0.33789 0.4082-0.0625 0.099609-0.40625-0.35742-0.45312-0.90625-1.4336-0.95117 0.27734 0.4375-0.27734-0.38867-0.68555 0.82617-0.023438 0.41602-0.40625 0.10156-0.17578 0.23828-0.58398 0.62109 0.9375 0.60937 0.45508 0.35352 1.3418 0.099609 0.0019531 0.001953 0.16406 0.033203-0.34961 0.072266-0.30273 0.30273-0.30273-0.050781-0.15039 0.4043 0.099609 0.35352 0.60547 0.099609 0.25391 0.20117 0.60352 0.050781 0.50586-0.099609 0.050781-0.35352 0.050781-0.15234 0.26367 0.58203 0.013672 0.005859c0.072549 0.17561 0.098949 0.2471 0.25586 0.35742 0.13014 0.09148 0.2589 0.18526 0.38867 0.27734 0.21933 0.15556 0.66815 0.57816 0.9375 0.35156 0.21147-0.17796 0.37743-0.48448 0.55078-0.70312l0.044922-0.49609s0.43547-0.10547 0.43555-0.10547c0.075352-0.01816 0.21984-0.29096 0.26562-0.35156 0.07967-0.10561 0.28394-0.29029 0.28711-0.44531 4.57e-4 -0.02276-0.0044299-0.045447-0.013672-0.066407-0.047725-0.11024-0.93892-0.46048-0.89648-0.56641-0.0089101 0.0212-0.0072298 0.044366-0.011719 0.066406l-0.42773-0.27539-1.2031-0.03125-0.10352-0.082032 0.019531-0.029296 0.15039-0.25391 0.15234-0.20117 0.25195-0.50391 0.048828-0.55469 0.050781-0.9082-0.099609-0.95898-0.4043-1.0586 0.033203-0.2207 0.27734 0.29688 1.4453 1.3867c0.17836 0.15534 0.35689 0.30951 0.53516 0.46484 0.25202 0.21959 0.50908 0.40856 0.71875 0.68555 0.19294 0.255 0.29216 0.57301 0.51172 0.80664 0.09534 0.10146 0.1515 0.23232 0.22656 0.35156 0.092309 0.14656 0.1413 0.29422 0.23633 0.43359 0.10343 0.15153 0.28288 0.2828 0.41211 0.41211l0.76562 0.76562-0.41992 0.20312-0.84766 0.091797-1.4258 1.0156 0.09375-0.019531 0.5918 0.93359 0.4043 0.16992-0.033203 0.41797 0.17969 0.25 0.42383 0.76953 0.91797-0.66797 0.50391-0.30469 0.55859-1.252-0.015625 0.005859 0.10938-0.17969 0.11328-0.083985-0.027344 0.43164 0.09961 0.11914-0.039063 0.11719 0.019531 0.23828 0.058594 0.13867 0.17969 0.11914 0.23633-0.039063 0.17773-0.13867 0.080078-0.17969 0.009766 0.078125 0.18555 0.24609c0.02331 0.08828-0.040591 0.17416 0.068359 0.26367 0.18287 0.1501 0.27058-0.067901 0.28125-0.20508 0.0063-0.080511-0.016458-0.09565-0.048828-0.16797-0.01704-0.03812-0.16401-0.40024-0.16602-0.40039l0.10547 0.007813 0.21875-0.078125 0.1582-0.41602-0.1582-0.31641-0.080078-0.13867 0.027344-0.24023 0.29102-0.019532 0.10156-0.11914c-0.01232 0.0161-0.040175 0.066965-0.046875 0.072265 0.19906-0.0065 0.27723-0.0062 0.43945-0.11523 0.1346-0.09025 0.27119-0.17971 0.40625-0.26953 0.22814-0.15176 0.79768-0.42401 0.66211-0.75781-0.10661-0.26218-0.35396-0.52705-0.51367-0.76758l-0.48047-0.21875s0.040916-0.44712 0.041016-0.44727c0.007099-0.077411-0.21671-0.31054-0.26172-0.375-0.07847-0.11244-0.19438-0.36805-0.34766-0.42578-0.022449-0.00841-0.046322-0.013089-0.070312-0.011719-0.12574 0.00598-0.76999 0.72186-0.86133 0.64453 0.14965 0.13119 0.3834 0.12093 0.47461 0.28906l-0.41016-0.25-0.46289 0.33984-0.43164 1.123-0.44141 0.25781-1.2441-1.125-0.2168-0.47461-0.099609-0.23828-0.23633-0.35547c-0.2133-0.28434-0.33521-0.65759-0.57422-0.91016-0.35795-0.37833-0.82273-0.66701-1.2285-0.99023l-1.9199-1.9609 0.082031-0.47852-0.10156-0.4043-0.30273-0.20117-0.25195-0.50391-0.32031-0.27539 0.58789-0.97852 0.45508-0.50391 0.45312-0.55469 0.4043-0.55469-0.95898 0.20117 0.50391-0.60547zm5.0508 0.28711a3.3845 3.3845 0 0 0-3.3848 3.3848 3.3845 3.3845 0 0 0 3.3848 3.3848 3.3845 3.3845 0 0 0 3.3848-3.3848 3.3845 3.3845 0 0 0-3.3848-3.3848zm-2.0586 1.3184h4.2695v0.55273h-4.2695v-0.55273zm-0.035156 1.1348h4.2695v0.55273h-4.2695v-0.55273zm0 1.1348h4.2695v0.55273h-4.2695v-0.55273zm-0.019531 1.1348h4.2695v0.55273h-4.2695v-0.55273z" color="#000000" color-rendering="auto" dominant-baseline="auto" enable-background="accumulate" image-rendering="auto" shape-rendering="auto" solid-color="#000000" style="font-feature-settings:normal;font-variant-alternates:normal;font-variant-caps:normal;font-variant-ligatures:normal;font-variant-numeric:normal;font-variant-position:normal;isolation:auto;mix-blend-mode:normal;shape-padding:0;text-decoration-color:#000000;text-decoration-line:none;text-decoration-style:solid;text-indent:0;text-orientation:mixed;text-transform:none;white-space:normal"/>
</svg>
