<?xml version="1.0" encoding="UTF-8" standalone="no"?>
<svg
   xmlns:dc="http://purl.org/dc/elements/1.1/"
   xmlns:cc="http://creativecommons.org/ns#"
   xmlns:rdf="http://www.w3.org/1999/02/22-rdf-syntax-ns#"
   xmlns:svg="http://www.w3.org/2000/svg"
   xmlns="http://www.w3.org/2000/svg"
   xmlns:sodipodi="http://sodipodi.sourceforge.net/DTD/sodipodi-0.dtd"
   xmlns:inkscape="http://www.inkscape.org/namespaces/inkscape"
   width="15px"
   height="15px"
   enable-background="new 0 0 15 15"
   version="1.1"
   viewBox="0 0 15 15"
   id="svg28"
   sodipodi:docname="accion-lugar-del.svg"
   inkscape:version="0.92.4 (5da689c313, 2019-01-14)">
  <metadata
     id="metadata34">
    <rdf:RDF>
      <cc:Work
         rdf:about="">
        <dc:format>image/svg+xml</dc:format>
        <dc:type
           rdf:resource="http://purl.org/dc/dcmitype/StillImage" />
      </cc:Work>
    </rdf:RDF>
  </metadata>
  <defs
     id="defs32" />
  <sodipodi:namedview
     pagecolor="#ffffff"
     bordercolor="#666666"
     borderopacity="1"
     objecttolerance="10"
     gridtolerance="10"
     guidetolerance="10"
     inkscape:pageopacity="0"
     inkscape:pageshadow="2"
     inkscape:window-width="1920"
     inkscape:window-height="996"
     id="namedview30"
     showgrid="false"
     inkscape:zoom="15.733333"
     inkscape:cx="7.5"
     inkscape:cy="7.5"
     inkscape:window-x="-8"
     inkscape:window-y="-8"
     inkscape:window-maximized="1"
     inkscape:current-layer="svg28" />
  <path
     d="m3.6831 6.4559c-1.6352-2.4106-1.9387-2.658-1.9387-3.5439 0-1.2135 0.96742-2.1973 2.1608-2.1973 1.1934 0 2.1608 0.98375 2.1608 2.1973 0 0.88592-0.30353 1.1333-1.9387 3.5439-0.1073 0.15763-0.33684 0.15762-0.44413 0zm0.22207-2.6284c0.49724 0 0.90033-0.40989 0.90033-0.91553 0-0.50563-0.40309-0.91553-0.90033-0.91553-0.49725 0-0.90034 0.40989-0.90034 0.91553 0 0.50563 0.40309 0.91553 0.90034 0.91553z"
     fill="currentColor"
     stroke-width=".011349"
     id="path2" />
  <g
     transform="matrix(-.029266 0 0 .02976 15.088 1.6157)"
     id="g24">
    <polygon
       points="426.7 262.42 382.7 193.06 338.22 262.42"
       fill="#f2f2f2"
       id="polygon4" />
    <polygon
       points="263.61 378.73 205.4 287.98 145.85 380.81 501.8 380.81 426.7 262.42 338.22 262.42"
       fill="#b3b3b3"
       id="polygon6" />
    <path
       d="m110.15 370.53h-7.672c-5.632 0-10.199 4.566-10.199 10.199s4.567 10.199 10.199 10.199h7.672c5.632 0 10.199-4.566 10.199-10.199s-4.567-10.199-10.199-10.199z"
       id="path8" />
    <path
       d="m69.274 370.53h-59.075c-5.632 0-10.199 4.566-10.199 10.199s4.567 10.199 10.199 10.199h59.075c5.632 0 10.199-4.566 10.199-10.199s-4.567-10.199-10.199-10.199z"
       id="path10" />
    <path
       d="m395.73 419.49h-192.76c-5.632 0-10.199 4.566-10.199 10.199s4.567 10.199 10.199 10.199h192.76c5.632 0 10.199-4.566 10.199-10.199s-4.567-10.199-10.199-10.199z"
       id="path12" />
    <path
       d="m468.14 419.49h-28.558c-5.632 0-10.199 4.566-10.199 10.199s4.567 10.199 10.199 10.199h28.558c5.632 0 10.199-4.566 10.199-10.199s-4.567-10.199-10.199-10.199z"
       id="path14" />
    <path
       d="m288.91 193.18h48.756c5.632 0 10.199-4.566 10.199-10.199s-4.567-10.199-10.199-10.199h-48.756c-5.632 0-10.199 4.566-10.199 10.199 0 5.632 4.566 10.199 10.199 10.199z"
       id="path16" />
    <path
       d="m510.41 375.35-75.103-118.4-43.994-69.355c-1.865-2.941-5.104-4.727-8.587-4.737h-0.025c-3.473 0-6.709 1.768-8.585 4.693l-110.51 172.28-49.626-77.363c-1.876-2.924-5.111-4.693-8.585-4.693s-6.709 1.769-8.585 4.693l-59.548 92.832c-2.014 3.139-2.153 7.126-0.364 10.399 1.788 3.272 5.22 5.308 8.949 5.308h355.95c3.72 0 7.145-2.026 8.938-5.285 1.791-3.259 1.667-7.236-0.326-10.377zm-345.9-4.736 40.889-63.743 40.89 63.743zm218.15-158.59 25.494 40.191h-51.275zm-101.73 158.59 62.861-97.997h77.3l62.163 97.997z"
       id="path18" />
    <path
       d="m370.23 293.02h-20.398c-5.632 0-10.199 4.566-10.199 10.199s4.567 10.199 10.199 10.199h20.398c5.632 0 10.199-4.566 10.199-10.199s-4.567-10.199-10.199-10.199z"
       id="path20" />
    <path
       d="m394.71 342.99c0 5.633 4.567 10.199 10.199 10.199h19.378c5.632 0 10.199-4.566 10.199-10.199s-4.567-10.199-10.199-10.199h-19.378c-5.632 0-10.199 4.566-10.199 10.199z"
       id="path22" />
  </g>
  <path
     style="color:#000000;font-style:normal;font-variant:normal;font-weight:normal;font-stretch:normal;font-size:medium;line-height:normal;font-family:sans-serif;font-variant-ligatures:normal;font-variant-position:normal;font-variant-caps:normal;font-variant-numeric:normal;font-variant-alternates:normal;font-feature-settings:normal;text-indent:0;text-align:start;text-decoration:none;text-decoration-line:none;text-decoration-style:solid;text-decoration-color:#000000;letter-spacing:normal;word-spacing:normal;text-transform:none;writing-mode:lr-tb;direction:ltr;text-orientation:mixed;dominant-baseline:auto;baseline-shift:baseline;text-anchor:start;white-space:normal;shape-padding:0;clip-rule:nonzero;display:inline;overflow:visible;visibility:visible;opacity:1;isolation:auto;mix-blend-mode:normal;color-interpolation:sRGB;color-interpolation-filters:linearRGB;solid-color:#000000;solid-opacity:1;vector-effect:none;fill:#000000;fill-opacity:1;fill-rule:nonzero;stroke:none;stroke-width:1.43620002;stroke-linecap:round;stroke-linejoin:miter;stroke-miterlimit:4;stroke-dasharray:none;stroke-dashoffset:0;stroke-opacity:1;color-rendering:auto;image-rendering:auto;shape-rendering:auto;text-rendering:auto;enable-background:accumulate"
     d="m 8.640625,2.8574219 a 0.71817182,0.71817182 0 1 0 0,1.4355469 h 5.214844 a 0.71817182,0.71817182 0 1 0 0,-1.4355469 z"
     id="path26"
     inkscape:connector-curvature="0" />
</svg>
