<?xml version="1.0" encoding="UTF-8" standalone="no"?>
<!-- Generado por Andres Lacquaniti  -->

<svg
   xmlns:dc="http://purl.org/dc/elements/1.1/"
   xmlns:cc="http://creativecommons.org/ns#"
   xmlns:rdf="http://www.w3.org/1999/02/22-rdf-syntax-ns#"
   xmlns:svg="http://www.w3.org/2000/svg"
   xmlns="http://www.w3.org/2000/svg"
   xmlns:sodipodi="http://sodipodi.sourceforge.net/DTD/sodipodi-0.dtd"
   xmlns:inkscape="http://www.inkscape.org/namespaces/inkscape"
   version="1.1"
   id="Layer_1"
   x="0px"
   y="0px"
   width="15px"
   height="15px"
   viewBox="0 0 15 15"
   style="enable-background:new 0 0 15 15;"
   xml:space="preserve"
   sodipodi:docname="im-add.svg"
   inkscape:version="0.92.0 r15299"><metadata
     id="metadata9"><rdf:RDF><cc:Work
         rdf:about=""><dc:format>image/svg+xml</dc:format><dc:type
           rdf:resource="http://purl.org/dc/dcmitype/StillImage" /><dc:title /></cc:Work></rdf:RDF></metadata><defs
     id="defs7" /><sodipodi:namedview
     pagecolor="#ffffff"
     bordercolor="#666666"
     borderopacity="1"
     objecttolerance="10"
     gridtolerance="10"
     guidetolerance="10"
     inkscape:pageopacity="0"
     inkscape:pageshadow="2"
     inkscape:window-width="1920"
     inkscape:window-height="996"
     id="namedview5"
     showgrid="false"
     inkscape:zoom="22.250293"
     inkscape:cx="17.0548"
     inkscape:cy="7.9569597"
     inkscape:window-x="-8"
     inkscape:window-y="-8"
     inkscape:window-maximized="1"
     inkscape:current-layer="Layer_1" /><g
     style="clip-rule:evenodd;fill-rule:evenodd"
     transform="matrix(0.03011585,0,0,-0.03011585,-14.323265,-6.8330439)"
     id="g5219" /><path
     style="opacity:1;fill:#000000;fill-opacity:1;stroke:none;stroke-width:27.66408157;stroke-miterlimit:3.70000005;stroke-dasharray:none;stroke-opacity:1"
     d="M 5.9921875 -0.16015625 L 5.4375 0.19335938 L 4.9335938 0.74804688 L 4.5292969 1.3027344 L 4.0761719 2.1601562 L 3.7773438 2.8085938 L 3.7578125 2.8085938 L 3.3535156 3.4140625 C 3.3535156 3.4140625 3.001434 4.0696094 3.203125 3.96875 C 3.404828 3.8678905 3.4042969 4.3203125 3.4042969 4.3203125 L 3.65625 4.7753906 L 4.0097656 5.1777344 L 4.3125 5.53125 L 4.4628906 5.734375 L 4.7167969 6.2382812 L 4.9179688 6.9941406 L 5.0683594 7.7011719 L 4.9179688 8.4570312 L 4.8164062 9.1132812 L 4.4785156 9.5214844 L 4.4160156 9.6210938 L 4.0097656 9.2636719 L 3.5566406 8.3574219 L 2.1230469 7.40625 L 2.4003906 7.84375 L 2.1230469 7.4550781 L 1.4375 8.28125 L 1.4140625 8.6972656 L 1.0078125 8.7988281 L 0.83203125 9.0371094 L 0.24804688 9.6582031 L 1.1855469 10.267578 L 1.640625 10.621094 L 2.9824219 10.720703 L 2.984375 10.722656 L 3.1484375 10.755859 L 2.7988281 10.828125 L 2.4960938 11.130859 L 2.1933594 11.080078 L 2.0429688 11.484375 L 2.1425781 11.837891 L 2.7480469 11.9375 L 3.0019531 12.138672 L 3.6054688 12.189453 L 4.1113281 12.089844 L 4.1621094 11.736328 L 4.2128906 11.583984 L 4.4765625 12.166016 L 4.4902344 12.171875 C 4.5627834 12.347486 4.5891838 12.418972 4.7460938 12.529297 C 4.8762357 12.620778 5.0049949 12.714561 5.1347656 12.806641 C 5.3540999 12.962206 5.8029156 13.384802 6.0722656 13.158203 C 6.2837367 12.980247 6.4496953 12.673727 6.6230469 12.455078 L 6.6679688 11.958984 C 6.6679688 11.958984 7.1034424 11.853516 7.1035156 11.853516 C 7.1788672 11.835358 7.3233576 11.562553 7.3691406 11.501953 C 7.4488107 11.396345 7.65308 11.211663 7.65625 11.056641 C 7.656707 11.033881 7.6518181 11.011194 7.6425781 10.990234 C 7.5948528 10.879994 6.7036568 10.529749 6.7460938 10.423828 C 6.7371848 10.445028 6.738865 10.468194 6.734375 10.490234 L 6.3066406 10.214844 L 5.1035156 10.183594 L 5 10.101562 L 5.0195312 10.072266 L 5.1699219 9.8183594 L 5.3222656 9.6171875 L 5.5742188 9.1132812 L 5.6230469 8.5585938 L 5.6738281 7.6503906 L 5.5742188 6.6914062 L 5.1699219 5.6328125 L 5.203125 5.4121094 L 5.4804688 5.7089844 L 6.9257812 7.0957031 C 7.1041376 7.2510399 7.2826668 7.4052105 7.4609375 7.5605469 C 7.7129582 7.7801397 7.9700183 7.9691072 8.1796875 8.2460938 C 8.3726279 8.5010893 8.4718428 8.8191008 8.6914062 9.0527344 C 8.7867464 9.154195 8.8429028 9.2850495 8.9179688 9.4042969 C 9.0102782 9.5508548 9.059271 9.698512 9.1542969 9.8378906 C 9.2577301 9.989424 9.4371789 10.120686 9.5664062 10.25 L 10.332031 11.015625 L 9.9121094 11.21875 L 9.0644531 11.310547 L 7.6386719 12.326172 L 7.7324219 12.306641 L 8.3242188 13.240234 L 8.7285156 13.410156 L 8.6953125 13.828125 L 8.875 14.078125 L 9.2988281 14.847656 L 10.216797 14.179688 L 10.720703 13.875 L 11.279297 12.623047 L 11.263672 12.628906 L 11.373047 12.449219 L 11.486328 12.365234 L 11.458984 12.796875 L 11.558594 12.916016 L 11.519531 13.033203 L 11.539062 13.271484 L 11.597656 13.410156 L 11.777344 13.529297 L 12.013672 13.490234 L 12.191406 13.351562 L 12.271484 13.171875 L 12.28125 13.25 L 12.466797 13.496094 C 12.490107 13.584371 12.426203 13.670256 12.535156 13.759766 C 12.718026 13.909869 12.805736 13.691864 12.816406 13.554688 C 12.822666 13.474178 12.799948 13.459039 12.767578 13.386719 C 12.750535 13.348599 12.603563 12.986475 12.601562 12.986328 L 12.707031 12.994141 L 12.925781 12.916016 L 13.083984 12.5 L 12.925781 12.183594 L 12.845703 12.044922 L 12.873047 11.804688 L 13.164062 11.785156 L 13.265625 11.666016 C 13.253305 11.682116 13.22545 11.732981 13.21875 11.738281 C 13.417811 11.73179 13.495976 11.732085 13.658203 11.623047 C 13.792807 11.532796 13.929393 11.443336 14.064453 11.353516 C 14.292596 11.201754 14.862137 10.92951 14.726562 10.595703 C 14.619954 10.333528 14.372602 10.06865 14.212891 9.828125 L 13.732422 9.609375 C 13.732422 9.609375 13.77335 9.1622558 13.773438 9.1621094 C 13.780557 9.0846989 13.556729 8.8515654 13.511719 8.7871094 C 13.433251 8.6746686 13.317339 8.4190641 13.164062 8.3613281 C 13.141613 8.3529191 13.11774 8.3482394 13.09375 8.3496094 C 12.968008 8.3555857 12.323762 9.0714656 12.232422 8.9941406 C 12.382076 9.1253294 12.615821 9.1150684 12.707031 9.2832031 L 12.296875 9.0332031 L 11.833984 9.3730469 L 11.402344 10.496094 L 10.960938 10.753906 L 9.7167969 9.6289062 L 9.5 9.1542969 L 9.4003906 8.9160156 L 9.1640625 8.5605469 C 8.9507607 8.2762115 8.8288532 7.9029539 8.5898438 7.6503906 C 8.2318967 7.272061 7.7671126 6.9833821 7.3613281 6.6601562 L 5.4414062 4.6992188 L 5.5234375 4.2207031 L 5.421875 3.8164062 L 5.1191406 3.6152344 L 4.8671875 3.1113281 L 4.546875 2.8359375 L 5.1347656 1.8574219 L 5.5898438 1.3535156 L 6.0429688 0.79882812 L 6.4472656 0.24414062 L 5.4882812 0.4453125 L 5.9921875 -0.16015625 z M 11.107422 0.4453125 A 3.3845339 3.3845339 0 0 0 7.7226562 3.8300781 A 3.3845339 3.3845339 0 0 0 11.107422 7.2148438 A 3.3845339 3.3845339 0 0 0 14.492188 3.8300781 A 3.3845339 3.3845339 0 0 0 11.107422 0.4453125 z M 10.759766 1.2148438 L 11.455078 1.2148438 L 11.455078 3.4941406 L 13.734375 3.4941406 L 13.734375 4.1640625 L 11.455078 4.1640625 L 11.455078 6.4433594 L 10.759766 6.4433594 L 10.759766 4.1640625 L 8.4804688 4.1640625 L 8.4804688 3.4941406 L 10.759766 3.4941406 L 10.759766 1.2148438 z M 12.716797 9.3144531 C 12.729747 9.3471398 12.750153 9.3710528 12.751953 9.4179688 C 12.753493 9.4583589 12.739769 9.494001 12.730469 9.53125 L 12.724609 9.5078125 L 12.716797 9.3144531 z M 2.6796875 10.318359 L 2.8457031 10.539062 L 2.6523438 10.320312 L 2.6796875 10.318359 z M 2.4355469 10.335938 L 2.2988281 10.367188 L 2.2578125 10.349609 L 2.4355469 10.335938 z M 12.259766 11.847656 L 12.212891 11.886719 L 12.177734 11.855469 L 12.179688 11.853516 L 12.259766 11.847656 z M 10.724609 12.828125 L 10.689453 13.166016 L 10.615234 13.242188 L 10.724609 12.828125 z "
     id="path4483" /><g
     aria-label="+"
     style="font-style:normal;font-variant:normal;font-weight:normal;font-stretch:normal;font-size:40px;line-height:25px;font-family:Verdana;-inkscape-font-specification:Verdana;letter-spacing:0px;word-spacing:0px;fill:#ffffff;fill-opacity:1;stroke:none"
     id="text4492"
     transform="matrix(0.21416104,0,0,0.21416104,1.4219615,2.4458528)" /></svg>