<?xml version="1.0" encoding="UTF-8" standalone="no"?>
<!-- Generado por Andres Lacquaniti  -->

<svg
   xmlns:dc="http://purl.org/dc/elements/1.1/"
   xmlns:cc="http://creativecommons.org/ns#"
   xmlns:rdf="http://www.w3.org/1999/02/22-rdf-syntax-ns#"
   xmlns:svg="http://www.w3.org/2000/svg"
   xmlns="http://www.w3.org/2000/svg"
   xmlns:sodipodi="http://sodipodi.sourceforge.net/DTD/sodipodi-0.dtd"
   xmlns:inkscape="http://www.inkscape.org/namespaces/inkscape"
   version="1.1"
   id="Layer_1"
   x="0px"
   y="0px"
   width="15px"
   height="15px"
   viewBox="0 0 15 15"
   style="enable-background:new 0 0 15 15;"
   xml:space="preserve"
   sodipodi:docname="scout-perfil.svg"
   inkscape:version="0.92.0 r15299"><metadata
     id="metadata9"><rdf:RDF><cc:Work
         rdf:about=""><dc:format>image/svg+xml</dc:format><dc:type
           rdf:resource="http://purl.org/dc/dcmitype/StillImage" /><dc:title /></cc:Work></rdf:RDF></metadata><defs
     id="defs7" /><sodipodi:namedview
     pagecolor="#ffffff"
     bordercolor="#666666"
     borderopacity="1"
     objecttolerance="10"
     gridtolerance="10"
     guidetolerance="10"
     inkscape:pageopacity="0"
     inkscape:pageshadow="2"
     inkscape:window-width="1920"
     inkscape:window-height="996"
     id="namedview5"
     showgrid="false"
     inkscape:zoom="31.466666"
     inkscape:cx="26.887165"
     inkscape:cy="3.2202809"
     inkscape:window-x="-8"
     inkscape:window-y="-8"
     inkscape:window-maximized="1"
     inkscape:current-layer="Layer_1"
     showguides="true"
     inkscape:guide-bbox="true"><sodipodi:guide
       position="-55.296611,-16.271187"
       orientation="1,0"
       id="guide862"
       inkscape:locked="false" /></sodipodi:namedview><path
     id="path4574-9"
     style="display:inline;fill:#000000;stroke-width:0.03927594"
     d="m 3.9439982,3.7226863 v 0 c -0.016958,-8.116e-4 -0.033772,8.114e-4 -0.047695,0.00421 -0.09034,0.025328 -0.560171,0.5665859 -0.729305,0.8429339 -0.09034,0.1477353 -0.2144288,0.4544754 -0.2591703,0.6419716 -0.025329,0.1025707 -0.021098,0.1051017 0.2519946,0.1511125 0.152369,0.025325 0.4749038,0.060781 0.7166399,0.077666 0.2418644,0.016887 0.5543443,0.025325 0.6947753,0.016887 0.7369445,-0.042212 1.0118997,-0.065003 1.0582905,-0.093706 0.042215,-0.025325 0.042215,-0.070069 0.00178,-0.2422843 C 5.5705332,4.8623079 5.5131269,4.7453857 5.2898338,4.4239575 5.0327751,4.053777 4.7617452,3.7523124 4.6638191,3.7277455 4.616534,3.7150897 4.5135564,3.7361886 4.4354619,3.7737544 4.3003895,3.8379151 4.285199,3.8379151 4.1399915,3.7721312 4.0749811,3.7425838 3.9994392,3.7244338 3.9437145,3.7227434 Z m 0.8407381,0.6186708 c 0.012673,0 0.079344,0.1194552 0.1443543,0.2650799 0.065421,0.1456236 0.1650428,0.3136194 0.2216011,0.3731366 0.092857,0.097082 0.095391,0.108056 0.025329,0.1067904 C 5.0548719,5.0847412 4.9675043,5.0154506 4.8873034,4.8588535 4.8109046,4.7090067 4.7366121,4.3414424 4.78263,4.3414424 Z M 3.7648575,4.379345 c 0.00429,0 0.00839,0.00421 0.00839,0.012655 0.029542,0.1135449 -0.1051016,0.5026372 -0.2055608,0.603181 -0.051926,0.051917 -0.1333766,0.094126 -0.1819254,0.094126 -0.087377,0 -0.087377,-4.057e-4 0.012673,-0.1080559 0.056139,-0.059513 0.1591345,-0.2317312 0.2292,-0.3828429 C 3.6943225,4.4548946 3.7407509,4.3793375 3.7614392,4.3793375 Z M 1.4675398,5.4475539 C 1.3130466,5.4467426 1.1902195,5.4644406 1.1247915,5.4965165 0.97326137,5.5750274 0.9192307,5.6678908 0.9192307,5.8493914 c 0,0.1097464 0.0253294,0.155334 0.1270575,0.2283566 0.2777433,0.198809 0.6548444,0.3115093 1.2307589,0.3672264 0.2625457,0.025325 0.2802746,0.033767 0.3220618,0.1447793 0.042215,0.1076365 0.033772,0.1257865 -0.070919,0.2144287 -0.063315,0.053182 -0.1355007,0.164618 -0.1604018,0.2473483 -0.037985,0.1278965 -0.033772,0.1726398 0.029542,0.2988475 0.1025665,0.2059828 0.2414414,0.2975796 0.4522805,0.2975796 0.1701122,0 0.1768596,0.00421 0.2811171,0.203873 0.21696,0.4140796 0.5637586,0.7243675 0.9117353,0.8152866 0.1633468,0.042631 0.4279669,0.00845 0.6220911,-0.076823 C 4.8882666,8.4898355 5.2215151,8.1397449 5.3499168,7.8696008 5.4558578,7.6467343 5.457125,7.6458903 5.6344111,7.6437783 5.9294585,7.6402471 6.1046312,7.4487691 6.1046312,7.1291974 6.1046312,6.9966581 6.0793017,6.9417843 5.9725221,6.83415 5.840824,6.7024565 5.840824,6.7020317 5.9092082,6.5889095 5.9704164,6.4884504 6.0062952,6.4728333 6.2278926,6.4521503 6.8862411,6.3905225 7.4484359,6.201 7.6075256,5.9864901 7.674214,5.8970054 7.6784444,5.8645037 7.6412981,5.7458918 7.5572953,5.4913676 7.4880723,5.461398 6.9957804,5.4660419 6.6277081,5.4695763 6.4741483,5.4913678 6.0279046,5.6099768 5.168931,5.8370655 4.5641045,5.8978486 3.7901013,5.8353774 3.2510777,5.7919016 3.0497794,5.7551784 2.3949351,5.5808515 2.0749832,5.4955865 1.7283559,5.4487333 1.4707492,5.4474678 Z m 1.8006329,1.0848383 v 0 c 0.029542,-4.058e-4 0.057406,4.059e-4 0.087806,0.00254 0.214427,0.012655 0.2182255,0.016887 0.2021835,0.124098 -0.025329,0.1646178 0.051926,0.2760518 0.1878357,0.2760518 0.1371786,0 0.2118959,-0.1118563 0.1874107,-0.2794296 L 3.9164502,6.5425269 h 0.3203749 0.3203732 l -0.016958,0.1131202 c -0.025329,0.1658852 0.05023,0.2794297 0.184037,0.2794297 0.1473176,0 0.2123154,-0.085686 0.1924767,-0.2545262 L 4.8997967,6.5425259 h 0.2080956 c 0.114384,0 0.2216028,-4.057e-4 0.2376412,-8.116e-4 0.016958,-4.057e-4 0.033772,0.08653 0.042215,0.1924772 0.00839,0.1696856 0.025329,0.196277 0.1118491,0.2182246 0.055299,0.012655 0.1240945,0.00421 0.1536365,-0.021104 0.042215,-0.033769 0.075971,-0.021106 0.153226,0.055295 0.1274681,0.1266309 0.1270575,0.2372185 0,0.3646926 C 5.7064281,7.4513395 5.6443807,7.457247 5.4160146,7.3892923 5.3493267,7.3681852 5.3197846,7.4061774 5.2218513,7.6252435 5.063556,7.9823403 4.8795278,8.2098934 4.6380024,8.3483838 H 4.6373938 C 4.2672114,8.5607005 3.918685,8.4851465 3.5772878,8.1183392 3.4050694,7.93346 3.1568787,7.4953634 3.1568787,7.3764163 c 0,-0.063737 -0.042215,-0.060362 -0.1350723,0.012656 -0.042215,0.033769 -0.1257901,0.057828 -0.1865664,0.057828 -0.2389103,0 -0.3570964,-0.3064435 -0.1815042,-0.4697968 0.099621,-0.09286 0.1245228,-0.096661 0.2237127,-0.033767 0.1257902,0.078511 0.2000755,0.012655 0.2017641,-0.1717955 4.052e-4,-0.092439 0.012673,-0.1861451 0.029542,-0.2085167 0.012673,-0.016887 0.076828,-0.029545 0.1595627,-0.029545 z m 0.409858,1.0240146 c -0.021098,6.087e-4 -0.029542,0.012655 -0.037985,0.029545 -0.029542,0.081888 0.097087,0.203875 0.2857617,0.27141 0.084413,0.029547 0.229198,0.055717 0.3216388,0.056564 0.2625475,0.00254 0.5976506,-0.1650446 0.5976506,-0.2988474 0,-0.076401 -0.073026,-0.065003 -0.2912487,0.045586 C 4.3018552,7.7885608 4.1558067,7.7843411 3.8852017,7.6437781 3.767444,7.581729 3.709181,7.5555589 3.6766811,7.556828 Z M 3.022217,7.877622 c -0.054871,0 -0.2296229,0.1806613 -0.2916718,0.3018015 -0.025329,0.047276 -0.044322,0.1384495 -0.044322,0.2026089 0,0.1713707 0.4936877,0.6214159 0.9108909,0.8302269 0.237643,0.1190321 0.2899815,0.1582882 0.2106268,0.1582882 -0.1604017,0 -0.5125124,0.1831912 -0.6472064,0.3364149 -0.06626,0.075554 -0.1557606,0.2068268 -0.1992276,0.2916697 -0.082308,0.1612409 -0.1962787,0.5542599 -0.1962787,0.6760779 0,0.03798 0.012674,0.07006 0.025329,0.07006 0.012673,0 0.2207585,-0.101731 0.4610147,-0.225824 0.3300841,-0.170524 0.502174,-0.289977 0.705077,-0.48866 L 4.2249048,9.7677436 4.460013,10.000744 c 0.1291639,0.128318 0.3532996,0.303068 0.4979503,0.388753 0.3056022,0.18108 0.6973529,0.35963 0.7258863,0.331348 C 5.7133917,10.691298 5.6015424,10.24328 5.5124701,10.041602 5.3659915,9.7098313 4.939217,9.3763317 4.6513883,9.3689447 4.5754179,9.3673217 4.5969274,9.3478387 4.7451017,9.2887458 5.150315,9.1245491 5.7599967,8.6179447 5.7990832,8.4133941 5.8244126,8.2838108 5.7475855,8.1191905 5.5981652,7.9785049 5.491796,7.878469 5.467734,7.8704489 5.4230014,7.9194119 5.3934594,7.9489593 5.3491374,8.0532186 5.3225406,8.1465005 5.2587976,8.3710568 5.1051612,8.5289226 4.6330008,8.8546153 L 4.2417125,9.1243366 3.8339645,8.8461728 C 3.3554316,8.5198899 3.2695759,8.4270272 3.154933,8.1126067 3.1076479,7.9834447 3.0485638,7.8779203 3.0232345,7.8779203 Z m 1.2205433,1.3746535 c 0.177288,0 0.2351082,0.2262445 0.084413,0.331769 -0.048124,0.033769 -0.10089,0.061205 -0.1177577,0.061205 -0.050659,0 -0.1878337,-0.1532223 -0.1878337,-0.209783 0,-0.075556 0.1300027,-0.1827691 0.2211815,-0.1827691 z M 8.5969574,9.594336 h 5.1409946 c 0.116027,0 0.209447,0.093415 0.209447,0.209448 v 0.342733 c 0,0.116033 -0.09341,0.209448 -0.209447,0.209448 H 8.5969574 c -0.1160441,0 -0.2094469,-0.09342 -0.2094469,-0.209448 V 9.803784 c 0,-0.1160332 0.09341,-0.209448 0.2094469,-0.209448 z m 0.019046,-1.7620612 h 5.1029136 c 0.126575,0 0.228487,0.1019068 0.228487,0.2284903 v 0.30465 c 0,0.1265826 -0.101908,0.2284882 -0.228487,0.2284882 H 8.6160034 c -0.1265755,0 -0.2284893,-0.1019048 -0.2284893,-0.2284882 v -0.30465 c 0,-0.1265827 0.1019069,-0.2284903 0.2284893,-0.2284903 z M 8.5398367,6.137991 h 5.2552403 c 0.08438,0 0.152333,0.067937 0.152333,0.1523244 v 0.4569768 c 0,0.084387 -0.06793,0.1523263 -0.152333,0.1523263 H 8.5398367 c -0.084396,0 -0.1523333,-0.06794 -0.1523333,-0.1523263 V 6.2903167 c 0,-0.084388 0.067938,-0.1523245 0.1523333,-0.1523257 z m 0.00945,-1.8298373 H 13.78549 c 0.08966,0 0.161847,0.072185 0.161847,0.1618459 v 0.4379365 c 0,0.089664 -0.07218,0.1618458 -0.161847,0.1618458 H 8.5492974 c -0.089662,0 -0.1618475,-0.072183 -0.1618475,-0.1618458 V 4.4699996 c 0,-0.089661 0.072186,-0.1618459 0.1618475,-0.1618459 z M 1.2324655,3.1208849 c -0.63150172,0 -1.14675782,0.6329334 -1.14675782,1.408916 v 5.4838461 c 0,0.775983 0.5152561,1.408969 1.14675782,1.408969 H 13.752739 c 0.631504,0 1.146759,-0.632986 1.146761,-1.408969 V 4.5298009 c 0,-0.7759826 -0.515257,-1.408916 -1.146761,-1.408916 z m -5.35e-5,0.2665185 h 12.52036 c 0.515072,0 0.929736,0.5095352 0.929736,1.1424503 v 5.4836903 c 0,0.632914 -0.414664,1.14245 -0.929736,1.14245 H 1.232412 c -0.51506877,0 -0.92973543,-0.509536 -0.92973543,-1.14245 V 4.5298537 c 0,-0.6329151 0.41466666,-1.1424503 0.92973543,-1.1424503 z"
     inkscape:connector-curvature="0"
     sodipodi:nodetypes="ccccccccccccccccccccccccccsccccccsccccccscccccscccccccccccccccscccccsccscccccccccccscsccccccccccsccccccscsccsscccccccccccccccccccccssccsssssssssssssssssscsssssssccsssssssccssssscssssssssssss" /></svg>