<?xml version="1.0" encoding="UTF-8" standalone="no"?>
<!-- Generado por Andres Lacquaniti  -->

<svg
   xmlns:dc="http://purl.org/dc/elements/1.1/"
   xmlns:cc="http://creativecommons.org/ns#"
   xmlns:rdf="http://www.w3.org/1999/02/22-rdf-syntax-ns#"
   xmlns:svg="http://www.w3.org/2000/svg"
   xmlns="http://www.w3.org/2000/svg"
   xmlns:sodipodi="http://sodipodi.sourceforge.net/DTD/sodipodi-0.dtd"
   xmlns:inkscape="http://www.inkscape.org/namespaces/inkscape"
   version="1.1"
   id="Layer_1"
   x="0px"
   y="0px"
   width="15px"
   height="15px"
   viewBox="0 0 15 15"
   style="enable-background:new 0 0 15 15;"
   xml:space="preserve"
   sodipodi:docname="area-ayf.svg"
   inkscape:version="0.92.0 r15299"><metadata
     id="metadata9"><rdf:RDF><cc:Work
         rdf:about=""><dc:format>image/svg+xml</dc:format><dc:type
           rdf:resource="http://purl.org/dc/dcmitype/StillImage" /><dc:title /></cc:Work></rdf:RDF></metadata><defs
     id="defs7" /><sodipodi:namedview
     pagecolor="#ffffff"
     bordercolor="#666666"
     borderopacity="1"
     objecttolerance="10"
     gridtolerance="10"
     guidetolerance="10"
     inkscape:pageopacity="0"
     inkscape:pageshadow="2"
     inkscape:window-width="1920"
     inkscape:window-height="996"
     id="namedview5"
     showgrid="false"
     inkscape:zoom="11.125147"
     inkscape:cx="4.708418"
     inkscape:cy="4.776083"
     inkscape:window-x="-8"
     inkscape:window-y="-8"
     inkscape:window-maximized="1"
     inkscape:current-layer="Layer_1" /><path
     style="fill:#000000;fill-opacity:1;fill-rule:nonzero;stroke:none;stroke-width:0.47135976"
     d="M 5.6105972,0.23610586 V 0.96261708 C 3.8764656,1.1459755 3.6686681,2.1205964 3.6686681,2.5655603 c 0,0.6990264 0.524079,1.4400125 1.9419291,1.6021612 v 0.033668 0.8666456 H 4.5795465 c -0.3323085,0 -0.6004673,0.2698052 -0.6004673,0.6016421 0,0.3323085 0.2681588,0.6012505 0.6004673,0.6012505 h 1.0310507 v 0.775441 H 6.8130983 V 6.2376561 C 8.2300064,6.0750358 8.7538538,5.3338181 8.7538538,4.6343213 8.7538538,4.189829 8.5462879,3.2155997 6.8130983,3.0317685 V 2.9984945 2.1318477 h 0.89757 c 0.3323085,0 0.6008589,-0.2694125 0.6008589,-0.6012505 0,-0.3318369 -0.2685504,-0.6016422 -0.6008589,-0.6016422 h -0.89757 V 0.23610825 Z M 13.333691,1.7161368 9.6905679,4.7873689 11.240666,5.3475181 10.252282,8.0547113 C 8.3098092,7.4933228 6.5244783,7.6123657 4.9345821,8.4089637 1.6854992,10.037984 0.48683042,13.908664 0.43733838,14.072697 L 0.22948352,14.762413 1.6085235,15.179295 1.8187268,14.48958 C 1.8291138,14.45564 2.8972924,11.039 5.5882856,9.6956242 6.9934086,8.9937695 8.6274673,8.9727711 10.444087,9.6345562 l 0.677582,0.2462148 1.476117,-4.0427834 1.573585,0.5691525 z M 5.6105972,2.1721634 V 2.9542592 C 5.1095426,2.8731812 4.870386,2.6961279 4.870386,2.5655603 c 0,-0.1871299 0.2839351,-0.3283483 0.7402112,-0.3933969 z m 1.2025011,2.0691478 c 0.4562761,0.065044 0.7390376,0.2068186 0.7390376,0.3930053 0,0.131038 -0.2379818,0.3079373 -0.7390376,0.3894821 z"
     id="path5784"
     inkscape:connector-curvature="0" /></svg>