<?xml version="1.0" encoding="UTF-8" standalone="no"?>
<!-- Generado por Andres Lacquaniti  -->

<svg
   xmlns:dc="http://purl.org/dc/elements/1.1/"
   xmlns:cc="http://creativecommons.org/ns#"
   xmlns:rdf="http://www.w3.org/1999/02/22-rdf-syntax-ns#"
   xmlns:svg="http://www.w3.org/2000/svg"
   xmlns="http://www.w3.org/2000/svg"
   xmlns:sodipodi="http://sodipodi.sourceforge.net/DTD/sodipodi-0.dtd"
   xmlns:inkscape="http://www.inkscape.org/namespaces/inkscape"
   version="1.1"
   id="Layer_1"
   x="0px"
   y="0px"
   width="15px"
   height="15px"
   viewBox="0 0 15 15"
   style="enable-background:new 0 0 15 15;"
   xml:space="preserve"
   sodipodi:docname="area-ams.svg"
   inkscape:version="0.92.0 r15299"><metadata
     id="metadata9"><rdf:RDF><cc:Work
         rdf:about=""><dc:format>image/svg+xml</dc:format><dc:type
           rdf:resource="http://purl.org/dc/dcmitype/StillImage" /><dc:title></dc:title></cc:Work></rdf:RDF></metadata><defs
     id="defs7" /><sodipodi:namedview
     pagecolor="#ffffff"
     bordercolor="#666666"
     borderopacity="1"
     objecttolerance="10"
     gridtolerance="10"
     guidetolerance="10"
     inkscape:pageopacity="0"
     inkscape:pageshadow="2"
     inkscape:window-width="1920"
     inkscape:window-height="996"
     id="namedview5"
     showgrid="false"
     inkscape:zoom="22.250293"
     inkscape:cx="22.438759"
     inkscape:cy="0.0079603607"
     inkscape:window-x="-8"
     inkscape:window-y="-8"
     inkscape:window-maximized="1"
     inkscape:current-layer="Layer_1" /><path
     style="fill:#000000;fill-opacity:1;fill-rule:nonzero;stroke:none;stroke-width:0.37404761"
     d="M 8.5117188 0.18359375 C 8.3333914 0.21599562 8.1701619 0.31434911 8.0742188 0.48828125 C 6.4310275 3.4570972 5.0175367 6.1866029 3.6328125 8.8105469 C 2.8132742 8.8105469 1.5963848 8.8154069 0.765625 8.8105469 C 0.765625 9.3678778 0.76321575 10.053917 0.76171875 10.248047 C 0.77181805 10.243147 2.8333554 10.248047 2.8808594 10.248047 C 2.1724132 11.569558 1.4161852 12.999842 0.69726562 14.318359 C 1.3799026 14.318359 2.0041361 14.332995 2.5117188 14.328125 C 3.2306382 12.932553 3.8803945 11.6213 4.6367188 10.242188 C 6.0749318 10.247086 7.4024617 10.248047 8.8417969 10.248047 C 9.11747 10.248047 9.5449219 9.9824343 9.5449219 9.5332031 C 9.5449219 9.131476 9.2337585 8.8046875 8.8320312 8.8046875 L 5.4199219 8.8046875 C 6.6475462 6.3154007 8.0000073 3.818383 9.3222656 1.2011719 C 9.4868465 0.87612445 9.3799855 0.4562639 9.0429688 0.27148438 C 8.8853076 0.18451829 8.690046 0.15119188 8.5117188 0.18359375 z M 11.808594 1.28125 C 11.776426 1.2685324 10.207197 1.2945904 10.210938 1.2871094 C 9.2114813 3.169317 7.8967742 5.3229811 8.9433594 7.3222656 C 9.7756153 8.911968 10.888653 10.15199 11.046875 11.369141 C 11.174051 12.341665 10.686679 13.046985 10.253906 13.869141 C 10.119623 14.125364 10.037024 14.530633 10.396484 14.816406 C 10.893219 15.20953 11.371627 14.757366 11.427734 14.703125 C 12.111493 13.868251 12.559838 12.66706 12.570312 11.580078 C 12.590883 9.3380367 10.509559 7.8159225 10.152344 5.9628906 C 9.9256706 4.7909994 10.708146 3.1425109 11.808594 1.28125 z "
     id="path5043" /></svg>