<?xml version="1.0" encoding="UTF-8" standalone="no"?>
<!-- Generado por Andres Lacquaniti  -->

<svg
   xmlns:dc="http://purl.org/dc/elements/1.1/"
   xmlns:cc="http://creativecommons.org/ns#"
   xmlns:rdf="http://www.w3.org/1999/02/22-rdf-syntax-ns#"
   xmlns:svg="http://www.w3.org/2000/svg"
   xmlns="http://www.w3.org/2000/svg"
   xmlns:sodipodi="http://sodipodi.sourceforge.net/DTD/sodipodi-0.dtd"
   xmlns:inkscape="http://www.inkscape.org/namespaces/inkscape"
   version="1.1"
   id="Layer_1"
   x="0px"
   y="0px"
   width="15px"
   height="15px"
   viewBox="0 0 15 15"
   style="enable-background:new 0 0 15 15;"
   xml:space="preserve"
   sodipodi:docname="im.svg"
   inkscape:version="0.92.0 r15299"><metadata
     id="metadata9"><rdf:RDF><cc:Work
         rdf:about=""><dc:format>image/svg+xml</dc:format><dc:type
           rdf:resource="http://purl.org/dc/dcmitype/StillImage" /><dc:title></dc:title></cc:Work></rdf:RDF></metadata><defs
     id="defs7" /><sodipodi:namedview
     pagecolor="#ffffff"
     bordercolor="#666666"
     borderopacity="1"
     objecttolerance="10"
     gridtolerance="10"
     guidetolerance="10"
     inkscape:pageopacity="0"
     inkscape:pageshadow="2"
     inkscape:window-width="1169"
     inkscape:window-height="725"
     id="namedview5"
     showgrid="false"
     inkscape:zoom="15.733333"
     inkscape:cx="20.470281"
     inkscape:cy="7.4249715"
     inkscape:window-x="663"
     inkscape:window-y="83"
     inkscape:window-maximized="0"
     inkscape:current-layer="Layer_1" /><g
     style="clip-rule:evenodd;fill-rule:evenodd"
     transform="matrix(0.03011585,0,0,-0.03011585,-14.323265,-6.8330439)"
     id="g5219" /><path
     style="clip-rule:evenodd;fill:#000000;fill-rule:evenodd;stroke-width:0.07322078"
     d="M 9.0039062 -0.16015625 L 9.5078125 0.4453125 L 8.5488281 0.24414062 L 8.953125 0.79882812 L 9.40625 1.3535156 L 9.8613281 1.8574219 L 10.449219 2.8359375 L 10.128906 3.1113281 L 9.8769531 3.6152344 L 9.5742188 3.8164062 L 9.4726562 4.2207031 L 9.5546875 4.6992188 L 7.6347656 6.6601562 C 7.2289811 6.9833821 6.7641971 7.272061 6.40625 7.6503906 C 6.1672406 7.9029539 6.045333 8.2762115 5.8320312 8.5605469 L 5.5957031 8.9160156 L 5.4960938 9.1542969 L 5.2792969 9.6289062 L 4.0351562 10.753906 L 3.59375 10.496094 L 3.1621094 9.3730469 L 2.6992188 9.0332031 L 2.2890625 9.2832031 C 2.380276 9.1150684 2.6140184 9.1253294 2.7636719 8.9941406 C 2.6723348 9.0714654 2.0280856 8.3555857 1.9023438 8.3496094 C 1.8783517 8.3482394 1.8544805 8.3529151 1.8320312 8.3613281 C 1.6787538 8.4190641 1.5628435 8.6746686 1.484375 8.7871094 C 1.439364 8.8515654 1.2155356 9.0846989 1.2226562 9.1621094 C 1.2227442 9.1622558 1.2636719 9.609375 1.2636719 9.609375 L 0.78320312 9.828125 C 0.62349175 10.06865 0.37613924 10.333528 0.26953125 10.595703 C 0.13395565 10.92951 0.70349785 11.201754 0.93164062 11.353516 C 1.0667015 11.443336 1.2032874 11.532796 1.3378906 11.623047 C 1.5001185 11.732085 1.5782833 11.73179 1.7773438 11.738281 C 1.7706153 11.732963 1.7427946 11.682123 1.7304688 11.666016 L 1.8320312 11.785156 L 2.1230469 11.804688 L 2.1503906 12.044922 L 2.0703125 12.183594 L 1.9121094 12.5 L 2.0703125 12.916016 L 2.2890625 12.994141 L 2.3945312 12.986328 C 2.3925015 12.986475 2.2455592 13.348599 2.2285156 13.386719 C 2.1961446 13.459039 2.1734255 13.474184 2.1796875 13.554688 C 2.1903545 13.691864 2.2780629 13.909869 2.4609375 13.759766 C 2.56989 13.670256 2.5059909 13.584371 2.5292969 13.496094 L 2.7148438 13.25 L 2.7246094 13.171875 L 2.8046875 13.351562 L 2.9824219 13.490234 L 3.21875 13.529297 L 3.3984375 13.410156 L 3.4570312 13.271484 L 3.4765625 13.033203 L 3.4375 12.916016 L 3.5371094 12.796875 L 3.5097656 12.365234 L 3.6230469 12.449219 L 3.7324219 12.628906 L 3.7167969 12.623047 L 4.2753906 13.875 L 4.7792969 14.179688 L 5.6972656 14.847656 L 6.1210938 14.078125 L 6.3007812 13.828125 L 6.2675781 13.410156 L 6.671875 13.240234 L 7.2636719 12.306641 L 7.3574219 12.326172 L 5.9316406 11.310547 L 5.0839844 11.21875 L 4.6640625 11.015625 L 5.4296875 10.25 C 5.5589149 10.120686 5.7383637 9.989424 5.8417969 9.8378906 C 5.9368228 9.698512 5.9858156 9.5508548 6.078125 9.4042969 C 6.153191 9.2850495 6.2093474 9.154195 6.3046875 9.0527344 C 6.524251 8.8191008 6.6234658 8.5010893 6.8164062 8.2460938 C 7.0260754 7.9691073 7.2831355 7.7801397 7.5351562 7.5605469 C 7.7134269 7.4052105 7.8919562 7.2510399 8.0703125 7.0957031 L 9.515625 5.7089844 L 9.7929688 5.4121094 L 9.8261719 5.6328125 L 9.421875 6.6914062 L 9.3222656 7.6503906 L 9.3730469 8.5585938 L 9.421875 9.1132812 L 9.6738281 9.6171875 L 9.8261719 9.8183594 L 9.9765625 10.072266 L 9.9960938 10.101562 L 9.8925781 10.183594 L 8.6894531 10.214844 L 8.2617188 10.490234 C 8.2572313 10.468195 8.2589119 10.445028 8.25 10.423828 C 8.292437 10.529749 7.4012409 10.879994 7.3535156 10.990234 C 7.3442756 11.011194 7.3393867 11.033881 7.3398438 11.056641 C 7.3430137 11.211663 7.547283 11.396345 7.6269531 11.501953 C 7.6727361 11.562553 7.8172265 11.835358 7.8925781 11.853516 C 7.8926513 11.853516 8.328125 11.958984 8.328125 11.958984 L 8.3730469 12.455078 C 8.5463985 12.673727 8.712357 12.980247 8.9238281 13.158203 C 9.1931781 13.384802 9.6419938 12.962206 9.8613281 12.806641 C 9.9910988 12.714561 10.119858 12.620778 10.25 12.529297 C 10.40691 12.418972 10.43331 12.347486 10.505859 12.171875 L 10.519531 12.166016 L 10.783203 11.583984 L 10.833984 11.736328 L 10.884766 12.089844 L 11.390625 12.189453 L 11.994141 12.138672 L 12.248047 11.9375 L 12.853516 11.837891 L 12.953125 11.484375 L 12.802734 11.080078 L 12.5 11.130859 L 12.197266 10.828125 L 11.847656 10.755859 L 12.011719 10.722656 L 12.013672 10.720703 L 13.355469 10.621094 L 13.810547 10.267578 L 14.748047 9.6582031 L 14.164062 9.0371094 L 13.988281 8.7988281 L 13.582031 8.6972656 L 13.558594 8.28125 L 12.873047 7.4550781 L 12.595703 7.84375 L 12.873047 7.40625 L 11.439453 8.3574219 L 10.986328 9.2636719 L 10.580078 9.6210938 L 10.517578 9.5214844 L 10.179688 9.1132812 L 10.078125 8.4570312 L 9.9277344 7.7011719 L 10.078125 6.9941406 L 10.279297 6.2382812 L 10.533203 5.734375 L 10.683594 5.53125 L 10.986328 5.1777344 L 11.339844 4.7753906 L 11.591797 4.3203125 C 11.591797 4.3203125 11.591266 3.8678905 11.792969 3.96875 C 11.99466 4.0696094 11.642578 3.4140625 11.642578 3.4140625 L 11.238281 2.8085938 L 11.21875 2.8085938 L 10.919922 2.1601562 L 10.466797 1.3027344 L 10.0625 0.74804688 L 9.5585938 0.19335938 L 9.0039062 -0.16015625 z M 2.2792969 9.3144531 L 2.2714844 9.5078125 L 2.265625 9.53125 C 2.2563247 9.4940013 2.2426077 9.458359 2.2441406 9.4179688 C 2.2459154 9.3710533 2.2663489 9.3471399 2.2792969 9.3144531 z M 12.316406 10.318359 L 12.34375 10.320312 L 12.150391 10.539062 L 12.316406 10.318359 z M 12.560547 10.335938 L 12.738281 10.349609 L 12.697266 10.367188 L 12.560547 10.335938 z M 2.7363281 11.847656 L 2.8164062 11.853516 L 2.8183594 11.855469 L 2.7832031 11.886719 L 2.7363281 11.847656 z M 4.2714844 12.828125 L 4.3808594 13.242188 L 4.3066406 13.166016 L 4.2714844 12.828125 z "
     id="path4501" /></svg>