<?xml version="1.0" encoding="UTF-8" standalone="no"?>
<!-- Generado por Andres Lacquaniti  -->

<svg
   xmlns:dc="http://purl.org/dc/elements/1.1/"
   xmlns:cc="http://creativecommons.org/ns#"
   xmlns:rdf="http://www.w3.org/1999/02/22-rdf-syntax-ns#"
   xmlns:svg="http://www.w3.org/2000/svg"
   xmlns="http://www.w3.org/2000/svg"
   xmlns:sodipodi="http://sodipodi.sourceforge.net/DTD/sodipodi-0.dtd"
   xmlns:inkscape="http://www.inkscape.org/namespaces/inkscape"
   version="1.1"
   id="Layer_1"
   x="0px"
   y="0px"
   width="15px"
   height="15px"
   viewBox="0 0 15 15"
   style="enable-background:new 0 0 15 15;"
   xml:space="preserve"
   sodipodi:docname="ltv-bagheera.svg"
   inkscape:version="0.92.0 r15299"><metadata
     id="metadata9"><rdf:RDF><cc:Work
         rdf:about=""><dc:format>image/svg+xml</dc:format><dc:type
           rdf:resource="http://purl.org/dc/dcmitype/StillImage" /><dc:title></dc:title></cc:Work></rdf:RDF></metadata><defs
     id="defs7" /><sodipodi:namedview
     pagecolor="#ffffff"
     bordercolor="#666666"
     borderopacity="1"
     objecttolerance="10"
     gridtolerance="10"
     guidetolerance="10"
     inkscape:pageopacity="0"
     inkscape:pageshadow="2"
     inkscape:window-width="1920"
     inkscape:window-height="996"
     id="namedview5"
     showgrid="false"
     inkscape:zoom="11.125147"
     inkscape:cx="1.1173405"
     inkscape:cy="-6.1256134"
     inkscape:window-x="-8"
     inkscape:window-y="-8"
     inkscape:window-maximized="1"
     inkscape:current-layer="Layer_1" /><path
     inkscape:connector-curvature="0"
     style="fill:#000000;stroke-width:0.0885495"
     d="M 8.6881946,12.556689 C 8.6374495,12.49553 8.5692193,12.339081 8.5365625,12.209009 8.5039169,12.078923 8.3985666,11.901328 8.3024373,11.814336 8.2063079,11.727346 8.0455968,11.465405 7.9452997,11.232248 7.8450026,10.999091 7.7212577,10.808332 7.6703124,10.808332 c -0.050946,0 -0.3120366,0.123816 -0.5802003,0.275164 -0.4264659,0.24069 -0.5519704,0.270514 -1.0014712,0.237998 -0.2826502,-0.02045 -0.5435755,-0.06684 -0.5798218,-0.103095 -0.1242293,-0.124218 0.1942417,-0.542478 0.420669,-0.552502 0.1194,-0.0053 0.3001,-0.01524 0.4015658,-0.02214 0.1014663,-0.0069 0.3405262,-0.147416 0.5312383,-0.312272 L 7.2090399,10.031754 6.8106263,9.5939653 C 6.4489195,9.1965079 6.3660844,9.1503913 5.9112114,9.093283 5.6356454,9.0586892 5.227208,8.9377546 5.0035793,8.8245293 L 4.5969601,8.6186813 v 0.3810341 c 0,0.3178456 -0.059246,0.4495013 -0.3571853,0.7937461 C 3.8647618,10.226752 3.5441891,10.8006 3.3607969,11.366891 3.3007375,11.552338 3.1458698,11.865673 3.0166467,12.063173 2.7843397,12.418234 2.776713,12.421764 2.3389477,12.376427 1.5475635,12.294484 1.2971573,12.088771 1.4629216,11.656791 1.5018355,11.555383 1.6366675,11.51673 1.9513841,11.51673 c 0.4102088,0 0.4430899,-0.01759 0.5835413,-0.312132 0.134371,-0.281776 0.1384798,-0.438887 0.042207,-1.6160285 C 2.5184772,8.8714248 2.4707784,8.1201828 2.4711328,7.91914 2.4711328,7.7181091 2.4120058,7.4105709 2.338946,7.2357271 2.264234,7.0569281 2.2061217,6.6493402 2.2061217,6.3041865 c 0,-0.4809183 -0.044946,-0.692788 -0.2078079,-0.9795111 L 1.790494,4.9588126 1.6901145,5.2492196 c -0.093202,0.2696273 -0.097121,0.257136 -0.054783,-0.1744664 0.025077,-0.2556955 0.023708,-0.4648847 -0.00309,-0.4648847 -0.026741,0 -0.1275821,0.129495 -0.2240895,0.2877859 -0.1021396,0.1675122 -0.1755997,0.2280088 -0.1757999,0.1447604 0,-0.078655 0.079364,-0.2443375 0.1767679,-0.3681647 C 1.7531891,4.2368509 1.580423,4.2237691 1.1434728,4.6541455 0.68089029,5.1097621 0.52127654,5.1215447 0.94423634,4.6688462 L 1.1877473,4.4082154 0.88917043,4.4647105 C 0.63871704,4.5121005 0.60728787,4.501077 0.69423171,4.3963271 0.76509461,4.3109415 0.76850697,4.2532781 0.70497664,4.2140568 0.51511459,4.0967111 0.60567142,3.7322649 0.85699858,3.6022978 0.99557251,3.5306318 1.1719159,3.3169204 1.2632164,3.1099626 1.4708712,2.6393042 1.7589049,2.4544719 2.2794225,2.4578484 2.506912,2.4593666 2.7332088,2.4292522 2.7822889,2.3910115 2.9260815,2.2789902 3.6228128,2.0569318 3.6228128,2.1231314 c 0,0.033259 -0.044347,0.1048187 -0.098538,0.1590228 -0.1346782,0.1346664 -0.021155,0.2904069 0.2144549,0.2942089 0.1874298,0.00309 0.186509,0.00743 -0.027369,0.1296953 l -0.2213736,0.1265435 0.2656485,0.00992 0.2656482,0.00992 -0.2838778,0.1039458 c -0.1561421,0.05718 -0.335449,0.1596249 -0.3984725,0.2276785 -0.095055,0.1026233 -0.090108,0.1151614 0.029042,0.073531 0.3512112,-0.1227058 0.9632301,-0.1700268 0.9632301,-0.074488 0,0.05424 -0.1295068,0.1025752 -0.2877859,0.1074279 -0.1582796,0.00486 -0.38741,0.040735 -0.5091595,0.07973 -0.177678,0.056896 -0.1339936,0.072906 0.2213736,0.081076 0.5980393,0.013753 0.8643137,0.1813495 0.2910917,0.1832146 l -0.4173044,0.00142 0.3730295,0.382876 c 0.2724256,0.2796159 0.4924416,0.4127589 0.8157768,0.4936693 0.2435114,0.060946 0.5072119,0.1689882 0.585997,0.2400991 0.078786,0.071124 0.7362711,0.2675968 1.4610665,0.4366198 1.9336381,0.4509179 2.126806,0.5286762 2.7212087,1.0953574 0.6312054,0.6017588 0.8404404,0.9923685 0.9885794,1.8454185 0.126896,0.7307463 0.170994,0.7841237 0.972911,1.1778144 0.414978,0.2037233 0.651783,0.2608434 1.08165,0.2608905 0.491307,5.94e-5 0.584497,-0.029907 0.868576,-0.2793321 0.475828,-0.4177766 0.691511,-0.8974315 0.619503,-1.3776528 -0.07884,-0.525819 -0.300383,-0.7344299 -0.776602,-0.7313126 -0.277822,0.00177 -0.46739,0.071347 -0.72417,0.2656481 -0.392641,0.2970896 -0.512666,0.3205138 -0.670119,0.1308055 -0.289686,-0.3490501 0.751562,-1.0524636 1.544824,-1.0435971 0.395827,0.00447 0.470941,0.039871 0.774807,0.3656384 l 0.336488,0.3607271 v 0.778244 c 0,0.6000114 -0.03765,0.8390714 -0.163286,1.0438804 -0.254821,0.4154387 -0.818338,0.9186474 -1.152076,1.0287914 -0.454861,0.150121 -1.331147,0.04745 -1.92869,-0.225978 L 10.839924,9.6471068 11.119587,9.940017 c 0.228918,0.239757 0.297208,0.408437 0.376336,0.92971 0.19044,1.254511 0.11437,1.544233 -0.399524,1.521446 -0.32786,-0.01454 -0.832026,-0.160938 -0.832026,-0.241613 0,-0.135658 0.283335,-0.455581 0.40349,-0.455581 0.170358,0 0.161113,-0.118893 -0.03987,-0.51269 C 10.41382,10.761655 10.231432,10.60968 9.7120599,10.418118 9.4673445,10.327857 9.215746,10.155504 9.108188,10.004462 9.0067812,9.862051 8.8369309,9.7003478 8.7307305,9.6451399 8.5409868,9.5464839 8.5411758,9.5485853 8.7419461,9.7670785 L 8.9462357,9.9894207 8.7253225,10.155433 c -0.2103348,0.15809 -0.2152697,0.182034 -0.1030364,0.500954 0.1710658,0.486149 0.5000571,0.930785 0.7723409,1.043857 0.289946,0.120404 0.4895844,0.334186 0.5297025,0.567213 0.022765,0.132234 -0.045609,0.201338 -0.2797921,0.28278 -0.408379,0.142021 -0.8412088,0.145008 -0.9560871,0.0066 z"
     id="path8031" /></svg>