<?xml version="1.0" encoding="UTF-8" standalone="no"?>
<!-- Generado por Andres Lacquaniti  -->

<svg
   xmlns:dc="http://purl.org/dc/elements/1.1/"
   xmlns:cc="http://creativecommons.org/ns#"
   xmlns:rdf="http://www.w3.org/1999/02/22-rdf-syntax-ns#"
   xmlns:svg="http://www.w3.org/2000/svg"
   xmlns="http://www.w3.org/2000/svg"
   xmlns:sodipodi="http://sodipodi.sourceforge.net/DTD/sodipodi-0.dtd"
   xmlns:inkscape="http://www.inkscape.org/namespaces/inkscape"
   version="1.1"
   id="Layer_1"
   x="0px"
   y="0px"
   width="15px"
   height="15px"
   viewBox="0 0 15 15"
   style="enable-background:new 0 0 15 15;"
   xml:space="preserve"
   sodipodi:docname="ltv-baloo.svg"
   inkscape:version="0.92.0 r15299"><metadata
     id="metadata9"><rdf:RDF><cc:Work
         rdf:about=""><dc:format>image/svg+xml</dc:format><dc:type
           rdf:resource="http://purl.org/dc/dcmitype/StillImage" /><dc:title></dc:title></cc:Work></rdf:RDF></metadata><defs
     id="defs7" /><sodipodi:namedview
     pagecolor="#ffffff"
     bordercolor="#666666"
     borderopacity="1"
     objecttolerance="10"
     gridtolerance="10"
     guidetolerance="10"
     inkscape:pageopacity="0"
     inkscape:pageshadow="2"
     inkscape:window-width="1920"
     inkscape:window-height="996"
     id="namedview5"
     showgrid="false"
     inkscape:zoom="7.8666669"
     inkscape:cx="7.1043939"
     inkscape:cy="-25.091808"
     inkscape:window-x="-8"
     inkscape:window-y="-8"
     inkscape:window-maximized="1"
     inkscape:current-layer="Layer_1" /><path
     inkscape:connector-curvature="0"
     style="fill:#010101;stroke-width:0.06413353"
     d="M 8.7646191,14.338031 C 7.3476696,14.218631 7.0089852,14.182178 6.9719417,14.145074 6.9501844,14.123273 6.9261577,13.856926 6.9185675,13.553182 6.9061631,13.057301 6.8881623,12.984343 6.7422861,12.838572 6.6529325,12.749284 6.3924157,12.608246 6.1633738,12.525163 5.5186608,12.291316 5.2121453,12.114187 4.8349798,11.757477 4.2194183,11.175298 4.0426236,10.719155 4.0419901,9.7114894 4.0411231,8.5549823 4.5712628,7.4624791 5.4498583,6.8093442 5.7835412,6.5612924 5.8660768,6.4150427 6.0590501,5.7298414 L 6.2180843,5.1651325 5.9684594,4.9843102 C 5.8311704,4.8848656 5.5167021,4.7064636 5.2696429,4.5878792 5.0225838,4.4692916 4.8204349,4.3464042 4.8204261,4.3147884 4.8204173,4.2831825 4.6977514,4.1227724 4.547842,3.9583424 4.3979316,3.7939124 4.1496749,3.4823195 3.9961643,3.2659144 3.6841428,2.8260438 3.5334888,2.7580806 3.0908983,2.8575197 2.9266743,2.8944027 2.7544965,2.8965287 2.665556,2.8626997 2.57433,2.8279987 2.5012979,2.8299257 2.4780215,2.8675497 c -0.020964,0.033908 -0.083746,0.061681 -0.1395033,0.061681 -0.055754,0 -0.1336283,0.044109 -0.1730514,0.098023 C 2.1048879,3.1100915 2.0751328,3.0906256 1.9732393,2.901411 1.6998092,2.3936753 2.1767299,2.0258076 3.1699626,1.9783139 3.7247854,1.9517976 3.7399902,1.9550804 4.1043878,2.1799935 4.3081186,2.3057439 4.6391763,2.4701255 4.8400594,2.5452889 5.2107595,2.6839803 5.3493738,2.7833962 5.4598115,2.98975 5.5254245,3.1123509 5.8953042,3.1937981 6.4558137,3.2090777 6.763031,3.2174477 6.7773544,3.2101777 6.7973722,3.0352938 6.8172347,2.8617059 6.8084877,2.8549165 6.6188931,2.8965605 6.4426966,2.9352609 6.3851472,2.9069159 6.1236532,2.65275 5.9298768,2.4643959 5.8410388,2.3306233 5.866188,2.2650694 5.8873174,2.2100207 6.0622823,2.1191325 6.2549989,2.0631067 6.4477244,2.0070776 6.6330623,1.9265128 6.6668737,1.8840646 6.7006829,1.8416187 6.7095951,1.6770146 6.6866811,1.5182867 6.6492035,1.258703 6.6373168,1.2425828 6.5684019,1.3579537 c -0.076211,0.1275836 -0.07663,0.1275682 -0.078569,-0.00297 -0.00102,-0.072311 0.034129,-0.1700318 0.078216,-0.2171564 0.06569,-0.070218 0.054443,-0.079494 -0.06222,-0.051402 -0.138785,0.033424 -0.139598,0.030438 -0.032069,-0.11752794 0.1089076,-0.14987514 0.2623147,-0.185231 0.6805679,-0.1568529 0.1458046,0.009915 0.1770856,-0.009254 0.1463092,-0.0893976 -0.040606,-0.10582302 0.051501,-0.14413016 0.1118236,-0.046511 0.01886,0.0305153 0.1515177,0.0712097 0.294792,0.0904222 0.1432746,0.0191967 0.3625943,0.1128015 0.4873725,0.2079849 L 8.4215038,1.1475844 8.5474539,1.0123896 C 8.6867089,0.86292537 8.9214377,0.83519172 9.0403923,0.95414656 9.165812,1.0795655 9.1366273,1.6275043 8.9970983,1.7670329 8.9309643,1.8331749 8.8436396,1.8983621 8.8030384,1.9118912 c -0.051042,0.017009 -0.036266,0.1035317 0.047938,0.2805853 0.066964,0.1407889 0.1600684,0.3641442 0.2068948,0.4963337 0.1461301,0.4125248 0.408265,0.6043271 0.9894178,0.7239745 0.282187,0.058089 0.613689,0.1476532 0.736663,0.1990092 0.122983,0.051369 0.522945,0.1217527 0.888814,0.1564189 0.365869,0.034668 0.745754,0.1046773 0.844202,0.1555894 0.379218,0.1961008 0.91015,1.0214235 0.8156,1.267825 -0.04734,0.1233511 -0.432123,0.2242609 -1.168069,0.3063194 -0.723025,0.080628 -1.101755,0.043084 -1.472207,-0.1458998 C 10.446729,5.2267645 10.43374,5.2261983 10.37012,5.338012 c -0.03646,0.064093 -0.124018,0.1760842 -0.194565,0.2488791 l -0.128267,0.1323559 0.172494,0.5130676 c 0.21902,0.6514858 0.37631,1.7894369 0.392266,2.8380466 0.01075,0.7070335 -0.0075,0.8752512 -0.135014,1.2442318 -0.178795,0.517361 -0.452363,0.943362 -0.7931176,1.235032 l -0.2545419,0.217884 0.044757,0.60979 c 0.024626,0.335385 0.026621,0.682108 0.00444,0.770484 -0.047911,0.190887 -0.3707514,0.40516 -0.7196809,0.477658 -0.3318865,0.06895 -0.3220527,0.208793 0.023668,0.336504 0.1509622,0.05576 0.3523242,0.17924 0.4474812,0.274388 0.095148,0.09516 0.1592223,0.167945 0.1423934,0.161754 -0.016837,-0.0062 -0.2903537,-0.03314 -0.6078146,-0.05989 z"
     id="path8119" /></svg>