<?xml version="1.0" encoding="UTF-8" standalone="no"?>
<!-- Generado por Andres Lacquaniti  -->

<svg
   xmlns:dc="http://purl.org/dc/elements/1.1/"
   xmlns:cc="http://creativecommons.org/ns#"
   xmlns:rdf="http://www.w3.org/1999/02/22-rdf-syntax-ns#"
   xmlns:svg="http://www.w3.org/2000/svg"
   xmlns="http://www.w3.org/2000/svg"
   xmlns:sodipodi="http://sodipodi.sourceforge.net/DTD/sodipodi-0.dtd"
   xmlns:inkscape="http://www.inkscape.org/namespaces/inkscape"
   version="1.1"
   id="Layer_1"
   x="0px"
   y="0px"
   width="15px"
   height="15px"
   viewBox="0 0 15 15"
   style="enable-background:new 0 0 15 15;"
   xml:space="preserve"
   sodipodi:docname="banderin-2.svg"
   inkscape:version="0.92.0 r15299"><metadata
     id="metadata9"><rdf:RDF><cc:Work
         rdf:about=""><dc:format>image/svg+xml</dc:format><dc:type
           rdf:resource="http://purl.org/dc/dcmitype/StillImage" /><dc:title></dc:title></cc:Work></rdf:RDF></metadata><defs
     id="defs7" /><sodipodi:namedview
     pagecolor="#ffffff"
     bordercolor="#666666"
     borderopacity="1"
     objecttolerance="10"
     gridtolerance="10"
     guidetolerance="10"
     inkscape:pageopacity="0"
     inkscape:pageshadow="2"
     inkscape:window-width="1920"
     inkscape:window-height="996"
     id="namedview5"
     showgrid="false"
     inkscape:zoom="22.250293"
     inkscape:cx="19.378839"
     inkscape:cy="2.0855828"
     inkscape:window-x="-8"
     inkscape:window-y="-8"
     inkscape:window-maximized="1"
     inkscape:current-layer="Layer_1" /><path
     style="display:inline;fill:#000000;stroke-width:0.08805471"
     d="M 5.0694794,0.48365277 C 4.7010025,0.48286963 4.4642701,0.52658079 4.0912651,0.6418403 3.1924777,0.91983484 2.5715671,1.3044441 2.3636888,1.7119288 2.0862038,2.2559018 2.0883602,2.2663497 2.9812866,4.6576274 3.0716515,4.8997894 3.4322287,5.8903927 3.7823781,6.8590017 4.1324879,7.8275915 4.4571545,8.6696118 4.5038464,8.7301623 4.6336111,8.8981505 4.7409707,8.8691397 5.3921271,8.4885291 6.461765,7.8634825 6.5849432,7.8393723 8.7498972,7.8305322 L 10.68694,7.8226905 11.290757,7.5301517 C 12.781818,6.8075076 14.088462,4.6320861 14.111436,2.834531 14.123196,1.9139854 14.059686,1.8707828 13.337355,2.3063768 12.539929,2.7872903 11.804269,2.9755473 10.93459,2.9210342 10.03941,2.8649728 9.5555956,2.6385902 8.265593,1.6727838 7.0518613,0.76409748 6.5655768,0.55823809 5.4918617,0.49833469 5.3297538,0.48853368 5.1923247,0.48461326 5.0694794,0.48461326 Z M 0.98165513,1.4754708 C 0.89364172,1.4695885 0.81033431,1.5499582 0.68084403,1.6009231 0.4215106,1.7028533 0.34067224,1.783417 0.34067224,1.9397229 c 0,0.1705367 0.75022446,2.3584837 1.26424566,3.6866118 0.1078104,0.2786612 3.1164707,8.4813793 3.2700713,8.9155233 0.042732,0.120748 1.0599544,0.159951 1.1317956,0.04371 C 6.0293247,14.549108 5.3193452,12.53807 4.428869,10.116783 1.6712312,2.618557 1.2960896,1.4966409 0.98165513,1.4755688 Z"
     id="path4015"
     inkscape:connector-curvature="0" /></svg>