<?xml version="1.0" encoding="UTF-8" standalone="no"?>
<!-- Generado por Andres Lacquaniti  -->

<svg
   xmlns:dc="http://purl.org/dc/elements/1.1/"
   xmlns:cc="http://creativecommons.org/ns#"
   xmlns:rdf="http://www.w3.org/1999/02/22-rdf-syntax-ns#"
   xmlns:svg="http://www.w3.org/2000/svg"
   xmlns="http://www.w3.org/2000/svg"
   xmlns:sodipodi="http://sodipodi.sourceforge.net/DTD/sodipodi-0.dtd"
   xmlns:inkscape="http://www.inkscape.org/namespaces/inkscape"
   version="1.1"
   id="Layer_1"
   x="0px"
   y="0px"
   width="15px"
   height="15px"
   viewBox="0 0 15 15"
   style="enable-background:new 0 0 15 15;"
   xml:space="preserve"
   sodipodi:docname="botiquin.svg"
   inkscape:version="0.92.0 r15299"><metadata
     id="metadata9"><rdf:RDF><cc:Work
         rdf:about=""><dc:format>image/svg+xml</dc:format><dc:type
           rdf:resource="http://purl.org/dc/dcmitype/StillImage" /><dc:title></dc:title></cc:Work></rdf:RDF></metadata><defs
     id="defs7" /><sodipodi:namedview
     pagecolor="#ffffff"
     bordercolor="#666666"
     borderopacity="1"
     objecttolerance="10"
     gridtolerance="10"
     guidetolerance="10"
     inkscape:pageopacity="0"
     inkscape:pageshadow="2"
     inkscape:window-width="1920"
     inkscape:window-height="996"
     id="namedview5"
     showgrid="false"
     inkscape:zoom="22.250293"
     inkscape:cx="19.378839"
     inkscape:cy="2.0855828"
     inkscape:window-x="-8"
     inkscape:window-y="-8"
     inkscape:window-maximized="1"
     inkscape:current-layer="Layer_1" /><path
     style="display:inline;fill:#000000;stroke-width:0.08677366"
     d="m 8.4577114,1.4825416 c -0.2440092,0 -0.556303,0.00386 -0.9651808,0.00966 -1.567419,0.02318 -1.7272844,0.039793 -1.9469739,0.2040622 C 5.1230029,2.0121103 4.9619205,2.3078304 4.9230552,2.8394081 l -0.036702,0.50013 -1.2272124,0.00386 C 2.8720026,3.3453281 2.3102907,3.3887921 2.0929773,3.4629688 1.6435345,3.6167301 1.0374329,4.2323356 0.92035403,4.6540782 c -0.05853,0.2114025 -0.091368,1.5775797 -0.091368,3.7183779 0.00154,3.1123149 0.013522,3.4120529 0.1624539,3.7312819 0.20784817,0.447935 0.65848857,0.873001 1.09500857,1.032808 0.4907613,0.179646 10.4975915,0.192975 10.9971995,0.01546 0.499879,-0.178487 0.894192,-0.523813 1.118903,-0.980113 0.204024,-0.414306 0.204217,-0.416566 0.204217,-3.8855064 0,-3.3908043 -0.0039,-3.4789466 -0.187372,-3.8180329 C 13.999783,4.061405 13.659384,3.7273604 13.235401,3.5031702 12.987663,3.3722027 12.68777,3.3370462 11.608389,3.3119344 L 10.285076,3.2812208 V 2.8754725 c 0,-0.5631219 -0.234641,-0.9680397 -0.7006189,-1.2090741 C 9.3086142,1.5236477 9.1898545,1.4838552 8.4577498,1.4830825 Z M 7.0127412,2.5302628 c 0.1947321,-7.717e-4 0.421144,7.718e-4 0.6806448,0.00386 l 1.5069964,0.02376 0.026658,0.368776 0.026658,0.3687954 H 7.6000862 5.946283 v -0.293036 c 0,-0.1611017 0.054086,-0.337792 0.1199567,-0.3925163 0.061814,-0.051383 0.3621505,-0.07746 0.9463661,-0.080551 z M 2.909284,3.9037224 h 0.412007 0.4123546 l -0.023373,4.2952918 -0.02318,4.2953118 H 3.2981306 2.9093423 V 8.1990142 Z m 8.503658,0 h 0.434029 0.433873 V 8.1990142 12.494326 H 11.846971 11.412942 V 8.1990142 Z m -4.491376,2.5098253 0.7055445,0.024919 0.7057179,0.025112 0.024532,0.5640297 c 0.030134,0.6882749 0.1269111,0.7809568 0.8160558,0.7809568 h 0.5041862 v 0.6074154 0.607415 H 9.1945872 c -0.7466692,0 -0.8187405,0.068961 -0.8187405,0.7840284 v 0.604343 H 7.6382564 6.9005107 V 9.9104591 c 0,-0.7452792 -0.1323194,-0.887064 -0.8290942,-0.887064 H 5.5123127 V 8.4159801 7.8085647 h 0.5040319 c 0.7084997,0 0.8229131,-0.1077872 0.8680755,-0.8172339 z"
     id="path4087"
     inkscape:connector-curvature="0" /></svg>