<?xml version="1.0" encoding="UTF-8" standalone="no"?>
<!-- Generado por Andres Lacquaniti  -->

<svg
   xmlns:dc="http://purl.org/dc/elements/1.1/"
   xmlns:cc="http://creativecommons.org/ns#"
   xmlns:rdf="http://www.w3.org/1999/02/22-rdf-syntax-ns#"
   xmlns:svg="http://www.w3.org/2000/svg"
   xmlns="http://www.w3.org/2000/svg"
   xmlns:sodipodi="http://sodipodi.sourceforge.net/DTD/sodipodi-0.dtd"
   xmlns:inkscape="http://www.inkscape.org/namespaces/inkscape"
   version="1.1"
   id="Layer_1"
   x="0px"
   y="0px"
   width="15px"
   height="15px"
   viewBox="0 0 15 15"
   style="enable-background:new 0 0 15 15;"
   xml:space="preserve"
   sodipodi:docname="scout-evento.svg"
   inkscape:version="0.92.0 r15299"><metadata
     id="metadata9"><rdf:RDF><cc:Work
         rdf:about=""><dc:format>image/svg+xml</dc:format><dc:type
           rdf:resource="http://purl.org/dc/dcmitype/StillImage" /><dc:title></dc:title></cc:Work></rdf:RDF></metadata><defs
     id="defs7" /><sodipodi:namedview
     pagecolor="#ffffff"
     bordercolor="#666666"
     borderopacity="1"
     objecttolerance="10"
     gridtolerance="10"
     guidetolerance="10"
     inkscape:pageopacity="0"
     inkscape:pageshadow="2"
     inkscape:window-width="1920"
     inkscape:window-height="996"
     id="namedview5"
     showgrid="false"
     inkscape:zoom="11.125147"
     inkscape:cx="7.6177043"
     inkscape:cy="-17.340761"
     inkscape:window-x="-8"
     inkscape:window-y="-8"
     inkscape:window-maximized="1"
     inkscape:current-layer="Layer_1" /><path
     inkscape:connector-curvature="0"
     id="path4392"
     style="fill:#000000;fill-rule:evenodd;stroke-width:0.10670062"
     d="m 12.066417,8.5140602 c 0.450656,-0.3156501 0.207673,-1.0342807 -0.349709,-1.0342807 -0.544265,0 -0.768313,0.592122 -0.373453,0.986981 0.256819,0.2568199 0.409749,0.2668226 0.723162,0.0473 z M 6.3496647,5.8846053 c -0.1650571,-0.1650575 -0.1650571,-0.6458676 0,-0.8109249 0.070422,-0.070422 0.2528807,-0.1280407 0.4054626,-0.1280407 0.1525819,0 0.3350396,0.057618 0.4054623,0.1280407 0.1650572,0.1650573 0.1650572,0.6458674 0,0.8109249 -0.070423,0.070422 -0.2528804,0.1280407 -0.4054623,0.1280407 -0.1525819,0 -0.33504,-0.057619 -0.4054626,-0.1280407 z M 2.9352449,6.6315097 c -0.1650575,-0.1650573 -0.1650575,-0.6458677 0,-0.8109249 0.070419,-0.070422 0.2528805,-0.1280407 0.4054623,-0.1280407 0.1525818,0 0.33504,0.057618 0.4054622,0.1280407 0.1650576,0.1650572 0.1650576,0.6458676 0,0.8109249 -0.070419,0.070422 -0.2528804,0.1280407 -0.4054622,0.1280407 -0.1525818,0 -0.3350399,-0.057618 -0.4054623,-0.1280407 z M 4.2630684,9.6862675 C 3.9781153,9.5952266 3.7705369,9.4951726 3.8017821,9.4639276 3.8561365,9.4095729 7.4484139,8.5821167 7.6553703,8.576281 7.7103636,8.5747261 7.6157962,8.7191333 7.4452199,8.8971767 6.7036191,9.67124 5.3030655,10.018543 4.2630684,9.6862675 Z m 2.807574,1.2814285 C 8.3885389,10.376259 8.9735914,9.2951401 8.8550583,7.6702701 8.7603622,6.3721518 8.2426465,2.6643003 8.1413237,2.5585387 8.0913196,2.5063452 7.5918252,2.6636433 7.0035319,2.9168451 5.3881624,3.6121007 4.1820431,3.8876415 2.4512239,3.9568292 1.3888411,3.9992975 0.96008213,4.0544251 0.92208654,4.1534401 0.84062232,4.3657388 2.219312,8.7824109 2.6182428,9.5871172 c 0.3800175,0.7665558 1.1094917,1.4083938 1.895481,1.6677668 0.5318903,0.175523 1.8576753,0.02661 2.5569186,-0.287188 z m 3.1998626,0.21058 C 9.8693883,10.760694 9.3385488,10.452792 8.8311345,10.3434 8.5709173,10.287302 8.4579286,10.324962 8.2625839,10.532893 l -0.2437941,0.259508 1.1020556,0.336721 c 0.6061272,0.185198 1.1500676,0.35436 1.2087526,0.375915 0.291769,0.107171 0.276469,0.02257 -0.05909,-0.326761 z M 8.4381034,13.217075 C 7.6781005,13.007885 6.8468073,12.497903 6.4883755,12.020959 l -0.3201016,-0.425945 -0.8002544,0.0013 C 4.0055256,11.598421 2.974623,10.94455 2.3898539,9.7073504 2.0932287,9.0797769 1.2481697,6.5642441 0.80747753,4.9969998 0.48134794,3.8371753 0.5004886,3.8182265 2.0773704,3.7398883 4.1283301,3.6379993 5.4074729,3.3429023 7.0999651,2.5811824 8.2247976,2.0749418 8.4105875,2.1155419 8.5220953,2.8919586 c 0.040013,0.2786022 0.1269624,0.8391419 0.193222,1.2456443 l 0.1204721,0.7390926 0.7469044,0.3061666 c 1.0608452,0.4348565 2.1321242,0.6965989 3.4475622,0.8423305 0.627311,0.069498 1.204052,0.1843202 1.281647,0.2551626 0.11542,0.1053763 -0.03688,0.5730732 -0.837348,2.5714025 -1.136636,2.8375513 -1.315453,3.1768093 -1.985149,3.7662983 -0.799493,0.703742 -1.8918219,0.918194 -3.0513026,0.599049 z" /></svg>