<?xml version="1.0" encoding="UTF-8" standalone="no"?>
<!-- Generado por Andres Lacquaniti  -->

<svg
   xmlns:dc="http://purl.org/dc/elements/1.1/"
   xmlns:cc="http://creativecommons.org/ns#"
   xmlns:rdf="http://www.w3.org/1999/02/22-rdf-syntax-ns#"
   xmlns:svg="http://www.w3.org/2000/svg"
   xmlns="http://www.w3.org/2000/svg"
   xmlns:sodipodi="http://sodipodi.sourceforge.net/DTD/sodipodi-0.dtd"
   xmlns:inkscape="http://www.inkscape.org/namespaces/inkscape"
   version="1.1"
   id="Layer_1"
   x="0px"
   y="0px"
   width="15px"
   height="15px"
   viewBox="0 0 15 15"
   style="enable-background:new 0 0 15 15;"
   xml:space="preserve"
   sodipodi:docname="scout-1.svg"
   inkscape:version="0.92.0 r15299"><metadata
     id="metadata9"><rdf:RDF><cc:Work
         rdf:about=""><dc:format>image/svg+xml</dc:format><dc:type
           rdf:resource="http://purl.org/dc/dcmitype/StillImage" /><dc:title></dc:title></cc:Work></rdf:RDF></metadata><defs
     id="defs7" /><sodipodi:namedview
     pagecolor="#ffffff"
     bordercolor="#666666"
     borderopacity="1"
     objecttolerance="10"
     gridtolerance="10"
     guidetolerance="10"
     inkscape:pageopacity="0"
     inkscape:pageshadow="2"
     inkscape:window-width="1920"
     inkscape:window-height="996"
     id="namedview5"
     showgrid="false"
     inkscape:zoom="22.250293"
     inkscape:cx="19.378839"
     inkscape:cy="2.0855828"
     inkscape:window-x="-8"
     inkscape:window-y="-8"
     inkscape:window-maximized="1"
     inkscape:current-layer="Layer_1" /><path
     style="display:inline;fill:#000000;stroke-width:0.08040246"
     d="m 6.9417029,0.22992985 v 0 c -0.037766,-0.001445 -0.071056,0.001432 -0.097547,0.008954 C 6.6592477,0.28703086 5.6974566,1.398721 5.3512112,1.9644015 5.1659622,2.2670643 4.9125202,2.8947986 4.8205938,3.278613 4.7702992,3.4888122 4.7792484,3.4942355 5.3367671,3.5882918 5.6488625,3.6409138 6.3089572,3.7125075 6.8037957,3.747409 7.2986161,3.782311 7.9386286,3.797882 8.2260777,3.781953 9.7347024,3.698547 10.297555,3.6486095 10.392542,3.5898847 c 0.08591,-0.052979 0.08663,-0.1439035 0.0036,-0.4960734 C 10.271369,2.5636192 10.153991,2.3237263 9.6972942,1.6658867 9.171456,0.90840649 8.6162638,0.29096375 8.4157298,0.24063336 8.3187204,0.21629121 8.1082523,0.25853166 7.9479181,0.33460022 7.6715661,0.46561685 7.6400291,0.46561685 7.3430221,0.33102001 7.2096785,0.27088126 7.0548926,0.23311553 6.9413094,0.22971478 Z M 8.662818,1.496424 c 0.028996,0 0.1619808,0.2442244 0.2955388,0.5427168 C 9.0920584,2.3376332 9.2963155,2.6813549 9.4123333,2.802957 9.6023075,3.0020772 9.6077306,3.0238417 9.4674604,3.0217118 9.2191552,3.0181377 9.0405827,2.8769133 8.8767043,2.5556362 8.720272,2.249 8.5682962,1.496424 8.662818,1.496424 Z M 6.5750173,1.571061 c 0.00895,0 0.016111,0.00895 0.021121,0.025594 C 6.6523388,1.8294597 6.380945,2.6256364 6.1751306,2.8314327 6.0691715,2.9373918 5.9016604,3.0241095 5.8029504,3.0241095 c -0.1786266,0 -0.1786266,-7.151e-4 0.028996,-0.2210996 C 5.9464965,2.6814791 6.157591,2.3286295 6.3011724,2.0190759 6.4375587,1.7250044 6.5326349,1.5703261 6.5752153,1.5710598 Z M 1.8721109,3.7577855 C 1.5557201,3.7563534 1.304748,3.7889288 1.1701517,3.8583748 0.86011494,4.0187448 0.74898341,4.2095065 0.74898341,4.5812214 c 0,0.2250551 0.0519055,0.3183419 0.26020759,0.4674896 0.5683115,0.406957 1.3404864,0.6374174 2.5194929,0.752057 0.5372935,0.052263 0.5737347,0.06873 0.6595399,0.2960045 0.083049,0.2200974 0.070519,0.2574871 -0.1451564,0.4390668 -0.1297639,0.1091808 -0.2773365,0.3371352 -0.3280606,0.5064544 -0.078574,0.2619618 -0.069805,0.3531003 0.058706,0.6119654 0.2096445,0.4221171 0.4941403,0.609299 0.9258866,0.609299 0.348089,0 0.3619962,0.010735 0.5750593,0.417088 0.4439531,0.8479922 1.1540382,1.4828329 1.8663785,1.6689769 0.3344514,0.08734 0.8761654,0.02041 1.2735468,-0.157686 0.4583792,-0.2054202 1.1401131,-0.9223789 1.40297,-1.4753514 0.216965,-0.4564817 0.219381,-0.4583072 0.581968,-0.4623168 0.604252,-0.00716 0.962633,-0.3989026 0.962633,-1.0533949 0,-0.2715013 -0.05047,-0.3839934 -0.27041,-0.6039653 -0.26964,-0.2696223 -0.269998,-0.2708213 -0.129406,-0.5020333 0.124931,-0.2055102 0.199084,-0.2373511 0.652344,-0.2796811 1.347772,-0.1260052 2.498642,-0.5143298 2.824286,-0.9532177 0.136207,-0.1836382 0.144977,-0.2501666 0.06497,-0.49278 -0.171825,-0.520827 -0.313742,-0.5823798 -1.321443,-0.573341 -0.753918,0.00716 -1.067839,0.053516 -1.98134,0.2947695 C 9.4426891,4.5551076 8.2045637,4.6798061 6.6201038,4.5518322 5.5167179,4.4626974 5.1045884,4.3873455 3.7640842,4.0306294 3.1086252,3.8561196 2.399453,3.7600227 1.8721289,3.757696 Z m 3.6860959,2.2208036 v 0 c 0.056559,-7.103e-4 0.1174138,7.103e-4 0.1795037,0.00537 0.4389413,0.028281 0.4467452,0.033111 0.4142592,0.2542474 -0.0494,0.3371354 0.1059592,0.5654836 0.3845839,0.5654836 0.2805047,0 0.4338586,-0.2287958 0.3834744,-0.5720699 L 6.8858415,5.9996745 h 0.6556382 0.6554592 l -0.034006,0.231946 c -0.049757,0.3394083 0.1032742,0.5720699 0.3764221,0.5720699 0.301875,0 0.4342521,-0.1754044 0.3938372,-0.5215072 L 8.9002603,5.9996745 H 9.32644 c 0.2343266,0 0.4531889,-7.104e-4 0.4863545,-0.00147 0.033112,-7.104e-4 0.071237,0.176837 0.084302,0.3943209 0.021121,0.3475342 0.048863,0.4015876 0.2287955,0.4467631 0.112939,0.028282 0.253889,0.010735 0.314243,-0.039557 0.08484,-0.07034 0.155717,-0.044747 0.313903,0.113476 0.260924,0.2595278 0.26053,0.4858893 0,0.7464011 C 10.54919,7.8644586 10.42204,7.8762897 9.9548903,7.7342476 9.8185041,7.6929004 9.7580073,7.7666437 9.5577418,8.2175951 9.2332606,8.9483346 8.8568922,9.4144642 8.3625373,9.6979755 h -0.00142 C 7.6032784,10.132604 6.8898999,9.9775848 6.1910192,9.2267092 5.8387059,8.8481931 5.3304618,7.9513735 5.3303186,7.7078651 c 0,-0.1304799 -0.083228,-0.1236778 -0.27671,0.022552 C 4.9676956,7.7953881 4.7959246,7.8485469 4.6717094,7.8485469 4.1830818,7.8485642 3.9408442,7.2216176 4.3001555,6.886863 4.5037325,6.697211 4.5549937,6.6892996 4.7579083,6.815985 5.0157712,6.9770713 5.167729,6.846056 5.1707718,6.4640481 c 7.15e-4,-0.1893296 0.027743,-0.3812728 0.060318,-0.4266633 0.0247,-0.034366 0.1571483,-0.056559 0.326933,-0.058528 z m 0.8390434,2.0962835 c -0.039557,0.00142 -0.059781,0.024161 -0.074995,0.063898 -0.064435,0.1678871 0.1987266,0.4177139 0.5848141,0.5552811 0.1728993,0.061571 0.4692616,0.1138347 0.6586093,0.1156242 0.5374723,0.00537 1.2234664,-0.3376544 1.2234664,-0.6119837 0,-0.1567905 -0.1496312,-0.1335226 -0.59643,0.093071 C 7.6773294,8.5522423 7.3775661,8.5439734 6.823985,8.2528172 6.5832688,8.126096 6.4633493,8.0718996 6.3973219,8.0749067 Z M 5.0547591,8.7326944 c -0.1125806,0 -0.4699594,0.3694597 -0.5975217,0.617783 -0.049757,0.096652 -0.090388,0.2830457 -0.090388,0.4142596 0,0.351042 1.0106359,1.27215 1.8646426,1.699601 0.486551,0.243526 0.5932438,0.323657 0.431227,0.323657 -0.3282574,0 -1.049207,0.374883 -1.3249145,0.688912 -0.1354913,0.154284 -0.3190756,0.423048 -0.4079773,0.597361 -0.1682454,0.32994 -0.4021781,1.134599 -0.4021781,1.383961 0,0.07912 0.022731,0.143903 0.050116,0.143903 0.027385,0 0.4521327,-0.208051 0.9437852,-0.462316 0.6757736,-0.349521 1.0279615,-0.593656 1.4433129,-1.000326 l 0.5493215,-0.53785 0.4813073,0.476763 c 0.264718,0.262247 0.7233657,0.620234 1.0193166,0.795549 0.6255507,0.370588 1.4275804,0.736556 1.4860364,0.678064 0.06229,-0.0621 -0.168961,-0.977648 -0.351132,-1.390547 C 9.8499326,12.482097 8.9762556,11.799594 8.3869849,11.784434 8.2316265,11.780834 8.2754774,11.743087 8.5788921,11.619947 9.4080912,11.283545 10.65649,10.246778 10.73655,9.8280079 10.787203,9.5631289 10.631307,9.2256357 10.325441,8.9377572 10.107795,8.7329809 10.058736,8.7164961 9.9669344,8.8171212 9.9084067,8.8811981 9.8160506,9.0906456 9.7616751,9.2824273 9.6311952,9.7424355 9.3170601,10.065198 8.3500783,10.732023 L 7.5491946,11.284315 6.7147147,10.715073 C 5.7351149,10.046888 5.5593524,9.8570393 5.3246319,9.2133395 5.2283383,8.9490151 5.1068078,8.7328019 5.0546877,8.7328019 Z m 2.4985876,2.8140836 c 0.3631775,0 0.4809853,0.462979 0.1727204,0.67887 -0.098263,0.06873 -0.2068168,0.12511 -0.2412174,0.12511 -0.1036329,0 -0.384119,-0.313902 -0.384119,-0.429813 0,-0.154464 0.2659175,-0.374221 0.4525806,-0.374221 z"
     id="path4574-9"
     inkscape:connector-curvature="0" /></svg>