<?xml version="1.0" encoding="UTF-8" standalone="no"?>
<!-- Generado por Andres Lacquaniti  -->

<svg
   xmlns:dc="http://purl.org/dc/elements/1.1/"
   xmlns:cc="http://creativecommons.org/ns#"
   xmlns:rdf="http://www.w3.org/1999/02/22-rdf-syntax-ns#"
   xmlns:svg="http://www.w3.org/2000/svg"
   xmlns="http://www.w3.org/2000/svg"
   xmlns:sodipodi="http://sodipodi.sourceforge.net/DTD/sodipodi-0.dtd"
   xmlns:inkscape="http://www.inkscape.org/namespaces/inkscape"
   version="1.1"
   id="Layer_1"
   x="0px"
   y="0px"
   width="15px"
   height="15px"
   viewBox="0 0 15 15"
   style="enable-background:new 0 0 15 15;"
   xml:space="preserve"
   sodipodi:docname="area-ayf.svg"
   inkscape:version="0.92.4 (5da689c313, 2019-01-14)"><metadata
     id="metadata9"><rdf:RDF><cc:Work
         rdf:about=""><dc:format>image/svg+xml</dc:format><dc:type
           rdf:resource="http://purl.org/dc/dcmitype/StillImage" /><dc:title /></cc:Work></rdf:RDF></metadata><defs
     id="defs7" /><sodipodi:namedview
     pagecolor="#ffffff"
     bordercolor="#666666"
     borderopacity="1"
     objecttolerance="10"
     gridtolerance="10"
     guidetolerance="10"
     inkscape:pageopacity="0"
     inkscape:pageshadow="2"
     inkscape:window-width="1920"
     inkscape:window-height="996"
     id="namedview5"
     showgrid="false"
     inkscape:zoom="11.125147"
     inkscape:cx="-11.875633"
     inkscape:cy="4.776083"
     inkscape:window-x="1912"
     inkscape:window-y="-8"
     inkscape:window-maximized="1"
     inkscape:current-layer="Layer_1" /><path
     style="fill:#000000;fill-opacity:1;fill-rule:nonzero;stroke:none;stroke-width:0.44300646"
     d="M 6.1255459,0.23610586 V 0.91891589 C 4.495726,1.0912449 4.300428,2.0072403 4.300428,2.4254387 c 0,0.6569785 0.4925545,1.3533927 1.8251179,1.5057878 v 0.031643 0.814515 H 5.1565151 c -0.3123194,0 -0.5643479,0.2535759 -0.5643479,0.5654521 0,0.3123194 0.2520285,0.565084 0.5643479,0.565084 H 6.1255459 V 6.6367169 H 7.255714 V 5.8766501 C 8.5873921,5.7238118 9.079729,5.0271799 9.079729,4.3697593 9.079729,3.9520042 8.8846486,3.0363768 7.255714,2.8636035 V 2.832331 2.0178148 h 0.8435793 c 0.3123194,0 0.5647159,-0.2532068 0.5647159,-0.565084 0,-0.3118762 -0.2523965,-0.56545215 -0.5647159,-0.56545215 H 7.255714 V 0.23610811 Z m 7.2585331,1.39100394 -3.4239813,2.886491 1.4568563,0.526455 -0.92893,2.5443498 C 8.6623946,7.0567858 6.9844551,7.168668 5.4901945,7.917349 2.4365509,9.4483802 1.3099846,13.086231 1.2634696,13.240397 l -0.195352,0.648228 1.2960878,0.391805 0.1975592,-0.648227 c 0.00976,-0.0319 1.0136875,-3.24302 3.5428118,-4.5055889 1.3206019,-0.6596366 2.8563685,-0.6793719 4.5637146,-0.057395 l 0.636824,0.2314044 1.387325,-3.7996014 1.478931,0.5349168 z M 6.1255459,2.0557054 V 2.7907565 C 5.6546308,2.7145555 5.42986,2.5481524 5.42986,2.4254387 5.42986,2.249565 5.6967158,2.1168412 6.1255459,2.0557054 Z M 7.255714,4.0003896 c 0.4288301,0.061132 0.6945829,0.194378 0.6945829,0.3693652 0,0.1231558 -0.2236667,0.2894142 -0.6945829,0.3660539 z"
     id="path5784"
     inkscape:connector-curvature="0" /></svg>