<?xml version="1.0" encoding="UTF-8" standalone="no"?>
<!-- Generado por Andres Lacquaniti  -->

<svg
   xmlns:dc="http://purl.org/dc/elements/1.1/"
   xmlns:cc="http://creativecommons.org/ns#"
   xmlns:rdf="http://www.w3.org/1999/02/22-rdf-syntax-ns#"
   xmlns:svg="http://www.w3.org/2000/svg"
   xmlns="http://www.w3.org/2000/svg"
   xmlns:sodipodi="http://sodipodi.sourceforge.net/DTD/sodipodi-0.dtd"
   xmlns:inkscape="http://www.inkscape.org/namespaces/inkscape"
   version="1.1"
   id="Layer_1"
   x="0px"
   y="0px"
   width="15px"
   height="15px"
   viewBox="0 0 15 15"
   style="enable-background:new 0 0 15 15;"
   xml:space="preserve"
   sodipodi:docname="area-budista.svg"
   inkscape:version="0.92.0 r15299"><metadata
     id="metadata9"><rdf:RDF><cc:Work
         rdf:about=""><dc:format>image/svg+xml</dc:format><dc:type
           rdf:resource="http://purl.org/dc/dcmitype/StillImage" /><dc:title /></cc:Work></rdf:RDF></metadata><defs
     id="defs7" /><sodipodi:namedview
     pagecolor="#ffffff"
     bordercolor="#666666"
     borderopacity="1"
     objecttolerance="10"
     gridtolerance="10"
     guidetolerance="10"
     inkscape:pageopacity="0"
     inkscape:pageshadow="2"
     inkscape:window-width="1920"
     inkscape:window-height="996"
     id="namedview5"
     showgrid="false"
     inkscape:zoom="22.250293"
     inkscape:cx="7.1485363"
     inkscape:cy="5.4294038"
     inkscape:window-x="-8"
     inkscape:window-y="-8"
     inkscape:window-maximized="1"
     inkscape:current-layer="g3765" /><g
     id="g3493"
     transform="matrix(0.38362121,0,0,-0.38362121,6.6062719,13.530387)"
     style="fill:#000000" /><g
     id="g3499"
     transform="matrix(0.38362121,0,0,-0.38362121,7.0471295,14.317348)"
     style="fill:#000000" /><g
     id="g3503"
     transform="matrix(0.38362121,0,0,-0.38362121,7.9408137,14.307182)"
     style="fill:#000000" /><g
     id="g3507"
     transform="matrix(0.38362121,0,0,-0.38362121,6.6235734,1.7158905)"
     style="fill:#000000" /><g
     id="g3513"
     transform="matrix(0.38362121,0,0,-0.38362121,7.0640851,0.92923682)"
     style="fill:#000000" /><g
     id="g3517"
     transform="matrix(0.38362121,0,0,-0.38362121,7.9577693,0.93890411)"
     style="fill:#000000" /><g
     id="g3521"
     transform="matrix(0.38362121,0,0,-0.38362121,1.6051936,6.7086437)"
     style="fill:#000000" /><g
     id="g3527"
     transform="matrix(0.38362121,0,0,-0.38362121,0.81819401,7.1498841)"
     style="fill:#000000" /><g
     id="g3531"
     transform="matrix(0.38362121,0,0,-0.38362121,0.82836054,8.0435682)"
     style="fill:#000000" /><g
     id="g3535"
     transform="matrix(0.38362121,0,0,-0.38362121,13.419154,6.7262903)"
     style="fill:#000000" /><g
     id="g3541"
     transform="matrix(0.38362121,0,0,-0.38362121,14.206114,7.1674548)"
     style="fill:#000000" /><g
     id="g3545"
     transform="matrix(0.38362121,0,0,-0.38362121,14.196486,8.0609854)"
     style="fill:#000000" /><g
     id="g3549"
     transform="matrix(0.38362121,0,0,-0.38362121,2.7583585,11.146221)"
     style="fill:#000000" /><g
     id="g3553"
     transform="matrix(0.38362121,0,0,-0.38362121,2.6751131,11.853386)"
     style="fill:#000000" /><g
     id="g3557"
     transform="matrix(0.38362121,0,0,-0.38362121,2.5136851,12.014432)"
     style="fill:#000000" /><g
     id="g3561"
     transform="matrix(0.38362121,0,0,-0.38362121,3.1524911,12.639504)"
     style="fill:#000000" /><g
     id="g3565"
     transform="matrix(0.38362121,0,0,-0.38362121,11.124448,2.804416)"
     style="fill:#000000" /><g
     id="g3569"
     transform="matrix(0.38362121,0,0,-0.38362121,11.734558,2.8173813)"
     style="fill:#000000" /><g
     id="g3573"
     transform="matrix(0.38362121,0,0,-0.38362121,11.992542,2.5597029)"
     style="fill:#000000" /><g
     id="g3577"
     transform="matrix(0.38362121,0,0,-0.38362121,12.617578,3.198702)"
     style="fill:#000000" /><g
     id="g3581"
     transform="matrix(0.38362121,0,0,-0.38362121,4.0453692,2.786462)"
     style="fill:#000000" /><g
     id="g3585"
     transform="matrix(0.38362121,0,0,-0.38362121,2.6680926,3.3732877)"
     style="fill:#000000" /><g
     id="g3589"
     transform="matrix(0.38362121,0,0,-0.38362121,3.1771191,2.5420954)"
     style="fill:#000000" /><g
     id="g3593"
     transform="matrix(0.38362121,0,0,-0.38362121,2.5522393,3.1810937)"
     style="fill:#000000" /><g
     id="g3597"
     transform="matrix(0.38362121,0,0,-0.38362121,12.387174,11.152512)"
     style="fill:#000000" /><g
     id="g3601"
     transform="matrix(0.38362121,0,0,-0.38362121,11.703599,12.433039)"
     style="fill:#000000" /><g
     id="g3605"
     transform="matrix(0.38362121,0,0,-0.38362121,12.631888,12.020762)"
     style="fill:#000000" /><g
     id="g3609"
     transform="matrix(0.38362121,0,0,-0.38362121,11.992888,12.645795)"
     style="fill:#000000" /><g
     id="g3613"
     transform="matrix(0.38362121,0,0,-0.38362121,7.5396983,1.6942927)"
     style="fill:#000000" /><g
     id="g3617"
     transform="matrix(0.38362121,0,0,-0.38362121,7.5396983,13.519417)"
     style="fill:#000000" /><g
     id="g3621"
     transform="matrix(0.38362121,0,0,-0.38362121,7.4838051,12.381712)"
     style="fill:#000000" /><g
     id="g3625"
     transform="matrix(0.38362121,0,0,-0.38362121,7.5396983,3.119253)"
     style="fill:#000000" /><g
     id="g3629"
     transform="matrix(0.38362121,0,0,-0.38362121,7.5396983,12.09361)"
     style="fill:#000000" /><g
     id="g3633"
     transform="matrix(0.38362121,0,0,-0.38362121,7.5396983,13.230627)"
     style="fill:#000000" /><g
     id="g3637"
     transform="matrix(0.38362121,0,0,-0.38362121,8.3615691,12.065338)"
     style="fill:#000000" /><g
     id="g3641"
     transform="matrix(0.38362121,0,0,-0.38362121,6.7283022,12.044891)"
     style="fill:#000000" /><g
     id="g3645"
     transform="matrix(0.38362121,0,0,-0.38362121,8.370201,3.1864255)"
     style="fill:#000000" /><g
     id="g3649"
     transform="matrix(0.38362121,0,0,-0.38362121,6.7371251,3.2066812)"
     style="fill:#000000" /><g
     id="g3653"
     transform="matrix(0.38362121,0,0,-0.38362121,3.1046162,8.4523547)"
     style="fill:#000000" /><g
     id="g3657"
     transform="matrix(0.38362121,0,0,-0.38362121,3.1249479,6.8190502)"
     style="fill:#000000" /><g
     id="g3661"
     transform="matrix(0.38362121,0,0,-0.38362121,11.983567,8.4612934)"
     style="fill:#000000" /><g
     id="g3665"
     transform="matrix(0.38362121,0,0,-0.38362121,11.963236,6.8273363)"
     style="fill:#000000" /><g
     id="g3669"
     transform="matrix(0.38362121,0,0,-0.38362121,7.5095843,12.3323)"
     style="fill:#000000" /><g
     id="g3673"
     transform="matrix(0.38362121,0,0,-0.38362121,7.5095843,13.341876)"
     style="fill:#000000" /><g
     id="g3677"
     transform="matrix(0.38362121,0,0,-0.38362121,7.0827287,13.193913)"
     style="fill:#000000" /><g
     id="g3681"
     transform="matrix(0.38362121,0,0,-0.38362121,7.516068,1.9110387)"
     style="fill:#000000" /><g
     id="g3685"
     transform="matrix(0.38362121,0,0,-0.38362121,7.516068,2.9207679)"
     style="fill:#000000" /><g
     id="g3689"
     transform="matrix(0.38362121,0,0,-0.38362121,7.0895192,2.7731502)"
     style="fill:#000000" /><g
     id="g3693"
     transform="matrix(0.38362121,0,0,-0.38362121,1.7739114,7.6136832)"
     style="fill:#000000" /><g
     id="g3697"
     transform="matrix(0.38362121,0,0,-0.38362121,2.2927585,8.1047563)"
     style="fill:#000000" /><g
     id="g3701"
     transform="matrix(0.38362121,0,0,-0.38362121,2.7312364,7.1219191)"
     style="fill:#000000" /><g
     id="g3705"
     transform="matrix(0.38362121,0,0,-0.38362121,12.194674,7.6202812)"
     style="fill:#000000" /><g
     id="g3709"
     transform="matrix(0.38362121,0,0,-0.38362121,12.713329,8.1113934)"
     style="fill:#000000" /><g
     id="g3713"
     transform="matrix(0.38362121,0,0,-0.38362121,13.151848,7.1279035)"
     style="fill:#000000" /><g
     id="g3717"
     transform="matrix(0.38362121,0,0,-0.38362121,3.4414346,11.705732)"
     style="fill:#000000" /><g
     id="g3721"
     transform="matrix(0.38362121,0,0,-0.38362121,3.8083306,11.829795)"
     style="fill:#000000" /><g
     id="g3725"
     transform="matrix(0.38362121,0,0,-0.38362121,3.1530294,11.267866)"
     style="fill:#000000" /><g
     id="g3729"
     transform="matrix(0.38362121,0,0,-0.38362121,10.814557,4.3417784)"
     style="fill:#000000" /><g
     id="g3733"
     transform="matrix(0.38362121,0,0,-0.38362121,11.181301,4.4658013)"
     style="fill:#000000" /><g
     id="g3737"
     transform="matrix(0.38362121,0,0,-0.38362121,10.526305,3.9035661)"
     style="fill:#000000" /><g
     id="g3741"
     transform="matrix(0.38362121,0,0,-0.38362121,3.4557448,3.5800596)"
     style="fill:#000000" /><g
     id="g3745"
     transform="matrix(0.38362121,0,0,-0.38362121,3.8224485,4.4375296)"
     style="fill:#000000" /><g
     id="g3749"
     transform="matrix(0.38362121,0,0,-0.38362121,4.4805883,3.908861)"
     style="fill:#000000" /><g
     id="g3753"
     transform="matrix(0.38362121,0,0,-0.38362121,10.819583,10.953374)"
     style="fill:#000000" /><g
     id="g3757"
     transform="matrix(0.38362121,0,0,-0.38362121,11.186286,11.810806)"
     style="fill:#000000" /><g
     id="g3761"
     transform="matrix(0.38362121,0,0,-0.38362121,11.844581,11.282213)"
     style="fill:#000000" /><g
     id="g3765"
     transform="matrix(0.38362121,0,0,-0.38362121,7.5392005,6.951399)"
     style="fill:#000000"><path
       style="fill:#000000;fill-opacity:1;fill-rule:evenodd;stroke:none;stroke-width:0.38362122"
       d="M 7.5332031 0.35546875 C 7.4683711 0.36083945 7.4116112 0.49128812 7.2773438 0.59179688 C 6.8348163 0.7562727 6.7921497 0.94568241 7.0449219 1.1601562 L 7.0449219 1.1367188 L 8.03125 1.1367188 L 8.03125 1.1503906 C 8.255485 0.97985388 8.1850511 0.79537365 7.7949219 0.58789062 C 7.6280466 0.48009306 7.5857592 0.38577483 7.5332031 0.35546875 z M 8.03125 1.1503906 C 8.0303602 1.1510673 8.030196 1.1516675 8.0292969 1.1523438 C 8.0246934 1.2045162 8.0323308 1.2603275 8.0273438 1.3125 L 8.03125 1.3125 L 8.03125 1.1503906 z M 8.0273438 1.3125 L 7.046875 1.3125 L 7.0507812 1.3085938 L 7.0507812 1.1660156 C 7.0482143 1.1638821 7.0474302 1.1622846 7.0449219 1.1601562 L 7.0449219 1.3125 L 6.625 1.7148438 C 6.9239609 1.6687625 7.2274152 1.6386719 7.5390625 1.6386719 C 7.8422474 1.6386719 8.1384739 1.6672901 8.4296875 1.7109375 L 8.4492188 1.7109375 C 8.3088134 1.5782046 8.1681327 1.4452329 8.0273438 1.3125 z M 8.4296875 1.7109375 L 7.9140625 1.7128906 C 10.745263 1.891104 13.044116 4.0630823 13.419922 6.8378906 L 13.419922 6.7265625 L 13.466797 6.7753906 C 13.310317 5.6931622 12.867939 4.702217 12.212891 3.8867188 L 11.267578 2.9472656 C 10.463468 2.3063352 9.4918549 1.8701363 8.4296875 1.7109375 z M 11.267578 2.9472656 C 11.616448 3.2253386 11.933524 3.5389231 12.212891 3.8867188 L 12.417969 4.0917969 C 12.412234 3.8991023 12.408076 3.7059867 12.402344 3.5136719 L 12.404297 3.515625 L 12.517578 3.4003906 C 12.477682 3.4337657 12.442624 3.4779601 12.402344 3.5117188 L 11.714844 2.8242188 L 11.708984 2.8183594 L 11.125 2.8046875 L 11.267578 2.9472656 z M 11.708984 2.8183594 L 11.714844 2.8183594 C 11.748602 2.7846007 11.781078 2.7505555 11.814453 2.7167969 C 11.814234 2.7144438 11.814653 2.713268 11.814453 2.7109375 L 11.707031 2.8164062 L 11.708984 2.8183594 z M 11.814453 2.7109375 L 11.832031 2.6933594 L 12.521484 3.3847656 L 12.529297 3.390625 L 12.519531 3.4003906 C 12.799205 3.4393172 12.879684 3.257848 12.75 2.8339844 C 12.708953 2.6394884 12.745814 2.5450222 12.730469 2.4863281 C 12.680214 2.444897 12.547351 2.4964408 12.380859 2.4726562 C 11.95077 2.2757065 11.785933 2.3789256 11.814453 2.7109375 z M 13.466797 6.7753906 C 13.507509 7.056959 13.535156 7.3421145 13.535156 7.6347656 C 13.535156 7.9321534 13.50686 8.2218987 13.464844 8.5078125 C 13.584267 8.3814354 13.70312 8.2552833 13.822266 8.1289062 L 13.822266 7.1484375 L 13.466797 6.7753906 z M 13.822266 7.1484375 L 13.826172 7.1523438 L 13.96875 7.1523438 C 13.97018 7.1506228 13.971228 7.1501321 13.972656 7.1484375 L 13.822266 7.1484375 z M 13.972656 7.1484375 L 13.998047 7.1484375 L 13.998047 8.1347656 L 13.984375 8.1347656 C 14.154912 8.3589977 14.33901 8.2866136 14.546875 7.8964844 C 14.654673 7.7296091 14.748607 7.6892749 14.779297 7.6367188 C 14.773926 7.5722704 14.643861 7.5151268 14.542969 7.3808594 C 14.378336 6.9368848 14.188009 6.8928884 13.972656 7.1484375 z M 13.984375 8.1347656 C 13.983698 8.1338759 13.983098 8.1337116 13.982422 8.1328125 C 13.930249 8.1278254 13.874438 8.1338933 13.822266 8.1289062 L 13.822266 8.1347656 L 13.984375 8.1347656 z M 13.464844 8.5078125 C 13.451225 8.5222244 13.437455 8.5363693 13.423828 8.5507812 L 13.423828 8.4082031 C 13.26845 9.5911797 12.765561 10.665965 12.017578 11.525391 L 12.376953 11.162109 C 12.938283 10.3943 13.320488 9.4901251 13.464844 8.5078125 z M 12.376953 11.162109 C 12.018422 11.652523 11.589301 12.085301 11.101562 12.447266 C 11.294255 12.441533 11.48661 12.435422 11.679688 12.429688 L 12.367188 11.742188 L 12.373047 11.736328 L 12.386719 11.152344 L 12.376953 11.162109 z M 12.373047 11.736328 L 12.373047 11.742188 C 12.406806 11.775563 12.440467 11.810375 12.474609 11.84375 C 12.477751 11.843461 12.479321 11.844005 12.482422 11.84375 L 12.373047 11.736328 z M 12.482422 11.84375 L 12.498047 11.859375 L 11.806641 12.550781 L 11.800781 12.558594 L 11.791016 12.548828 C 11.753059 12.826972 11.93551 12.905901 12.357422 12.777344 C 12.552685 12.735529 12.646768 12.773157 12.705078 12.757812 C 12.746893 12.707942 12.694198 12.576264 12.71875 12.410156 C 12.914856 11.980698 12.812574 11.816566 12.482422 11.84375 z M 11.791016 12.548828 C 11.791229 12.547264 11.790788 12.546499 11.791016 12.544922 C 11.757257 12.505025 11.713063 12.469968 11.679688 12.429688 L 11.675781 12.433594 L 11.791016 12.548828 z M 12.017578 11.525391 L 11.478516 12.064453 C 11.668685 11.89514 11.850399 11.717478 12.017578 11.525391 z M 11.478516 12.064453 C 10.586268 12.858846 9.4598456 13.393435 8.2128906 13.535156 L 8.4316406 13.535156 L 8.4042969 13.5625 C 9.4042373 13.417086 10.322549 13.023633 11.099609 12.447266 L 11.478516 12.064453 z M 8.4042969 13.5625 C 8.1212411 13.603663 7.8333533 13.630859 7.5390625 13.630859 C 7.2294517 13.630859 6.9279601 13.600174 6.6308594 13.554688 L 7.0273438 13.933594 L 7.0273438 14.085938 C 7.0298623 14.083801 7.0306255 14.08222 7.0332031 14.080078 L 7.0332031 13.9375 L 7.0292969 13.933594 L 8.0097656 13.933594 L 8.4042969 13.5625 z M 8.0097656 13.933594 C 8.0147527 13.985766 8.0071153 14.041578 8.0117188 14.09375 C 8.0126194 14.094423 8.0127806 14.095029 8.0136719 14.095703 L 8.0136719 13.933594 L 8.0097656 13.933594 z M 8.0136719 14.095703 L 8.0136719 14.109375 L 7.0273438 14.109375 L 7.0273438 14.085938 C 6.7749841 14.300031 6.8168832 14.48983 7.2597656 14.654297 C 7.3936494 14.755189 7.4511766 14.884871 7.515625 14.890625 C 7.5685647 14.860319 7.6108521 14.766768 7.7773438 14.658203 C 8.1678551 14.449956 8.238286 14.265482 8.0136719 14.095703 z M 6.6308594 13.554688 L 6.6054688 13.53125 L 6.8496094 13.53125 C 5.7836825 13.406796 4.8068118 12.995408 3.9882812 12.380859 L 4.0449219 12.439453 C 4.018233 12.438712 3.9915201 12.438242 3.9648438 12.4375 C 4.7335571 13.011304 5.6417676 13.403258 6.6308594 13.554688 z M 3.9648438 12.4375 C 3.5086833 12.097 3.1030596 11.694189 2.7597656 11.240234 L 2.7714844 11.728516 L 3.4628906 12.419922 L 3.4648438 12.423828 C 3.4314687 12.464108 3.3888438 12.498782 3.3554688 12.539062 L 3.46875 12.425781 L 3.4667969 12.423828 C 3.6328003 12.428767 3.7989164 12.432882 3.9648438 12.4375 z M 2.7714844 11.728516 L 2.6660156 11.835938 C 2.6683488 11.836138 2.6695192 11.835718 2.671875 11.835938 L 2.7714844 11.736328 L 2.7714844 11.728516 z M 2.6660156 11.835938 C 2.3336229 11.807412 2.2284506 11.973446 2.4257812 12.404297 C 2.4495658 12.570021 2.3976384 12.702082 2.4394531 12.751953 C 2.4977635 12.767298 2.5945665 12.72967 2.7890625 12.771484 C 3.2125437 12.900403 3.394017 12.820685 3.3554688 12.541016 L 3.3457031 12.550781 L 2.6542969 11.861328 L 2.6484375 11.853516 L 2.6660156 11.835938 z M 2.7597656 11.240234 L 2.7578125 11.146484 L 2.7734375 11.162109 C 2.0492846 10.18706 1.6131008 8.9880562 1.6015625 7.6875 L 1.5996094 8.4140625 C 1.7372218 9.4663574 2.14845 10.431862 2.7597656 11.240234 z M 1.5996094 8.4140625 C 1.5661452 8.1581686 1.5429688 7.8996302 1.5429688 7.6347656 C 1.5429688 7.3583453 1.5690715 7.0888697 1.6054688 6.8222656 L 1.6054688 6.7089844 L 1.2011719 7.1308594 L 1.203125 7.1308594 L 1.203125 8.1132812 C 1.3358579 8.2536866 1.4672601 8.3943673 1.5996094 8.5351562 L 1.5996094 8.4140625 z M 1.203125 8.1132812 C 1.1509525 8.1178847 1.0955249 8.1102473 1.0429688 8.1152344 C 1.0422956 8.1161335 1.0416893 8.1162977 1.0410156 8.1171875 L 1.203125 8.1171875 L 1.203125 8.1132812 z M 1.0410156 8.1171875 L 1.0273438 8.1171875 L 1.0273438 7.1308594 L 1.0507812 7.1308594 C 0.83544675 6.875348 0.64742737 6.9193288 0.48242188 7.3632812 C 0.3815295 7.4979323 0.24989494 7.5546923 0.24414062 7.6191406 C 0.27483032 7.6716967 0.36838132 7.7136005 0.4765625 7.8808594 C 0.68404552 8.2709886 0.87123405 8.3414225 1.0410156 8.1171875 z M 1.0507812 7.1308594 C 1.05222 7.1325666 1.0532464 7.1330317 1.0546875 7.1347656 L 1.1972656 7.1347656 L 1.2011719 7.1308594 L 1.0507812 7.1308594 z M 1.6054688 6.8222656 L 1.6035156 7.5742188 C 1.6177171 6.1818216 2.113473 4.9022861 2.9335938 3.8945312 L 2.7519531 4.0742188 C 2.752321 4.0618343 2.7515882 4.0494879 2.7519531 4.0371094 C 2.1507333 4.8351883 1.7468489 5.7866777 1.6054688 6.8222656 z M 2.7519531 4.0371094 C 3.1117698 3.5594769 3.5415453 3.1389672 4.0253906 2.7871094 L 3.4609375 2.8007812 L 2.7714844 3.4902344 L 2.7675781 3.4941406 C 2.7272979 3.4607656 2.6922404 3.4161875 2.6523438 3.3828125 L 2.765625 3.4980469 L 2.7675781 3.4960938 C 2.7622134 3.6767814 2.7572774 3.8565026 2.7519531 4.0371094 z M 3.4609375 2.8007812 L 3.4628906 2.7988281 L 3.3554688 2.6933594 C 3.3552686 2.6956951 3.355688 2.6968603 3.3554688 2.6992188 C 3.3892274 2.7329774 3.4217031 2.7670226 3.4550781 2.8007812 L 3.4609375 2.8007812 z M 3.3554688 2.6933594 C 3.3839892 2.3606015 3.2191519 2.2581284 2.7890625 2.4550781 C 2.6229545 2.4788626 2.4889403 2.4265517 2.4394531 2.46875 C 2.4241083 2.5270604 2.4617366 2.6219103 2.4199219 2.8164062 C 2.2906205 3.2398876 2.3707169 3.4221195 2.6503906 3.3828125 L 2.640625 3.3730469 L 3.3300781 2.6816406 L 3.3378906 2.6757812 L 3.3554688 2.6933594 z M 4.0253906 2.7871094 L 4.0449219 2.7871094 L 3.8164062 3.015625 C 4.7330036 2.2747321 5.8714049 1.8036278 7.1152344 1.7148438 L 6.6230469 1.7167969 L 6.625 1.7148438 C 5.6641096 1.8629536 4.779599 2.2386405 4.0253906 2.7871094 z M 7.1152344 1.7148438 L 7.9140625 1.7128906 C 7.7897257 1.7050641 7.6653138 1.6933594 7.5390625 1.6933594 C 7.3959234 1.6933594 7.2558907 1.7048038 7.1152344 1.7148438 z M 3.8164062 3.015625 C 3.4926983 3.2772807 3.1963089 3.5717099 2.9335938 3.8945312 L 3.8164062 3.015625 z M 1.6035156 7.5742188 C 1.6033074 7.5946364 1.5996094 7.6143002 1.5996094 7.6347656 C 1.5996094 7.652563 1.6014049 7.6697386 1.6015625 7.6875 L 1.6035156 7.5742188 z M 2.7734375 11.162109 C 3.1172709 11.62507 3.5271778 12.034665 3.9882812 12.380859 L 3.6015625 11.994141 C 3.5708123 11.966336 3.5399223 11.938595 3.5097656 11.910156 C 3.4514035 11.879504 3.3896818 11.852572 3.3417969 11.804688 C 3.2898279 11.752719 3.2581047 11.688986 3.2265625 11.625 C 3.2033941 11.599981 3.1809403 11.574246 3.1582031 11.548828 L 2.7734375 11.162109 z M 3.1582031 11.548828 L 3.2167969 11.607422 C 3.170618 11.505994 3.1445681 11.397291 3.1542969 11.283203 C 2.4224581 10.405078 1.9530314 9.3028474 1.8554688 8.0976562 C 1.7478316 8.0001975 1.6863114 7.8712253 1.6601562 7.7304688 C 1.6838874 9.1964787 2.2466094 10.529748 3.1582031 11.548828 z M 1.6601562 7.7304688 C 1.6596357 7.6983126 1.6542969 7.6670435 1.6542969 7.6347656 C 1.6542969 7.5840617 1.660828 7.5347756 1.6621094 7.484375 C 1.6531939 7.527887 1.6328125 7.5678336 1.6328125 7.6132812 C 1.6328125 7.6544932 1.6527819 7.690783 1.6601562 7.7304688 z M 1.6621094 7.484375 C 1.690104 7.3477474 1.752201 7.2234663 1.8574219 7.1289062 C 1.9634018 5.9311851 2.4391661 4.8380203 3.171875 3.9667969 C 3.1674251 3.814997 3.2167797 3.6724126 3.3085938 3.5527344 C 2.3195287 4.5778311 1.7008662 5.959898 1.6621094 7.484375 z M 3.3085938 3.5527344 C 3.3473128 3.5126048 3.385948 3.4726161 3.4257812 3.4335938 C 3.4032574 3.4509603 3.3758989 3.4600386 3.3554688 3.4804688 C 3.3344989 3.5013819 3.3263249 3.5296221 3.3085938 3.5527344 z M 3.4257812 3.4335938 C 3.5407112 3.3449791 3.6750085 3.2871094 3.8203125 3.2871094 C 3.8300111 3.2871094 3.8400793 3.2886072 3.8496094 3.2890625 C 4.7359284 2.5350715 5.8529163 2.049688 7.0800781 1.9511719 C 7.2008995 1.8423542 7.3514146 1.7714844 7.515625 1.7714844 C 7.6785979 1.7714844 7.8271363 1.8424931 7.9472656 1.9492188 C 9.2199843 2.0397773 10.376089 2.546473 11.283203 3.3378906 C 11.419263 3.3596855 11.549856 3.4108783 11.648438 3.5097656 C 11.745994 3.6073225 11.793515 3.7342282 11.816406 3.8671875 C 12.619406 4.7778702 13.135368 5.9446368 13.226562 7.2285156 C 13.31333 7.3427168 13.373047 7.4758 13.373047 7.6210938 C 13.373047 7.7650942 13.313428 7.8946288 13.228516 8.0078125 C 13.144344 9.2984889 12.631381 10.472231 11.828125 11.388672 C 11.811674 11.536865 11.75933 11.680432 11.652344 11.787109 C 11.544261 11.894891 11.401125 11.945495 11.251953 11.960938 C 10.351143 12.734882 9.2083586 13.229743 7.953125 13.320312 C 7.8316173 13.434523 7.6790113 13.509766 7.5097656 13.509766 C 7.3385638 13.509766 7.1861588 13.433951 7.0644531 13.318359 C 5.849751 13.217553 4.7436514 12.736185 3.8632812 11.992188 C 3.7466011 12.001912 3.6364353 11.97449 3.5332031 11.925781 L 3.6015625 11.994141 C 4.6457993 12.93835 6.0238255 13.519531 7.5390625 13.519531 C 10.770944 13.519531 13.400571 10.900406 13.421875 7.6738281 L 13.421875 7.5917969 C 13.398459 4.3666499 10.76963 1.75 7.5390625 1.75 C 5.9385943 1.75 4.4877628 2.3932319 3.4257812 3.4335938 z M 13.421875 7.5917969 C 13.42198 7.6062571 13.423828 7.6202811 13.423828 7.6347656 C 13.423828 7.6479348 13.421962 7.6606791 13.421875 7.6738281 L 13.423828 8.4082031 C 13.457172 8.1543357 13.480469 7.8974831 13.480469 7.6347656 C 13.480469 7.3638734 13.45533 7.0993305 13.419922 6.8378906 L 13.421875 7.5917969 z M 3.5332031 11.925781 L 3.2167969 11.607422 C 3.2195739 11.613521 3.2235962 11.618983 3.2265625 11.625 C 3.3176312 11.723343 3.412258 11.818205 3.5097656 11.910156 C 3.5180516 11.914508 3.5247517 11.921794 3.5332031 11.925781 z M 3.8632812 11.992188 C 3.868663 11.991739 3.873519 11.994722 3.8789062 11.994141 L 3.8671875 11.884766 C 3.8564905 11.88588 3.8465976 11.880362 3.8359375 11.880859 C 3.8264641 11.881347 3.8181468 11.886719 3.8085938 11.886719 C 3.7806492 11.886719 3.7556382 11.875195 3.7285156 11.871094 C 3.7733346 11.911453 3.8171979 11.953243 3.8632812 11.992188 z M 3.7285156 11.871094 C 3.7275082 11.870187 3.7275693 11.868095 3.7265625 11.867188 C 3.7181996 11.865894 3.7094455 11.866909 3.7011719 11.865234 C 3.7103438 11.86711 3.7192192 11.869688 3.7285156 11.871094 z M 3.7011719 11.865234 C 3.6703895 11.858941 3.6384056 11.857132 3.609375 11.845703 C 3.638766 11.857221 3.6701224 11.858951 3.7011719 11.865234 z M 3.609375 11.845703 C 3.5603237 11.826481 3.5186436 11.79475 3.4765625 11.761719 C 3.518299 11.794445 3.560681 11.826533 3.609375 11.845703 z M 3.4765625 11.761719 C 3.4590907 11.748019 3.4378115 11.740546 3.421875 11.724609 C 3.4222734 11.725009 3.4214752 11.726164 3.421875 11.726562 C 3.4377362 11.742475 3.4591526 11.748053 3.4765625 11.761719 z M 3.7265625 11.867188 C 3.762795 11.872791 3.7986271 11.882602 3.8359375 11.880859 C 3.8555323 11.87985 3.8734193 11.872196 3.8925781 11.869141 C 3.8838608 11.861621 3.875858 11.853275 3.8671875 11.845703 C 3.8070313 11.852638 3.7485964 11.848076 3.6894531 11.833984 C 3.7016659 11.84519 3.7142525 11.856087 3.7265625 11.867188 z M 3.6894531 11.833984 C 3.6765637 11.822158 3.663171 11.810771 3.6503906 11.798828 C 3.5801302 11.774944 3.514777 11.73961 3.4609375 11.685547 C 3.4064142 11.631023 3.3714683 11.565064 3.3476562 11.494141 C 3.3360971 11.481597 3.323948 11.469678 3.3125 11.457031 C 3.3339604 11.547287 3.371 11.634538 3.4414062 11.705078 C 3.5117551 11.775427 3.5992913 11.812502 3.6894531 11.833984 z M 3.3125 11.457031 C 3.2982655 11.397165 3.2934817 11.338197 3.3007812 11.277344 C 3.293556 11.26895 3.2864732 11.26039 3.2792969 11.251953 C 3.2760605 11.271781 3.2686241 11.290261 3.2675781 11.310547 C 3.2656883 11.347826 3.2737854 11.383686 3.2792969 11.419922 C 3.2903437 11.43234 3.301347 11.44471 3.3125 11.457031 z M 3.2792969 11.419922 C 3.2786847 11.419234 3.2779556 11.418657 3.2773438 11.417969 C 3.278616 11.426438 3.2795874 11.434994 3.28125 11.443359 C 3.2797431 11.43569 3.2804748 11.427666 3.2792969 11.419922 z M 3.28125 11.443359 C 3.2873739 11.474528 3.2893567 11.505622 3.3007812 11.535156 C 3.289634 11.50628 3.287328 11.47394 3.28125 11.443359 z M 3.3007812 11.535156 C 3.3233885 11.593718 3.3583754 11.644941 3.4003906 11.693359 C 3.3588373 11.645388 3.3231784 11.593056 3.3007812 11.535156 z M 3.2773438 11.417969 C 3.2733 11.391051 3.2617188 11.365637 3.2617188 11.337891 C 3.2617188 11.328321 3.2670887 11.320039 3.2675781 11.310547 C 3.2681191 11.299874 3.2625071 11.290003 3.2636719 11.279297 L 3.1523438 11.267578 C 3.151756 11.27294 3.1547536 11.277847 3.1542969 11.283203 C 3.1933115 11.330016 3.236879 11.372437 3.2773438 11.417969 z M 3.2792969 11.251953 C 3.2976159 11.139723 3.3399316 11.033115 3.421875 10.951172 C 3.5217277 10.85169 3.6540738 10.798469 3.7949219 10.794922 C 3.7889168 10.795066 3.7833602 10.792629 3.7773438 10.792969 L 3.7734375 10.732422 C 3.1462671 9.982384 2.7267585 9.0544439 2.6445312 8.0234375 C 2.5489154 8.1053916 2.4285391 8.1601562 2.2929688 8.1601562 C 2.1675269 8.1601562 2.0571754 8.1103256 1.9648438 8.0390625 C 2.0526567 9.2604351 2.5305999 10.371745 3.2792969 11.251953 z M 1.9648438 8.0390625 C 1.9640532 8.0280673 1.9636172 8.0168719 1.9628906 8.0058594 C 1.9138556 7.9646137 1.8748053 7.9159566 1.84375 7.859375 C 1.8444169 7.876366 1.8448873 7.8932033 1.8457031 7.9101562 C 1.8704549 7.9474851 1.8959089 7.9848249 1.9296875 8.015625 C 1.940161 8.0250778 1.9536611 8.0304315 1.9648438 8.0390625 z M 1.9296875 8.015625 C 1.8958494 7.9850845 1.8710725 7.9482091 1.8457031 7.9101562 C 1.8487174 7.9727947 1.8504417 8.0355575 1.8554688 8.0976562 C 1.864945 8.1062364 1.8688727 8.1188671 1.8789062 8.1269531 L 1.9492188 8.0410156 C 1.9407127 8.034125 1.937713 8.0229428 1.9296875 8.015625 z M 1.84375 7.859375 C 1.8430562 7.8416989 1.8403756 7.8243571 1.8398438 7.8066406 C 1.8671037 7.8704942 1.9108038 7.9241189 1.9609375 7.9707031 C 1.9542747 7.8591366 1.9433594 7.7479761 1.9433594 7.6347656 C 1.9433594 7.5070639 1.9544306 7.381453 1.9628906 7.2558594 C 1.9127816 7.3018595 1.8713476 7.3547711 1.84375 7.4179688 C 1.8409987 7.4905896 1.8320312 7.5614838 1.8320312 7.6347656 C 1.8320312 7.6921794 1.8381516 7.7476766 1.8398438 7.8046875 C 1.8150043 7.7459575 1.8027344 7.6809904 1.8027344 7.6132812 C 1.8027344 7.5436052 1.8175276 7.4780172 1.84375 7.4179688 C 1.8444187 7.4003193 1.8448738 7.3828429 1.8457031 7.3652344 C 1.8038794 7.4400869 1.7734375 7.5214486 1.7734375 7.6132812 C 1.7734375 7.703714 1.8031053 7.7853219 1.84375 7.859375 z M 1.8457031 7.3652344 C 1.8768005 7.3095789 1.9162586 7.2613126 1.9648438 7.2207031 C 1.9657004 7.2090672 1.9658688 7.1971632 1.9667969 7.1855469 C 1.9555704 7.1941328 1.9421611 7.1995732 1.9316406 7.2089844 C 1.8972776 7.2396709 1.8728885 7.2770125 1.8476562 7.3144531 C 1.8467092 7.3313722 1.8465018 7.3482768 1.8457031 7.3652344 z M 1.9316406 7.2089844 C 1.938715 7.2026669 1.9417794 7.1934867 1.9492188 7.1875 L 1.8808594 7.0996094 C 1.8708184 7.1076372 1.866907 7.1203821 1.8574219 7.1289062 C 1.8520522 7.1895907 1.8511033 7.2512912 1.8476562 7.3125 C 1.8730148 7.2750804 1.898054 7.2390295 1.9316406 7.2089844 z M 1.9667969 7.1855469 C 2.0587702 7.1152063 2.1685018 7.0664062 2.2929688 7.0664062 C 2.429514 7.0664063 2.5505955 7.1219802 2.6464844 7.2050781 C 2.7359243 6.1908163 3.1535659 5.2789273 3.7714844 4.5390625 L 3.7753906 4.4921875 C 3.7835011 4.4928425 3.7907402 4.4879787 3.7988281 4.4882812 C 3.6620303 4.4822152 3.5332656 4.4309793 3.4355469 4.3339844 C 3.3441354 4.2424085 3.3001682 4.125368 3.2871094 4.0058594 C 2.5428291 4.8769302 2.0633471 5.97702 1.9667969 7.1855469 z M 3.2871094 4.0058594 C 3.2949221 3.9967158 3.3026765 3.9876083 3.3105469 3.9785156 C 3.3065759 3.9135014 3.3155576 3.8496051 3.3359375 3.7871094 C 3.3238265 3.8003338 3.310816 3.8128337 3.2988281 3.8261719 C 3.2972163 3.8332647 3.2962484 3.8405149 3.2949219 3.8476562 C 3.2871433 3.8893176 3.2791439 3.9314367 3.28125 3.9746094 C 3.2817919 3.9852458 3.2859514 3.9952619 3.2871094 4.0058594 z M 3.28125 3.9746094 C 3.279059 3.9316029 3.2870404 3.8900859 3.2949219 3.8476562 C 3.2959993 3.8418856 3.2956135 3.8358031 3.296875 3.8300781 C 3.2556814 3.8759789 3.2115877 3.9195767 3.171875 3.9667969 C 3.1723826 3.9841122 3.164141 4.000171 3.1660156 4.0175781 L 3.2773438 4.0058594 C 3.2762037 3.9951778 3.2817694 3.985257 3.28125 3.9746094 z M 3.296875 3.8300781 C 3.29781 3.8290363 3.2978924 3.827213 3.2988281 3.8261719 C 3.3047099 3.8002902 3.3047721 3.7729951 3.3144531 3.7480469 C 3.304154 3.774362 3.3029698 3.8024191 3.296875 3.8300781 z M 3.3144531 3.7480469 C 3.3415898 3.6787102 3.381151 3.6147655 3.4355469 3.5605469 C 3.3801914 3.6157032 3.3410761 3.6794392 3.3144531 3.7480469 z M 3.4355469 3.5605469 C 3.49055 3.5055438 3.5568042 3.4664994 3.6269531 3.4394531 C 3.55664 3.4665733 3.4906896 3.5058126 3.4355469 3.5605469 z M 3.6269531 3.4394531 C 3.6498743 3.4306123 3.675183 3.4294898 3.6992188 3.4238281 C 3.6745905 3.4295527 3.6504981 3.4303752 3.6269531 3.4394531 z M 3.6992188 3.4238281 C 3.6859457 3.4359482 3.6733143 3.4486945 3.6601562 3.4609375 C 3.7238088 3.4398634 3.7892149 3.4293009 3.8554688 3.4335938 C 3.8634278 3.4266048 3.8709074 3.4190539 3.8789062 3.4121094 C 3.868855 3.4110354 3.8597725 3.4067729 3.8496094 3.40625 C 3.8038461 3.4039425 3.7607551 3.4131585 3.7167969 3.421875 C 3.7110113 3.4230399 3.7049496 3.4224782 3.6992188 3.4238281 z M 3.7167969 3.421875 C 3.7521278 3.4147611 3.7853323 3.4003906 3.8222656 3.4003906 C 3.83186 3.4003906 3.8400982 3.4057606 3.8496094 3.40625 C 3.8603861 3.4067934 3.870042 3.4011696 3.8808594 3.4023438 L 3.8945312 3.2910156 C 3.8799102 3.2893911 3.8642044 3.2897597 3.8496094 3.2890625 C 3.7989638 3.3321467 3.7502756 3.3770797 3.7011719 3.421875 C 3.7062377 3.4207188 3.7116937 3.4228869 3.7167969 3.421875 z M 3.8789062 3.4121094 C 4.0027452 3.4253412 4.1198026 3.4716967 4.2089844 3.5605469 C 4.3088666 3.6604291 4.3636474 3.7927214 4.3671875 3.9335938 C 4.3670324 3.9276149 4.3694954 3.9220025 4.3691406 3.9160156 L 4.3984375 3.9140625 C 5.1375932 3.2998712 6.0473479 2.8852499 7.0585938 2.796875 L 7.0898438 2.7734375 C 7.0958524 2.7808988 7.1049935 2.7839217 7.1113281 2.7910156 C 7.0249045 2.6943063 6.96875 2.5693472 6.96875 2.4296875 C 6.96875 2.2865208 7.0268639 2.1580841 7.1171875 2.0605469 C 7.1301509 2.059571 7.1432623 2.0594808 7.15625 2.0585938 C 7.2206627 1.9958971 7.3029005 1.9582175 7.3925781 1.9355469 C 7.3551763 1.9365043 7.3184718 1.939729 7.28125 1.9414062 C 7.2880006 1.9381443 7.2919272 1.9307233 7.2988281 1.9277344 C 7.2909905 1.931144 7.2850175 1.9376331 7.2773438 1.9414062 C 7.211411 1.9444222 7.1454156 1.9459266 7.0800781 1.9511719 C 7.0625933 1.9669196 7.0392963 1.9744858 7.0234375 1.9921875 L 7.1015625 2.0605469 C 7.1060847 2.0601938 7.1107092 2.0608891 7.1152344 2.0605469 C 7.1129839 2.0629803 7.1096324 2.0639275 7.1074219 2.0664062 L 7.1015625 2.0605469 C 5.8735677 2.1564144 4.7574892 2.6493328 3.8789062 3.4121094 z M 7.2988281 1.9277344 C 7.3670982 1.8980347 7.43985 1.8828125 7.515625 1.8828125 C 7.4386862 1.8828125 7.365288 1.8989492 7.2988281 1.9277344 z M 7.515625 1.8828125 C 7.5923497 1.8828125 7.6677314 1.9015315 7.7363281 1.9316406 C 7.6685399 1.9014616 7.5945136 1.8828125 7.515625 1.8828125 z M 7.7363281 1.9316406 C 7.7398421 1.933205 7.7426192 1.9358641 7.7460938 1.9375 C 7.7487285 1.937595 7.7512724 1.9393545 7.7539062 1.9394531 C 7.7478908 1.9365467 7.7424456 1.9343258 7.7363281 1.9316406 z M 7.7539062 1.9394531 C 7.7749772 1.9496339 7.7908973 1.967655 7.8105469 1.9804688 C 7.8467626 2.0043542 7.8825841 2.0270238 7.9121094 2.0585938 C 7.9127552 2.0586366 7.9134167 2.0585507 7.9140625 2.0585938 C 7.9276573 2.0595002 7.9415098 2.059543 7.9550781 2.0605469 L 8.0214844 2.0039062 C 8.0010908 1.9798443 7.9705016 1.9698622 7.9472656 1.9492188 C 7.8832818 1.9446661 7.8184485 1.9418689 7.7539062 1.9394531 z M 7.9550781 2.0605469 L 7.9355469 2.0761719 C 7.9294024 2.0689205 7.9205366 2.065482 7.9140625 2.0585938 C 8.0050396 2.1562586 8.0625 2.2859384 8.0625 2.4296875 C 8.0625 2.5703221 8.0054704 2.696019 7.9179688 2.7929688 C 7.9252646 2.7849401 7.936494 2.7819436 7.9433594 2.7734375 L 7.9765625 2.8007812 C 8.9588044 2.9000552 9.8406884 3.3108333 10.5625 3.9082031 L 10.636719 3.9160156 C 10.635545 3.926808 10.641165 3.9365107 10.640625 3.9472656 C 10.647266 3.8167944 10.695583 3.687229 10.794922 3.5878906 C 10.895146 3.4876668 11.027467 3.4332119 11.167969 3.4296875 C 11.161952 3.4298426 11.156422 3.4273796 11.150391 3.4277344 L 11.146484 3.3613281 C 10.27122 2.6214532 9.165802 2.1501195 7.9550781 2.0605469 z M 11.146484 3.3613281 C 11.175048 3.3854735 11.200445 3.4127979 11.228516 3.4375 C 11.252657 3.4396124 11.275445 3.4459723 11.298828 3.4511719 C 11.327462 3.4575596 11.357605 3.4559449 11.384766 3.4667969 C 11.442467 3.4898582 11.493419 3.5280659 11.541016 3.5703125 C 11.458496 3.4890496 11.370507 3.4140597 11.283203 3.3378906 C 11.248775 3.3323757 11.216889 3.3164063 11.181641 3.3164062 C 11.168981 3.3164062 11.155238 3.315639 11.142578 3.3164062 L 11.146484 3.3613281 z M 11.541016 3.5703125 C 11.493366 3.5280954 11.44298 3.4900562 11.384766 3.4667969 C 11.35778 3.4560116 11.327339 3.4575118 11.298828 3.4511719 C 11.276816 3.4462614 11.255029 3.4416133 11.232422 3.4394531 C 11.244177 3.4498128 11.253958 3.4621999 11.265625 3.4726562 C 11.368631 3.4897713 11.469215 3.5279592 11.548828 3.6074219 C 11.627804 3.6865473 11.666204 3.7862994 11.683594 3.8886719 C 11.69319 3.8992812 11.703375 3.9092391 11.712891 3.9199219 C 11.71024 3.8942281 11.709333 3.8686064 11.703125 3.84375 C 11.69776 3.822407 11.697345 3.7997409 11.689453 3.7792969 C 11.665157 3.7162849 11.628615 3.6582944 11.582031 3.6074219 C 11.581411 3.606745 11.580702 3.6061429 11.580078 3.6054688 C 11.568039 3.5933943 11.555115 3.5822796 11.542969 3.5703125 C 11.542558 3.5699458 11.541427 3.5706778 11.541016 3.5703125 z M 11.582031 3.6074219 C 11.628761 3.6583689 11.66513 3.716289 11.689453 3.7792969 C 11.697468 3.800084 11.697715 3.8220888 11.703125 3.84375 C 11.709925 3.870803 11.71616 3.8976149 11.71875 3.9257812 C 11.749728 3.9606603 11.782388 3.9936489 11.8125 4.0292969 L 11.837891 4.03125 C 11.842589 3.9747531 11.825831 3.9219255 11.816406 3.8671875 C 11.739174 3.7795986 11.664415 3.6901259 11.582031 3.6074219 z M 11.8125 4.0292969 L 11.726562 4.0214844 C 11.727217 4.0140174 11.722307 4.0074452 11.722656 4 C 11.716133 4.1358049 11.665244 4.2640835 11.568359 4.3613281 C 11.471581 4.4577482 11.344054 4.5086581 11.208984 4.515625 C 11.219739 4.5150628 11.229442 4.5207304 11.240234 4.5195312 L 11.248047 4.6015625 C 11.820672 5.3106713 12.214114 6.1688441 12.314453 7.1230469 L 12.371094 7.1933594 C 12.36331 7.1996279 12.360897 7.2101739 12.353516 7.2167969 C 12.450078 7.1308767 12.573813 7.0742188 12.712891 7.0742188 C 12.860147 7.0742188 12.993425 7.1334263 13.091797 7.2285156 C 13.086374 7.2232618 13.083784 7.2159825 13.078125 7.2109375 L 13.113281 7.171875 C 13.015154 5.9798401 12.5423 4.8932558 11.8125 4.0292969 z M 13.113281 7.171875 C 13.115669 7.2008855 13.115245 7.2306328 13.117188 7.2597656 C 13.13346 7.2779984 13.144455 7.3000226 13.158203 7.3203125 C 13.177217 7.3485826 13.201419 7.3731033 13.214844 7.4042969 C 13.227065 7.4325232 13.227017 7.4656711 13.234375 7.4960938 C 13.227056 7.4656103 13.227191 7.4329883 13.214844 7.4042969 C 13.201216 7.3728236 13.177247 7.3484175 13.158203 7.3203125 C 13.145141 7.3008922 13.13274 7.2813786 13.117188 7.2636719 C 13.118255 7.2798563 13.118211 7.2962787 13.119141 7.3125 C 13.18533 7.3995655 13.232422 7.5032559 13.232422 7.6210938 C 13.232422 7.737795 13.186288 7.8389889 13.121094 7.9257812 C 13.120321 7.940727 13.120031 7.9557882 13.119141 7.9707031 C 13.135019 7.9522804 13.15087 7.9342666 13.164062 7.9140625 C 13.180628 7.8886532 13.200667 7.8659722 13.212891 7.8378906 C 13.228091 7.8029227 13.23065 7.7642104 13.238281 7.7265625 C 13.230613 7.7643098 13.227914 7.8033788 13.212891 7.8378906 C 13.200691 7.8659562 13.180841 7.8883666 13.164062 7.9140625 C 13.14938 7.9365838 13.136882 7.9603992 13.119141 7.9804688 C 13.11683 8.0180779 13.116335 8.056343 13.113281 8.09375 L 13.138672 8.125 C 13.177415 8.0923323 13.19874 8.0475018 13.228516 8.0078125 C 13.235207 7.9052018 13.242969 7.8032206 13.244141 7.6992188 C 13.248138 7.6724743 13.261719 7.6485593 13.261719 7.6210938 C 13.261719 7.5905152 13.247181 7.5629638 13.242188 7.5332031 C 13.240368 7.4306713 13.233748 7.3296768 13.226562 7.2285156 C 13.201074 7.1949685 13.184311 7.155523 13.152344 7.1269531 L 13.113281 7.171875 z M 13.113281 8.09375 L 13.066406 8.0390625 C 13.072234 8.0341549 13.074486 8.0266017 13.080078 8.0214844 C 12.982761 8.1108079 12.855082 8.1679688 12.712891 8.1679688 C 12.573231 8.1679688 12.448272 8.1119026 12.351562 8.0253906 C 12.358632 8.0317057 12.361701 8.0408883 12.369141 8.046875 L 12.318359 8.1113281 C 12.22387 9.0771777 11.829646 9.9470735 11.251953 10.664062 C 11.253881 10.664238 11.25589 10.663876 11.257812 10.664062 L 11.246094 10.775391 C 11.235387 10.774201 11.225516 10.779854 11.214844 10.779297 C 11.349176 10.786656 11.47631 10.837638 11.572266 10.933594 C 11.675389 11.036717 11.727061 11.171281 11.730469 11.306641 C 11.73034 11.300649 11.732747 11.295064 11.732422 11.289062 L 11.769531 11.287109 C 12.524026 10.414507 13.013999 9.3099448 13.113281 8.09375 z M 11.769531 11.287109 C 11.757192 11.30138 11.742949 11.313981 11.730469 11.328125 C 11.729824 11.372058 11.718176 11.414256 11.707031 11.457031 C 11.70163 11.477647 11.703046 11.499705 11.695312 11.519531 C 11.688389 11.53721 11.672895 11.55134 11.664062 11.568359 C 11.720261 11.509479 11.774456 11.449903 11.828125 11.388672 C 11.832143 11.352477 11.845783 11.318074 11.84375 11.28125 L 11.769531 11.287109 z M 11.664062 11.568359 C 11.673043 11.551036 11.688229 11.537691 11.695312 11.519531 C 11.703195 11.499404 11.701622 11.477792 11.707031 11.457031 C 11.717558 11.416854 11.723357 11.375947 11.724609 11.333984 C 11.714835 11.34503 11.705173 11.35622 11.695312 11.367188 C 11.684566 11.483568 11.641985 11.598587 11.552734 11.6875 C 11.589837 11.650774 11.624065 11.611941 11.660156 11.574219 C 11.661275 11.572128 11.662972 11.570463 11.664062 11.568359 z M 11.552734 11.6875 C 11.462731 11.777845 11.346394 11.822128 11.228516 11.832031 C 11.218467 11.840874 11.209331 11.850603 11.199219 11.859375 C 11.228501 11.85858 11.256679 11.853099 11.285156 11.847656 C 11.31859 11.841348 11.353334 11.840462 11.384766 11.828125 C 11.400388 11.821927 11.412715 11.808406 11.427734 11.800781 C 11.468779 11.762464 11.512832 11.726998 11.552734 11.6875 z M 11.427734 11.800781 C 11.423707 11.804541 11.420054 11.808751 11.416016 11.8125 C 11.456938 11.793269 11.493853 11.765598 11.529297 11.736328 C 11.498102 11.761907 11.463207 11.782772 11.427734 11.800781 z M 11.416016 11.8125 C 11.405384 11.817496 11.395696 11.823835 11.384766 11.828125 C 11.352963 11.840742 11.318845 11.841218 11.285156 11.847656 C 11.253741 11.853584 11.223994 11.864869 11.191406 11.865234 C 11.171848 11.88214 11.154558 11.90133 11.134766 11.917969 L 11.130859 11.976562 C 11.172632 11.980195 11.21105 11.965172 11.251953 11.960938 C 11.307834 11.912927 11.362039 11.862601 11.416016 11.8125 z M 11.134766 11.917969 L 11.138672 11.867188 C 11.148082 11.868017 11.156634 11.862946 11.166016 11.863281 C 11.027862 11.858241 10.89915 11.8054 10.800781 11.707031 C 10.700202 11.606452 10.650253 11.475704 10.644531 11.34375 C 10.645024 11.355831 10.639335 11.366768 10.640625 11.378906 L 10.53125 11.390625 C 10.531107 11.389295 10.531385 11.388049 10.53125 11.386719 C 9.8110727 11.972779 8.9350928 12.373424 7.9609375 12.46875 L 7.9277344 12.498047 C 7.9228268 12.492219 7.9152736 12.489968 7.9101562 12.484375 C 7.9993494 12.581692 8.0566406 12.709371 8.0566406 12.851562 C 8.0566406 12.991045 8.000448 13.114191 7.9140625 13.210938 C 7.9017593 13.211758 7.8892777 13.21215 7.8769531 13.212891 C 7.8216861 13.269047 7.7535412 13.307463 7.6777344 13.333984 C 7.7038964 13.333353 7.7297846 13.331063 7.7558594 13.330078 C 7.7761151 13.319611 7.7938101 13.305799 7.8125 13.292969 C 7.8469418 13.269292 7.8814814 13.246364 7.9101562 13.214844 C 7.8816573 13.246135 7.8474889 13.26895 7.8125 13.292969 C 7.7960348 13.304288 7.7831731 13.320666 7.765625 13.330078 C 7.8281846 13.32761 7.8910921 13.324788 7.953125 13.320312 C 7.975109 13.299649 8.0041598 13.289487 8.0234375 13.265625 L 7.953125 13.208984 C 7.9408446 13.209889 7.9283177 13.210113 7.9160156 13.210938 C 7.9216776 13.204549 7.9301521 13.201997 7.9355469 13.195312 L 7.953125 13.208984 C 9.1592267 13.120173 10.260895 12.652586 11.134766 11.917969 z M 7.765625 13.330078 C 7.7623752 13.330206 7.7591106 13.329955 7.7558594 13.330078 C 7.7458104 13.335271 7.7389133 13.345035 7.7285156 13.349609 C 7.7416294 13.343859 7.7530038 13.336848 7.765625 13.330078 z M 7.7285156 13.349609 C 7.6602328 13.379552 7.5866433 13.398438 7.5097656 13.398438 C 7.5875802 13.398438 7.6614434 13.379119 7.7285156 13.349609 z M 7.5097656 13.398438 C 7.4323554 13.398438 7.3594902 13.379717 7.2910156 13.349609 C 7.3581424 13.379119 7.4318519 13.398438 7.5097656 13.398438 z M 7.2910156 13.349609 C 7.2787662 13.344224 7.2695745 13.334364 7.2578125 13.328125 C 7.2552101 13.327997 7.2526015 13.328256 7.25 13.328125 C 7.2637598 13.335658 7.2766588 13.343297 7.2910156 13.349609 z M 7.25 13.328125 C 7.2339112 13.319317 7.2221988 13.303392 7.2070312 13.292969 C 7.1717185 13.268744 7.136117 13.246462 7.1074219 13.214844 C 7.1362528 13.246526 7.1724442 13.2692 7.2070312 13.292969 C 7.2240896 13.304671 7.2394414 13.318381 7.2578125 13.328125 C 7.2793155 13.329182 7.3007015 13.329261 7.3222656 13.330078 C 7.2524349 13.302634 7.1900274 13.26202 7.1386719 13.208984 C 7.1270227 13.208152 7.1151452 13.209888 7.1035156 13.208984 C 7.0181653 13.112487 6.9628906 12.990071 6.9628906 12.851562 C 6.9628906 12.705281 7.021397 12.572795 7.1152344 12.474609 C 7.1106316 12.479409 7.1040523 12.481346 7.0996094 12.486328 L 7.0859375 12.474609 C 6.0855521 12.39282 5.1830804 11.992131 4.4453125 11.394531 L 4.3535156 11.384766 C 4.3541899 11.376674 4.3492913 11.369399 4.3496094 11.361328 C 4.3436686 11.498248 4.2930838 11.626838 4.1953125 11.724609 C 4.1128688 11.807053 4.0054995 11.851135 3.8925781 11.869141 C 4.7607167 12.617977 5.8584742 13.10513 7.0664062 13.207031 L 7.0820312 13.193359 C 7.0867977 13.199278 7.0946368 13.201343 7.0996094 13.207031 C 7.088628 13.20617 7.0773699 13.207956 7.0664062 13.207031 L 6.9960938 13.263672 C 7.0149612 13.287141 7.0429847 13.297969 7.0644531 13.318359 C 7.1258731 13.323457 7.1880497 13.324997 7.25 13.328125 z M 4.3496094 11.361328 C 4.3499622 11.353197 4.3554688 11.346084 4.3554688 11.337891 C 4.3554688 11.330433 4.3518565 11.323819 4.3515625 11.316406 C 4.3490839 11.314294 4.3462243 11.312664 4.34375 11.310547 C 4.3446888 11.327745 4.350294 11.343959 4.3496094 11.361328 z M 4.34375 11.310547 C 4.3421569 11.281361 4.3381602 11.252904 4.3320312 11.224609 C 4.3263148 11.197945 4.3259987 11.169897 4.3164062 11.144531 C 4.2975331 11.12748 4.2764094 11.113051 4.2578125 11.095703 C 4.2909389 11.156787 4.3096175 11.21976 4.3164062 11.287109 C 4.3254808 11.294991 4.3346168 11.302732 4.34375 11.310547 z M 4.3164062 11.287109 C 4.3055663 11.277695 4.2939589 11.269274 4.2832031 11.259766 C 4.2875523 11.286208 4.2988281 11.310547 4.2988281 11.337891 C 4.2988281 11.469089 4.2471332 11.592711 4.1542969 11.685547 C 4.0699966 11.770197 3.9599703 11.816079 3.8417969 11.824219 C 3.8500945 11.831552 3.8588463 11.838419 3.8671875 11.845703 C 3.9793703 11.832771 4.0897245 11.791135 4.1757812 11.705078 C 4.2905741 11.590285 4.3314811 11.436663 4.3164062 11.287109 z M 3.8417969 11.824219 C 3.6581744 11.661944 3.4852321 11.487488 3.3242188 11.302734 C 3.3233212 11.31493 3.3164062 11.325534 3.3164062 11.337891 C 3.3164063 11.392035 3.3309239 11.444304 3.3476562 11.494141 C 3.4447934 11.59955 3.545665 11.700963 3.6503906 11.798828 C 3.7007813 11.815957 3.7536379 11.830078 3.8085938 11.830078 C 3.8201628 11.830078 3.8303686 11.825006 3.8417969 11.824219 z M 3.3242188 11.302734 C 3.3328505 11.185446 3.3768452 11.07628 3.4609375 10.992188 C 3.5533902 10.899351 3.6770117 10.847656 3.8085938 10.847656 C 3.8338348 10.847656 3.8563759 10.857617 3.8808594 10.861328 C 3.8712789 10.850638 3.8630027 10.8389 3.8535156 10.828125 C 3.7060244 10.815181 3.5542948 10.859768 3.4414062 10.972656 C 3.3559605 11.058264 3.3141371 11.166003 3.3007812 11.277344 C 3.3082917 11.286069 3.3166556 11.294056 3.3242188 11.302734 z M 3.8535156 10.828125 C 3.9180124 10.833785 3.9799226 10.851137 4.0390625 10.880859 C 4.0238507 10.86472 4.0110812 10.846429 3.9960938 10.830078 C 3.9737232 10.821873 3.9491592 10.821622 3.9257812 10.816406 C 3.8940958 10.80937 3.8628302 10.802141 3.8300781 10.800781 C 3.8379542 10.80986 3.8455736 10.819105 3.8535156 10.828125 z M 3.8300781 10.800781 C 3.8288752 10.799395 3.8273732 10.798263 3.8261719 10.796875 C 3.8200431 10.796673 3.8147546 10.792969 3.8085938 10.792969 C 3.8038611 10.792969 3.7996352 10.794803 3.7949219 10.794922 C 3.8070338 10.794632 3.8180406 10.800281 3.8300781 10.800781 z M 3.8261719 10.796875 C 3.8607308 10.798014 3.8926522 10.809015 3.9257812 10.816406 C 3.9483438 10.821417 3.9724464 10.81839 3.9941406 10.826172 C 3.95575 10.784215 3.9216512 10.738628 3.8847656 10.695312 C 3.8587759 10.692188 3.8349971 10.679688 3.8085938 10.679688 C 3.7959343 10.679688 3.7821907 10.679304 3.7695312 10.679688 L 3.7734375 10.732422 C 3.7912733 10.753752 3.8079799 10.775857 3.8261719 10.796875 z M 3.8847656 10.695312 C 4.0305888 10.712844 4.1702245 10.768206 4.2753906 10.873047 C 4.3779497 10.975892 4.4259363 11.111046 4.4453125 11.251953 C 5.1802777 11.870565 6.098136 12.263178 7.1113281 12.34375 C 7.2175247 12.26061 7.3406907 12.206408 7.4765625 12.199219 C 4.9859529 12.164814 2.96875 10.133385 2.96875 7.6347656 C 2.96875 5.1464951 4.9694804 3.1255628 7.4453125 3.0742188 C 7.3174415 3.0600785 7.2037167 3.0070933 7.1054688 2.9257812 C 6.1039384 3.0066795 5.1969975 3.3942535 4.4667969 4.0019531 C 4.4531933 4.1554353 4.3987627 4.3037263 4.2890625 4.4140625 C 4.1771382 4.525365 4.0278849 4.5776474 3.8730469 4.5898438 C 3.2658949 5.3087702 2.8746947 6.2028849 2.78125 7.1914062 C 2.883243 7.3102223 2.953125 7.4547798 2.953125 7.6132812 C 2.953125 7.7739063 2.8813333 7.9198824 2.7773438 8.0390625 C 2.8644471 9.0495648 3.262441 9.9645079 3.8847656 10.695312 z M 2.7773438 8.0390625 C 2.7727747 7.9860562 2.764523 7.934343 2.7617188 7.8808594 C 2.7561663 7.8906347 2.7483435 7.8987721 2.7421875 7.9082031 C 2.7181006 7.9447243 2.695958 7.9820073 2.6640625 8.0117188 C 2.6571568 8.0181905 2.6537584 8.0270586 2.6464844 8.0332031 L 2.7167969 8.1191406 C 2.7430272 8.0970909 2.7551671 8.0644786 2.7773438 8.0390625 z M 2.6640625 8.0117188 C 2.6963457 7.9814645 2.7184183 7.9446178 2.7421875 7.9082031 C 2.7486834 7.8983539 2.7558566 7.889185 2.7617188 7.8789062 C 2.7609636 7.8643898 2.7584363 7.8504877 2.7578125 7.8359375 C 2.7291866 7.8959819 2.6908888 7.9475786 2.6425781 7.9921875 C 2.6433379 8.0025497 2.6437063 8.0130932 2.6445312 8.0234375 C 2.6502996 8.0184934 2.6585058 8.016895 2.6640625 8.0117188 z M 2.6425781 7.9921875 C 2.6417237 7.9805342 2.6413967 7.968707 2.640625 7.9570312 C 2.5515365 8.0477404 2.4297484 8.1054688 2.2929688 8.1054688 C 2.1641644 8.1054688 2.0485059 8.0520717 1.9609375 7.9707031 C 1.9616349 7.9823806 1.9621214 7.994201 1.9628906 8.0058594 C 2.0530422 8.0816901 2.1659333 8.1328125 2.2929688 8.1328125 C 2.4286795 8.1328125 2.5501668 8.0775177 2.6425781 7.9921875 z M 2.640625 7.9570312 C 2.6908184 7.9059248 2.7258551 7.8424527 2.75 7.7734375 C 2.748608 7.7262878 2.7363281 7.6822459 2.7363281 7.6347656 C 2.7363281 7.5772022 2.7518644 7.5238706 2.7539062 7.4667969 C 2.7307263 7.393923 2.6944659 7.3291125 2.6425781 7.2753906 C 2.6337997 7.3944763 2.625 7.5134768 2.625 7.6347656 C 2.625 7.7435121 2.6335533 7.8500422 2.640625 7.9570312 z M 2.6425781 7.2753906 C 2.6435324 7.2624458 2.6434753 7.2492449 2.6445312 7.2363281 C 2.5519077 7.1499097 2.4296508 7.09375 2.2929688 7.09375 C 2.1665172 7.09375 2.0548202 7.1454972 1.9648438 7.2207031 C 1.9639871 7.2323391 1.9636757 7.244204 1.9628906 7.2558594 C 2.0502416 7.1756711 2.1651383 7.1230469 2.2929688 7.1230469 C 2.4313259 7.1230469 2.5532779 7.182934 2.6425781 7.2753906 z M 2.6445312 7.2363281 C 2.6934524 7.2819719 2.7313514 7.3369377 2.7597656 7.3984375 C 2.7605328 7.3831898 2.7647136 7.3687255 2.765625 7.3535156 C 2.7689027 7.2988163 2.7761274 7.2455964 2.78125 7.1914062 C 2.7622847 7.1693127 2.7524231 7.1407023 2.7304688 7.1210938 L 2.65625 7.2050781 C 2.6598093 7.2082277 2.6605965 7.213562 2.6640625 7.2167969 C 2.7042182 7.2543895 2.7343013 7.2995494 2.7617188 7.3476562 C 2.7348874 7.3005429 2.7042879 7.2543407 2.6640625 7.2167969 C 2.658911 7.2119742 2.6518189 7.2097011 2.6464844 7.2050781 C 2.6455742 7.2153999 2.6453765 7.2259881 2.6445312 7.2363281 z M 2.765625 7.3535156 C 2.7740913 7.3688296 2.7879257 7.3803224 2.7949219 7.3964844 C 2.7880045 7.3805575 2.7740255 7.3687162 2.765625 7.3535156 z M 2.7949219 7.3964844 C 2.8245773 7.4647644 2.8398438 7.5373196 2.8398438 7.6132812 C 2.8398438 7.5363425 2.823707 7.4629814 2.7949219 7.3964844 z M 2.8398438 7.6132812 C 2.8398438 7.6901882 2.821075 7.7654283 2.7910156 7.8339844 C 2.8211947 7.7661961 2.8398438 7.6921699 2.8398438 7.6132812 z M 2.7910156 7.8339844 C 2.7836392 7.8505533 2.7706469 7.8632517 2.7617188 7.8789062 C 2.7617528 7.87956 2.7616845 7.8802057 2.7617188 7.8808594 C 2.7710231 7.8644787 2.7834561 7.8512253 2.7910156 7.8339844 z M 2.7597656 7.3984375 C 2.7586034 7.4215358 2.7547356 7.4436137 2.7539062 7.4667969 C 2.7688142 7.5136649 2.7832031 7.5615045 2.7832031 7.6132812 C 2.7832031 7.6699718 2.7677367 7.7227392 2.75 7.7734375 C 2.7506291 7.7947449 2.756902 7.8147005 2.7578125 7.8359375 C 2.790054 7.7683093 2.8105469 7.6931888 2.8105469 7.6132812 C 2.8105469 7.5355898 2.7903445 7.4646227 2.7597656 7.3984375 z M 3.8730469 4.5898438 C 3.9077146 4.5487939 3.9385943 4.5046874 3.9746094 4.4648438 C 3.9619747 4.4685494 3.9484451 4.4679091 3.9355469 4.4707031 C 3.8977248 4.4788755 3.8618891 4.4941406 3.8222656 4.4941406 C 3.8181992 4.4941406 3.814598 4.4922757 3.8105469 4.4921875 C 3.7972956 4.5076575 3.7845441 4.5234254 3.7714844 4.5390625 L 3.765625 4.6035156 C 3.8024943 4.606788 3.8368298 4.5926965 3.8730469 4.5898438 z M 3.8105469 4.4921875 C 3.8120682 4.4904114 3.8129293 4.488102 3.8144531 4.4863281 C 3.8091041 4.4862813 3.8041908 4.4884818 3.7988281 4.4882812 C 3.802996 4.4884661 3.8063615 4.4920963 3.8105469 4.4921875 z M 3.8144531 4.4863281 C 3.8559302 4.486691 3.8956719 4.479341 3.9355469 4.4707031 C 3.9498222 4.4676186 3.9645959 4.4670944 3.9785156 4.4628906 C 3.9878649 4.4525649 3.9944679 4.4399306 4.0039062 4.4296875 C 3.9490758 4.4501679 3.8917682 4.4615758 3.8339844 4.4628906 C 3.8273003 4.4705738 3.8210897 4.4786028 3.8144531 4.4863281 z M 3.8339844 4.4628906 C 3.8434081 4.4520583 3.8518105 4.4404355 3.8613281 4.4296875 C 3.8478493 4.4307848 3.8359376 4.4375 3.8222656 4.4375 C 3.6914507 4.4375 3.5690152 4.3873746 3.4765625 4.2949219 C 3.3827198 4.2008915 3.3360026 4.0779577 3.3339844 3.9550781 C 3.3266968 3.9633982 3.317786 3.9701522 3.3105469 3.9785156 C 3.3179977 4.1005012 3.3619005 4.221099 3.4550781 4.3144531 C 3.5593794 4.4185569 3.6973154 4.4660004 3.8339844 4.4628906 z M 3.3339844 3.9550781 C 3.4880934 3.7791357 3.6534147 3.6144566 3.828125 3.4589844 C 3.8260262 3.4589582 3.8243685 3.4570312 3.8222656 3.4570312 C 3.7374782 3.4570312 3.6600779 3.4850296 3.5878906 3.5253906 C 3.520837 3.5899205 3.4564293 3.6569034 3.3925781 3.7246094 C 3.3550403 3.797262 3.3326716 3.8751501 3.3339844 3.9550781 z M 3.3925781 3.7246094 C 3.4152869 3.6806576 3.4396354 3.6363888 3.4765625 3.5996094 C 3.5090922 3.5669447 3.5487033 3.5473009 3.5878906 3.5253906 C 3.6111696 3.5029879 3.6365016 3.4829471 3.6601562 3.4609375 C 3.5857317 3.485578 3.5142856 3.5207585 3.4550781 3.5800781 C 3.3953643 3.639792 3.3604432 3.7119619 3.3359375 3.7871094 C 3.3549017 3.7664017 3.3733149 3.7450355 3.3925781 3.7246094 z M 3.828125 3.4589844 C 3.9569727 3.4605914 4.078951 3.508261 4.1699219 3.5996094 C 4.2627582 3.6920621 4.3144531 3.8160672 4.3144531 3.9472656 C 4.3144531 3.9622089 4.3079585 3.9754991 4.3066406 3.9902344 C 4.3170776 3.9811227 4.3273756 3.9719144 4.3378906 3.9628906 C 4.3421458 3.8247967 4.2948191 3.6854441 4.1894531 3.5800781 C 4.0967466 3.4871961 3.9767642 3.441453 3.8554688 3.4335938 C 3.8461284 3.4417956 3.8374103 3.4507215 3.828125 3.4589844 z M 4.3378906 3.9628906 C 4.3360934 4.0212168 4.3260404 4.0795758 4.3046875 4.1347656 C 4.3153 4.1251162 4.3271909 4.1169763 4.3378906 4.1074219 C 4.3422132 4.0935054 4.3425045 4.078729 4.3457031 4.0644531 C 4.3547775 4.0237909 4.3656935 3.9835253 4.3652344 3.9414062 C 4.3563733 3.948902 4.3466973 3.9553329 4.3378906 3.9628906 z M 4.3652344 3.9414062 C 4.3659353 3.9408134 4.3664863 3.9400456 4.3671875 3.9394531 C 4.3671589 3.9375018 4.3672364 3.9355415 4.3671875 3.9335938 C 4.3672579 3.9363073 4.3652048 3.9386951 4.3652344 3.9414062 z M 4.3671875 3.9394531 C 4.3672275 3.9421814 4.3691406 3.9445308 4.3691406 3.9472656 C 4.3691406 3.9882739 4.3544567 4.0253847 4.3457031 4.0644531 C 4.3426856 4.0779746 4.3438701 4.0922308 4.3398438 4.1054688 C 4.3806118 4.0691065 4.4247888 4.0369138 4.4667969 4.0019531 C 4.4696055 3.9702646 4.4823069 3.9403714 4.4804688 3.9082031 L 4.3984375 3.9140625 C 4.3880973 3.9226546 4.3774553 3.9307773 4.3671875 3.9394531 z M 4.3398438 4.1054688 C 4.3391594 4.1060791 4.3385746 4.1068111 4.3378906 4.1074219 C 4.333568 4.1213383 4.3355008 4.1368873 4.3300781 4.1503906 C 4.3358037 4.1360398 4.3353468 4.120254 4.3398438 4.1054688 z M 4.3300781 4.1503906 C 4.3027849 4.2188 4.2621291 4.2810242 4.2089844 4.3339844 C 4.2620655 4.2807059 4.3028715 4.2181398 4.3300781 4.1503906 z M 4.2089844 4.3339844 C 4.155232 4.3879172 4.0903868 4.425952 4.0214844 4.453125 C 4.0905628 4.4259759 4.1549789 4.3877891 4.2089844 4.3339844 z M 4.0214844 4.453125 C 4.0078567 4.4584809 3.9925608 4.458649 3.9785156 4.4628906 C 3.977622 4.4638776 3.9755022 4.463856 3.9746094 4.4648438 C 3.9904316 4.4602032 4.0061584 4.4591691 4.0214844 4.453125 z M 4.3046875 4.1347656 C 4.2854976 4.152214 4.2630424 4.1658379 4.2441406 4.1835938 C 4.2223838 4.2222729 4.2021275 4.2628493 4.1699219 4.2949219 C 4.1359714 4.3288724 4.0939065 4.3507453 4.0527344 4.3730469 C 4.0355581 4.3911132 4.0207999 4.4113535 4.0039062 4.4296875 C 4.0712366 4.4045381 4.1353011 4.3685026 4.1894531 4.3144531 C 4.2421361 4.2616704 4.2794098 4.2000997 4.3046875 4.1347656 z M 4.0527344 4.3730469 C 4.1148977 4.3076622 4.1783824 4.2453651 4.2441406 4.1835938 C 4.2779362 4.1235123 4.3004241 4.0597444 4.3066406 3.9902344 C 4.1486215 4.1281887 4.0003835 4.2726554 3.8613281 4.4296875 C 3.9296964 4.4241219 3.9934716 4.4051475 4.0527344 4.3730469 z M 7.1054688 2.9257812 C 7.157911 2.9215452 7.2088146 2.912666 7.2617188 2.9101562 C 7.2493965 2.903603 7.240322 2.8922633 7.2285156 2.8847656 C 7.1870959 2.8584992 7.1481338 2.8310144 7.1152344 2.7949219 C 7.1139694 2.7935337 7.1125807 2.7924183 7.1113281 2.7910156 C 7.1122918 2.7920939 7.1123092 2.7938512 7.1132812 2.7949219 C 7.0951859 2.7962998 7.0766338 2.7952984 7.0585938 2.796875 L 7.0019531 2.8417969 C 7.0305625 2.8774714 7.0710722 2.897314 7.1054688 2.9257812 z M 7.1152344 2.7949219 C 7.1485589 2.831492 7.18767 2.8588264 7.2285156 2.8847656 C 7.2409395 2.8926443 7.2525517 2.9013257 7.265625 2.9082031 C 7.2801635 2.907526 7.2940218 2.9048423 7.3085938 2.9042969 C 7.2478795 2.8775159 7.194398 2.8396917 7.1484375 2.7929688 C 7.1374168 2.7937283 7.126235 2.7940886 7.1152344 2.7949219 z M 7.1484375 2.7929688 C 7.1620435 2.792031 7.1758169 2.7918406 7.1894531 2.7910156 C 7.0905242 2.7012337 7.0253906 2.5736675 7.0253906 2.4296875 C 7.0253906 2.2765642 7.1008788 2.1467489 7.2109375 2.0566406 C 7.1927214 2.0577069 7.1744194 2.0573528 7.15625 2.0585938 C 7.0593114 2.1529497 6.9980469 2.2840557 6.9980469 2.4296875 C 6.9980469 2.5708482 7.0562362 2.6992378 7.1484375 2.7929688 z M 7.2109375 2.0566406 C 7.3203344 2.050237 7.4280862 2.0390625 7.5390625 2.0390625 C 7.6331806 2.0390625 7.7253674 2.0481187 7.8183594 2.0527344 C 7.7343388 1.9855145 7.6313905 1.9394531 7.515625 1.9394531 C 7.3980784 1.9394531 7.295545 1.98737 7.2109375 2.0566406 z M 7.8183594 2.0527344 C 7.9309072 2.1427773 8.0078125 2.2746164 8.0078125 2.4296875 C 8.0078125 2.5752229 7.9406994 2.7030886 7.8398438 2.7929688 C 7.8540826 2.794007 7.8686076 2.7937606 7.8828125 2.7949219 C 7.976177 2.7010281 8.0351562 2.5718155 8.0351562 2.4296875 C 8.0351563 2.2825257 7.9718293 2.1511897 7.8730469 2.0566406 C 7.8548636 2.055561 7.8365885 2.0536392 7.8183594 2.0527344 z M 7.8730469 2.0566406 C 7.8860208 2.057411 7.8991592 2.0577348 7.9121094 2.0585938 C 7.8821236 2.0268735 7.8465598 2.0039532 7.8105469 1.9804688 C 7.7888785 1.9661778 7.7697597 1.9486427 7.7460938 1.9375 C 7.7050133 1.9360188 7.6643412 1.9322445 7.6230469 1.9316406 C 7.7176827 1.9524061 7.8053548 1.9918495 7.8730469 2.0566406 z M 7.6230469 1.9316406 C 7.5872225 1.9237799 7.5537486 1.9101562 7.515625 1.9101562 C 7.4719605 1.9101562 7.4331521 1.9252897 7.3925781 1.9355469 C 7.4417928 1.934287 7.4895496 1.9277344 7.5390625 1.9277344 C 7.5673421 1.9277344 7.5948634 1.9312285 7.6230469 1.9316406 z M 7.8828125 2.7949219 C 7.833723 2.8442897 7.7744732 2.8835538 7.7089844 2.9101562 C 7.7248272 2.9109144 7.7400571 2.9131487 7.7558594 2.9140625 C 7.7741581 2.9049233 7.7895768 2.8919201 7.8066406 2.8808594 C 7.8442196 2.8565516 7.8810178 2.8302197 7.9121094 2.796875 C 7.9024297 2.7960253 7.8925082 2.7957145 7.8828125 2.7949219 z M 7.9121094 2.796875 C 7.9133956 2.7969879 7.9147297 2.7967611 7.9160156 2.796875 C 7.9169929 2.7958092 7.9169999 2.7940423 7.9179688 2.7929688 C 7.9163697 2.7947284 7.9137285 2.7951386 7.9121094 2.796875 z M 7.9160156 2.796875 C 7.8846 2.8311367 7.8457995 2.8554768 7.8066406 2.8808594 C 7.7911687 2.8908673 7.7800407 2.9076429 7.7636719 2.9160156 C 7.8164118 2.9191546 7.8676541 2.9267856 7.9199219 2.9316406 C 7.9566011 2.9021951 7.9989644 2.8811815 8.0292969 2.84375 L 7.9765625 2.8007812 C 7.9566342 2.7987671 7.9360136 2.7986465 7.9160156 2.796875 z M 7.9199219 2.9316406 C 7.8269848 3.0062491 7.7203863 3.0542231 7.6015625 3.0703125 C 8.7616923 3.0863353 9.8110269 3.542145 10.609375 4.2714844 C 10.570265 4.1963128 10.548796 4.1182525 10.541016 4.0332031 C 9.8182492 3.4185525 8.9170064 3.024258 7.9199219 2.9316406 z M 10.541016 4.0332031 C 10.580928 4.0671452 10.623347 4.0975919 10.662109 4.1328125 C 10.65637 4.1139282 10.657955 4.0936778 10.654297 4.0742188 C 10.647649 4.0387004 10.636317 4.0047667 10.636719 3.96875 C 10.612491 3.9478866 10.587139 3.928594 10.5625 3.9082031 L 10.525391 3.9042969 C 10.520601 3.9488595 10.537025 3.9895831 10.541016 4.0332031 z M 10.636719 3.96875 C 10.638805 3.9705469 10.640495 3.972809 10.642578 3.9746094 C 10.642574 3.9653 10.640155 3.9566196 10.640625 3.9472656 C 10.640254 3.9545638 10.6368 3.9614441 10.636719 3.96875 z M 10.642578 3.9746094 C 10.642593 4.0086992 10.648089 4.0411966 10.654297 4.0742188 C 10.658366 4.0959595 10.661259 4.1174618 10.667969 4.1386719 C 10.678585 4.1483519 10.690644 4.1562411 10.701172 4.1660156 C 10.679062 4.1102861 10.668053 4.05127 10.666016 3.9921875 C 10.658663 3.985757 10.64997 3.9809963 10.642578 3.9746094 z M 10.666016 3.9921875 C 10.677513 4.0022432 10.68977 4.0113226 10.701172 4.0214844 C 10.68753 3.8803318 10.726355 3.7365354 10.833984 3.6289062 C 10.926821 3.5360699 11.050442 3.484375 11.181641 3.484375 C 11.225417 3.484375 11.265485 3.498747 11.306641 3.5097656 C 11.293006 3.4973021 11.279383 3.4849863 11.265625 3.4726562 C 11.106066 3.4461447 10.937776 3.4843326 10.814453 3.6074219 C 10.7086 3.7134752 10.661232 3.8534775 10.666016 3.9921875 z M 11.306641 3.5097656 C 11.424917 3.6178815 11.537833 3.7298784 11.646484 3.8476562 C 11.624328 3.7662171 11.590692 3.6900474 11.529297 3.6289062 C 11.467437 3.5670461 11.38883 3.5317701 11.306641 3.5097656 z M 11.646484 3.8476562 C 11.657831 3.8893627 11.671875 3.9301756 11.671875 3.9746094 C 11.671875 4.1058078 11.622133 4.2290457 11.529297 4.3222656 C 11.436461 4.4147183 11.312839 4.4648438 11.181641 4.4648438 C 11.162538 4.4648438 11.145645 4.4572117 11.126953 4.4550781 C 11.136673 4.4662016 11.14663 4.477069 11.15625 4.4882812 C 11.297519 4.4953495 11.440726 4.4498991 11.548828 4.3417969 C 11.672404 4.2182207 11.710804 4.0488577 11.683594 3.8886719 C 11.671201 3.8749712 11.65901 3.8612336 11.646484 3.8476562 z M 11.15625 4.4882812 C 11.095481 4.4852407 11.035417 4.4735707 10.978516 4.4492188 C 10.989754 4.4615439 10.998656 4.4758381 11.009766 4.4882812 C 11.031065 4.4954204 11.054029 4.49554 11.076172 4.5 C 11.109087 4.5065387 11.141738 4.5113836 11.175781 4.5117188 C 11.169197 4.5039477 11.162882 4.4960104 11.15625 4.4882812 z M 11.175781 4.5117188 C 11.178211 4.514587 11.179217 4.5186104 11.181641 4.5214844 C 11.19121 4.5214844 11.199495 4.5161145 11.208984 4.515625 C 11.197567 4.5162218 11.187129 4.5118305 11.175781 4.5117188 z M 11.181641 4.5214844 C 11.144804 4.5214844 11.111522 4.5071201 11.076172 4.5 C 11.056211 4.4960348 11.034948 4.5003102 11.015625 4.4941406 C 11.050386 4.5332079 11.081758 4.5750311 11.115234 4.6152344 C 11.161235 4.6200461 11.204963 4.6359394 11.251953 4.6308594 L 11.248047 4.6015625 C 11.226218 4.5745313 11.204031 4.5480352 11.181641 4.5214844 z M 11.115234 4.6152344 C 11.036288 4.6069764 10.963089 4.5882606 10.892578 4.5527344 C 11.603128 5.3254489 12.047808 6.3375708 12.091797 7.4570312 C 12.112364 7.3790272 12.144231 7.3094541 12.191406 7.2441406 C 12.108347 6.2465453 11.721074 5.3428152 11.115234 4.6152344 z M 12.191406 7.2441406 C 12.196101 7.300523 12.206286 7.3551909 12.208984 7.4121094 C 12.210943 7.4073921 12.212757 7.4030877 12.214844 7.3984375 C 12.225197 7.3752831 12.244295 7.3574626 12.257812 7.3359375 C 12.278439 7.3031706 12.295379 7.2678571 12.322266 7.2402344 C 12.319117 7.2013351 12.318516 7.1616848 12.314453 7.1230469 L 12.300781 7.1074219 C 12.253958 7.1451567 12.225709 7.1966484 12.191406 7.2441406 z M 12.322266 7.2402344 C 12.322631 7.2447447 12.321913 7.2493925 12.322266 7.2539062 C 12.333356 7.2420277 12.341292 7.2277646 12.353516 7.2167969 C 12.343644 7.2255805 12.331479 7.2307683 12.322266 7.2402344 z M 12.322266 7.2539062 C 12.298409 7.2794586 12.276157 7.3067258 12.257812 7.3359375 C 12.244255 7.3574755 12.225345 7.3750326 12.214844 7.3984375 C 12.211039 7.4069471 12.212348 7.4170796 12.208984 7.4257812 C 12.210254 7.4542942 12.217988 7.4811256 12.21875 7.5097656 C 12.23762 7.4259016 12.270176 7.3501349 12.324219 7.2871094 C 12.323433 7.2760943 12.323125 7.2649012 12.322266 7.2539062 z M 12.324219 7.2871094 C 12.325327 7.3026465 12.325211 7.3184076 12.326172 7.3339844 C 12.415577 7.2133273 12.551206 7.1308594 12.712891 7.1308594 C 12.886975 7.1308594 13.033974 7.226262 13.121094 7.3632812 C 13.120278 7.3463731 13.120107 7.3293689 13.119141 7.3125 C 13.024367 7.1878345 12.881392 7.1015625 12.712891 7.1015625 C 12.55524 7.1015625 12.419322 7.1761974 12.324219 7.2871094 z M 13.121094 7.3632812 C 13.125458 7.453726 13.134766 7.5432584 13.134766 7.6347656 C 13.134766 7.7150668 13.126413 7.7935588 13.123047 7.8730469 C 13.169852 7.7978506 13.203125 7.7160435 13.203125 7.6210938 C 13.203125 7.5245886 13.169321 7.4391314 13.121094 7.3632812 z M 13.123047 7.8730469 C 13.036345 8.0123419 12.888528 8.1113281 12.712891 8.1113281 C 12.55218 8.1113281 12.417639 8.0278434 12.328125 7.9082031 C 12.327251 7.9238006 12.327194 7.9395199 12.326172 7.9550781 C 12.421252 8.0649373 12.556225 8.1386719 12.712891 8.1386719 C 12.882371 8.1386719 13.026415 8.0518262 13.121094 7.9257812 C 13.122001 7.9082416 13.122302 7.8906283 13.123047 7.8730469 z M 12.326172 7.9550781 C 12.273538 7.894263 12.240647 7.8227019 12.220703 7.7421875 C 12.220063 7.7701866 12.212063 7.7963397 12.210938 7.8242188 C 12.213413 7.830369 12.212146 7.8376981 12.214844 7.84375 C 12.225569 7.8676602 12.243902 7.8862506 12.257812 7.9082031 C 12.276635 7.9379728 12.299649 7.9643393 12.324219 7.9902344 C 12.325069 7.9785798 12.325405 7.9667551 12.326172 7.9550781 z M 12.324219 7.9902344 C 12.323887 7.9947869 12.32261 7.9993572 12.322266 8.0039062 C 12.33075 8.0125679 12.342524 8.0173048 12.351562 8.0253906 C 12.340219 8.0152579 12.334587 8.001162 12.324219 7.9902344 z M 12.322266 8.0039062 C 12.295298 7.9763756 12.278534 7.9409024 12.257812 7.9082031 C 12.243858 7.8861333 12.225456 7.8675529 12.214844 7.84375 C 12.213645 7.8410765 12.212095 7.8386334 12.210938 7.8359375 C 12.208525 7.8922508 12.197727 7.9461581 12.193359 8.0019531 C 12.226895 8.0476792 12.253473 8.0982137 12.298828 8.1347656 L 12.318359 8.1113281 C 12.321816 8.075994 12.319573 8.0394557 12.322266 8.0039062 z M 12.193359 8.0019531 C 12.147056 7.9388174 12.115001 7.8721229 12.09375 7.796875 C 12.052598 8.945257 11.590813 9.9837434 10.851562 10.765625 C 10.927263 10.719831 11.008145 10.690055 11.095703 10.677734 C 11.717479 9.9406518 12.113726 9.019246 12.193359 8.0019531 z M 11.095703 10.677734 C 11.058101 10.722309 11.023563 10.769347 10.984375 10.8125 C 10.986153 10.811795 10.988449 10.813186 10.990234 10.8125 C 11.019143 10.801298 11.049626 10.801053 11.080078 10.794922 C 11.105611 10.789805 11.129878 10.780742 11.15625 10.779297 C 11.1888 10.74134 11.220566 10.703018 11.251953 10.664062 C 11.230037 10.662065 11.207761 10.660156 11.185547 10.660156 C 11.15453 10.660156 11.126023 10.673468 11.095703 10.677734 z M 11.15625 10.779297 C 11.154457 10.781387 11.152187 10.783069 11.150391 10.785156 C 11.172032 10.783686 11.192915 10.778153 11.214844 10.779297 C 11.204711 10.778742 11.195772 10.773438 11.185547 10.773438 C 11.175322 10.773438 11.166383 10.778742 11.15625 10.779297 z M 11.150391 10.785156 C 11.126656 10.786768 11.103221 10.790263 11.080078 10.794922 C 11.050016 10.800947 11.018661 10.801574 10.990234 10.8125 C 10.986703 10.813868 10.983972 10.816917 10.980469 10.818359 C 10.96149 10.839197 10.945122 10.862316 10.925781 10.882812 C 10.989993 10.844575 11.056836 10.820599 11.128906 10.8125 C 11.136537 10.803759 11.142822 10.793952 11.150391 10.785156 z M 11.128906 10.8125 C 11.119135 10.823694 11.111435 10.836553 11.101562 10.847656 C 11.129924 10.842624 11.156186 10.830078 11.185547 10.830078 C 11.316745 10.830078 11.44075 10.880204 11.533203 10.972656 C 11.651101 11.090554 11.687483 11.253362 11.660156 11.40625 C 11.671979 11.393343 11.683609 11.380205 11.695312 11.367188 C 11.709001 11.218946 11.666419 11.066595 11.552734 10.953125 C 11.436831 10.837002 11.280391 10.795476 11.128906 10.8125 z M 11.660156 11.40625 C 11.53586 11.541947 11.406492 11.671995 11.269531 11.794922 C 11.368168 11.777706 11.461205 11.739967 11.533203 11.667969 C 11.606732 11.59444 11.643114 11.501601 11.660156 11.40625 z M 11.269531 11.794922 C 11.24151 11.799813 11.214573 11.810547 11.185547 11.810547 C 11.054732 11.810547 10.93268 11.760421 10.839844 11.667969 C 10.723245 11.551136 10.68521 11.389972 10.710938 11.238281 C 10.700248 11.247862 10.688509 11.256138 10.677734 11.265625 C 10.661609 11.416269 10.704888 11.572294 10.820312 11.6875 C 10.93269 11.80009 11.081613 11.844373 11.228516 11.832031 C 11.242386 11.819826 11.255783 11.807262 11.269531 11.794922 z M 10.677734 11.265625 C 10.685147 11.196377 10.706977 11.130666 10.742188 11.068359 C 10.723051 11.086533 10.701077 11.101284 10.681641 11.119141 C 10.680566 11.121826 10.678766 11.124251 10.677734 11.126953 C 10.666708 11.156027 10.666056 11.186562 10.660156 11.216797 C 10.655457 11.240649 10.653838 11.264552 10.652344 11.289062 C 10.66104 11.281513 10.669092 11.273235 10.677734 11.265625 z M 10.652344 11.289062 C 10.650578 11.290595 10.648252 11.291438 10.646484 11.292969 C 10.6456 11.310292 10.64378 11.326422 10.644531 11.34375 C 10.643762 11.324885 10.651208 11.307689 10.652344 11.289062 z M 10.646484 11.292969 C 10.647808 11.267045 10.655169 11.242355 10.660156 11.216797 C 10.666156 11.186342 10.666708 11.155819 10.677734 11.126953 C 10.678197 11.125734 10.677263 11.124263 10.677734 11.123047 C 10.637095 11.160297 10.592698 11.192678 10.550781 11.228516 C 10.543138 11.281441 10.525696 11.332093 10.53125 11.386719 C 10.569727 11.355407 10.608994 11.32542 10.646484 11.292969 z M 10.550781 11.228516 C 10.564717 11.132016 10.598013 11.044194 10.652344 10.962891 C 9.8403086 11.722944 8.7582599 12.196937 7.5625 12.203125 C 7.6884477 12.213629 7.8008615 12.263746 7.9003906 12.339844 C 8.9096109 12.250324 9.8217261 11.851826 10.550781 11.228516 z M 7.9003906 12.339844 C 7.8474034 12.344544 7.7956551 12.352532 7.7421875 12.355469 C 7.7648692 12.366194 7.7816724 12.386606 7.8027344 12.400391 C 7.8373823 12.423011 7.8737205 12.442986 7.9023438 12.472656 C 7.9217137 12.470995 7.9416324 12.470639 7.9609375 12.46875 L 8.0136719 12.425781 C 7.9823459 12.388629 7.9381692 12.368728 7.9003906 12.339844 z M 7.9023438 12.472656 C 7.8997699 12.472877 7.8971063 12.47244 7.8945312 12.472656 C 7.8991745 12.477378 7.9056684 12.47947 7.9101562 12.484375 C 7.9069796 12.480909 7.9056075 12.476039 7.9023438 12.472656 z M 7.8945312 12.472656 C 7.8667562 12.444409 7.8353763 12.421754 7.8027344 12.400391 C 7.7797906 12.385412 7.7595201 12.366917 7.734375 12.355469 C 7.7099185 12.356772 7.6866615 12.362352 7.6621094 12.363281 C 7.7371249 12.386941 7.8051919 12.422003 7.8613281 12.474609 C 7.8723253 12.473759 7.8835545 12.47358 7.8945312 12.472656 z M 7.8613281 12.474609 C 7.8464613 12.475759 7.8313099 12.475547 7.8164062 12.476562 C 7.925931 12.566573 8 12.698871 8 12.851562 C 8 12.998752 7.9309193 13.124783 7.828125 13.214844 C 7.8443676 13.214009 7.860747 13.213864 7.8769531 13.212891 C 7.969153 13.119206 8.0273438 12.992912 8.0273438 12.851562 C 8.0273438 12.702611 7.9624045 12.569331 7.8613281 12.474609 z M 7.828125 13.214844 C 7.7318996 13.219788 7.6364969 13.230469 7.5390625 13.230469 C 7.4188636 13.230469 7.3019311 13.220394 7.1835938 13.212891 C 7.2681871 13.288863 7.3781651 13.337319 7.5 13.339844 C 7.5052589 13.33988 7.5103627 13.339822 7.515625 13.339844 C 7.6366157 13.338298 7.743257 13.289199 7.828125 13.214844 z M 7.515625 13.339844 C 7.5135091 13.339871 7.5118878 13.341797 7.5097656 13.341797 C 7.5063138 13.341797 7.503435 13.339915 7.5 13.339844 C 7.4400141 13.339434 7.381804 13.332333 7.3222656 13.330078 C 7.3809086 13.353125 7.443114 13.369141 7.5097656 13.369141 C 7.5694056 13.369141 7.6243026 13.352678 7.6777344 13.333984 C 7.631282 13.335106 7.5857797 13.341797 7.5390625 13.341797 C 7.5311285 13.341797 7.5235515 13.339876 7.515625 13.339844 z M 7.1835938 13.212891 C 7.0834381 13.122942 7.0175781 12.996516 7.0175781 12.851562 C 7.0175781 12.700387 7.0914948 12.570496 7.1992188 12.480469 C 7.1835979 12.479555 7.1679252 12.477624 7.1523438 12.476562 C 7.0531032 12.571111 6.9902344 12.704209 6.9902344 12.851562 C 6.9902344 12.991341 7.0482264 13.115581 7.1386719 13.208984 C 7.1536234 13.210053 7.1686103 13.211941 7.1835938 13.212891 z M 7.1523438 12.476562 C 7.2053635 12.42605 7.2712959 12.39183 7.3417969 12.367188 C 7.3198299 12.366521 7.2992357 12.360341 7.2773438 12.359375 C 7.2520625 12.371371 7.2319595 12.390668 7.2089844 12.40625 C 7.1774741 12.427499 7.1440174 12.444959 7.1171875 12.472656 C 7.143563 12.445329 7.1774497 12.427637 7.2089844 12.40625 C 7.2311494 12.391303 7.2494392 12.370911 7.2734375 12.359375 C 7.2185228 12.356907 7.1657474 12.348078 7.1113281 12.34375 C 7.0805823 12.367821 7.0439204 12.382535 7.0175781 12.412109 L 7.0859375 12.474609 C 7.0955991 12.475399 7.1055571 12.473876 7.1152344 12.474609 C 7.1275253 12.47554 7.1400278 12.475724 7.1523438 12.476562 z M 7.2734375 12.359375 C 7.2747481 12.359434 7.2760329 12.359317 7.2773438 12.359375 C 7.2829606 12.35671 7.2872491 12.352087 7.2929688 12.349609 C 7.2861915 12.352538 7.2800933 12.356175 7.2734375 12.359375 z M 7.2929688 12.349609 C 7.3216784 12.337204 7.3542761 12.337435 7.3847656 12.330078 C 7.3543335 12.337436 7.3211865 12.337388 7.2929688 12.349609 z M 7.3847656 12.330078 C 7.4260086 12.320106 7.4654938 12.304688 7.5097656 12.304688 C 7.5470766 12.304688 7.5800026 12.319005 7.6152344 12.326172 C 7.5796639 12.31892 7.5467347 12.302734 7.5097656 12.302734 C 7.4663074 12.302734 7.4263349 12.320048 7.3847656 12.330078 z M 7.6152344 12.326172 C 7.6528271 12.333836 7.6916206 12.336316 7.7265625 12.351562 C 7.6920981 12.336539 7.6529316 12.33384 7.6152344 12.326172 z M 7.7265625 12.351562 C 7.7292478 12.352733 7.7317122 12.354256 7.734375 12.355469 C 7.7369906 12.355329 7.739573 12.355612 7.7421875 12.355469 C 7.7372062 12.353113 7.7316125 12.353766 7.7265625 12.351562 z M 7.3417969 12.367188 C 7.3723137 12.368114 7.4009834 12.374655 7.4316406 12.375 C 7.4580224 12.370609 7.4821513 12.359375 7.5097656 12.359375 C 7.5319069 12.359375 7.5508913 12.370193 7.5722656 12.373047 C 7.6029348 12.372473 7.6315833 12.364437 7.6621094 12.363281 C 7.6130328 12.347803 7.5638135 12.332031 7.5097656 12.332031 C 7.4500455 12.332031 7.3952788 12.348494 7.3417969 12.367188 z M 7.5722656 12.373047 C 7.5423221 12.373607 7.5144499 12.380859 7.484375 12.380859 C 7.4662902 12.380859 7.4496782 12.375203 7.4316406 12.375 C 7.3437022 12.389638 7.2648091 12.425653 7.1992188 12.480469 C 7.2940745 12.486015 7.3881535 12.494141 7.484375 12.494141 C 7.5964583 12.494141 7.7061955 12.484069 7.8164062 12.476562 C 7.7475655 12.419987 7.664783 12.3854 7.5722656 12.373047 z M 7.5625 12.203125 C 7.5442292 12.201601 7.5282715 12.191406 7.5097656 12.191406 C 7.4981445 12.191406 7.4881083 12.198608 7.4765625 12.199219 C 7.4978825 12.199513 7.5176739 12.205078 7.5390625 12.205078 C 7.547075 12.205078 7.5544971 12.203166 7.5625 12.203125 z M 10.652344 10.962891 C 10.72091 10.898714 10.787043 10.833865 10.851562 10.765625 C 10.806284 10.793015 10.759173 10.815045 10.720703 10.853516 C 10.689563 10.884656 10.676274 10.927079 10.652344 10.962891 z M 10.677734 11.123047 C 10.679089 11.121806 10.680288 11.120383 10.681641 11.119141 C 10.701276 11.070096 10.732236 11.026325 10.765625 10.984375 C 10.731031 11.027983 10.697105 11.073059 10.677734 11.123047 z M 10.765625 10.984375 C 10.778576 10.96805 10.785697 10.948678 10.800781 10.933594 C 10.800379 10.933991 10.799229 10.933195 10.798828 10.933594 C 10.784177 10.948293 10.778381 10.968349 10.765625 10.984375 z M 10.742188 11.068359 C 10.765383 11.046331 10.793658 11.030299 10.816406 11.007812 C 10.825656 10.996745 10.829467 10.983054 10.839844 10.972656 C 10.848043 10.964491 10.858526 10.960637 10.867188 10.953125 C 10.88855 10.931335 10.904837 10.905008 10.925781 10.882812 C 10.88954 10.904394 10.851494 10.921944 10.820312 10.953125 C 10.786244 10.987193 10.764796 11.028353 10.742188 11.068359 z M 10.867188 10.953125 C 10.849665 10.970998 10.834207 10.990216 10.816406 11.007812 C 10.759298 11.076146 10.725074 11.154931 10.710938 11.238281 C 10.848846 11.114682 10.97851 10.986061 11.101562 10.847656 C 11.01472 10.863064 10.934588 10.894669 10.867188 10.953125 z M 10.980469 10.818359 C 10.982042 10.816632 10.982804 10.814229 10.984375 10.8125 C 10.927795 10.834939 10.878894 10.871375 10.832031 10.912109 C 10.877315 10.873163 10.926447 10.840598 10.980469 10.818359 z M 12.09375 7.796875 C 12.095722 7.7418558 12.109375 7.6902567 12.109375 7.6347656 C 12.109375 7.5739016 12.094166 7.5173249 12.091797 7.4570312 C 12.07745 7.5114418 12.054687 7.5632648 12.054688 7.6210938 C 12.054688 7.682854 12.07741 7.7390141 12.09375 7.796875 z M 12.210938 7.8359375 C 12.211106 7.8320042 12.210779 7.8281545 12.210938 7.8242188 C 12.185072 7.7599672 12.166016 7.6926136 12.166016 7.6210938 C 12.166016 7.6974502 12.182563 7.7698418 12.210938 7.8359375 z M 12.166016 7.6210938 C 12.166016 7.5521831 12.184926 7.4880115 12.208984 7.4257812 C 12.20878 7.4211931 12.209202 7.4166942 12.208984 7.4121094 C 12.182209 7.4765796 12.166016 7.5471354 12.166016 7.6210938 z M 12.220703 7.7421875 C 12.221417 7.7109604 12.228411 7.6817617 12.228516 7.6503906 C 12.22787 7.6400937 12.222656 7.6315514 12.222656 7.6210938 C 12.222656 7.6135269 12.226223 7.6070923 12.226562 7.5996094 C 12.226333 7.5689208 12.219563 7.5403148 12.21875 7.5097656 C 12.210465 7.5465846 12.195312 7.5817633 12.195312 7.6210938 C 12.195312 7.6642087 12.210775 7.702107 12.220703 7.7421875 z M 12.226562 7.5996094 C 12.226653 7.6116468 12.230469 7.6227074 12.230469 7.6347656 C 12.230469 7.6401307 12.228534 7.6450297 12.228516 7.6503906 C 12.23467 7.7485263 12.272612 7.8340061 12.328125 7.9082031 C 12.333228 7.8171794 12.341797 7.7270425 12.341797 7.6347656 C 12.341797 7.5332364 12.33234 7.4339876 12.326172 7.3339844 C 12.269999 7.4097917 12.23112 7.4991512 12.226562 7.5996094 z M 10.892578 4.5527344 C 10.802006 4.4542384 10.708167 4.3617367 10.609375 4.2714844 C 10.636919 4.3244262 10.661187 4.3793027 10.703125 4.4238281 C 10.715001 4.4355267 10.728487 4.4452033 10.740234 4.4570312 C 10.785223 4.498297 10.839266 4.5258732 10.892578 4.5527344 z M 10.740234 4.4570312 C 10.73278 4.4501934 10.722022 4.4486233 10.714844 4.4414062 C 10.7097 4.4362901 10.708076 4.4290842 10.703125 4.4238281 C 10.527062 4.2504027 10.333205 4.0941277 10.130859 3.9511719 L 10.123047 4.0117188 C 10.530814 4.3033736 10.886185 4.6609816 11.175781 5.0703125 L 11.238281 5.0605469 C 11.088189 4.8457195 10.924417 4.6424731 10.740234 4.4570312 z M 11.175781 5.0703125 L 10.826172 5.1210938 L 9.1875 6.7832031 C 9.2504139 6.9144016 9.2992133 7.0227132 9.3203125 7.1328125 L 11.603516 7.1191406 L 11.919922 6.8613281 C 11.803882 6.202788 11.547565 5.5958115 11.175781 5.0703125 z M 11.919922 6.8613281 C 11.964341 7.1134086 11.998047 7.3701281 11.998047 7.6347656 C 11.998047 7.9000234 11.964558 8.1575068 11.919922 8.4101562 L 11.972656 8.4511719 C 12.02164 8.1855528 12.054688 7.914204 12.054688 7.6347656 C 12.054688 7.1925813 11.971006 6.7735255 11.851562 6.3691406 C 11.895216 6.5174314 11.932782 6.6702826 11.962891 6.828125 L 11.919922 6.8613281 z M 11.851562 6.3691406 C 11.845972 6.3501509 11.839791 6.3313443 11.833984 6.3125 C 11.839849 6.3314261 11.845942 6.3501103 11.851562 6.3691406 z M 11.833984 6.3125 C 11.694927 5.8637712 11.501753 5.4398745 11.238281 5.0625 C 11.493266 5.4491613 11.694652 5.8603357 11.833984 6.3125 z M 11.972656 8.4511719 C 11.852741 9.1014244 11.594023 9.7012023 11.226562 10.222656 L 11.259766 10.228516 C 11.609244 9.6991184 11.85778 9.1246022 11.984375 8.4609375 L 11.972656 8.4511719 z M 11.226562 10.222656 L 11.164062 10.214844 C 10.87515 10.619458 10.522027 10.973089 10.117188 11.261719 L 10.126953 11.322266 C 10.553905 11.021472 10.925715 10.64958 11.226562 10.222656 z M 10.126953 11.322266 C 10.10423 11.338275 10.085527 11.359402 10.0625 11.375 C 10.083648 11.361458 10.107905 11.353702 10.128906 11.339844 L 10.126953 11.322266 z M 10.117188 11.261719 L 10.068359 10.927734 L 8.40625 9.2890625 C 8.2750515 9.35236 8.1667399 9.4015431 8.0566406 9.421875 L 8.0703125 11.705078 L 8.3203125 12.013672 C 8.9816304 11.895969 9.5905349 11.637195 10.117188 11.261719 z M 8.3203125 12.013672 C 8.0658667 12.058959 7.8063135 12.09375 7.5390625 12.09375 C 7.269868 12.09375 7.0100815 12.059591 6.7539062 12.013672 L 6.7285156 12.044922 C 6.0648509 11.91871 5.4899511 11.669408 4.9609375 11.320312 L 4.96875 11.265625 C 4.5588802 10.974371 4.2014233 10.61687 3.9101562 10.207031 L 3.8457031 10.216797 C 4.6635681 11.381975 6.0128006 12.148438 7.5390625 12.148438 C 7.8205097 12.148438 8.0939025 12.114134 8.3613281 12.064453 L 8.3203125 12.013672 z M 8.3613281 12.064453 C 8.4560363 12.046859 8.5461088 12.019533 8.6386719 11.996094 C 8.5467628 12.019301 8.4567911 12.046243 8.3613281 12.064453 z M 8.6386719 11.996094 C 8.819249 11.950497 8.9937745 11.898116 9.1621094 11.833984 C 8.9929753 11.899665 8.8168504 11.950975 8.6386719 11.996094 z M 9.1621094 11.833984 C 9.4790151 11.710918 9.7826689 11.564938 10.060547 11.376953 C 9.7768366 11.558427 9.4792577 11.713159 9.1621094 11.833984 z M 3.8457031 10.216797 C 3.8307614 10.19551 3.8114569 10.177802 3.796875 10.15625 C 3.8096709 10.17621 3.8170011 10.198919 3.8300781 10.21875 L 3.8457031 10.216797 z M 3.9101562 10.207031 L 4.2421875 10.160156 L 5.8808594 8.4960938 C 5.8179455 8.3648953 5.7683788 8.2565837 5.7480469 8.1464844 L 3.4648438 8.1601562 L 3.1601562 8.4101562 C 3.2769348 9.0712319 3.5357586 9.6802206 3.9101562 10.207031 z M 3.1601562 8.4101562 C 3.1155244 8.1574981 3.0800781 7.900033 3.0800781 7.6347656 C 3.0800781 7.365489 3.1142092 7.1038969 3.1601562 6.8476562 L 3.125 6.8183594 C 3.2512114 6.154311 3.5001305 5.5801785 3.8496094 5.0507812 C 3.3335828 5.7846509 3.0253906 6.6729626 3.0253906 7.6347656 C 3.0253906 7.914204 3.0584383 8.1855528 3.1074219 8.4511719 L 3.1601562 8.4101562 z M 3.1074219 8.4511719 L 3.1054688 8.453125 C 3.1066174 8.4591613 3.108206 8.4646815 3.109375 8.4707031 C 3.1081765 8.4643581 3.1085937 8.4575261 3.1074219 8.4511719 z M 3.109375 8.4707031 C 3.1237246 8.5466702 3.1459383 8.6187695 3.1640625 8.6933594 C 3.145909 8.6189747 3.1242624 8.5473904 3.109375 8.4707031 z M 3.1640625 8.6933594 C 3.2175647 8.912587 3.2807054 9.1246311 3.3613281 9.3261719 C 3.2784933 9.1227414 3.216739 8.9101484 3.1640625 8.6933594 z M 3.3613281 9.3261719 C 3.467249 9.5862984 3.5976005 9.8329042 3.7480469 10.066406 C 3.6019628 9.8286753 3.4656141 9.586866 3.3613281 9.3261719 z M 3.8496094 5.0507812 L 3.9121094 5.0605469 C 4.2060468 4.6474982 4.5661467 4.2864074 4.9804688 3.9941406 L 4.9707031 3.9316406 C 4.5340104 4.2357951 4.1556764 4.6155065 3.8496094 5.0507812 z M 4.9707031 3.9316406 C 5.3447172 3.6851006 5.7427634 3.4903686 6.1777344 3.3515625 C 5.7455335 3.489867 5.3358926 3.6772878 4.9707031 3.9316406 z M 6.1777344 3.3515625 C 6.2213282 3.3376124 6.2644423 3.3231921 6.3085938 3.3105469 C 6.2644249 3.3232305 6.2211288 3.3377147 6.1777344 3.3515625 z M 6.3085938 3.3105469 C 6.4479032 3.2705426 6.5886866 3.2351087 6.7363281 3.2070312 L 6.7753906 3.2539062 C 7.0249624 3.210418 7.2772258 3.1757812 7.5390625 3.1757812 C 7.8043299 3.1757812 8.061787 3.2112355 8.3144531 3.2558594 L 8.3574219 3.2011719 C 8.0912372 3.1519527 7.8191195 3.1191406 7.5390625 3.1191406 C 7.1098786 3.1191406 6.7023939 3.1977605 6.3085938 3.3105469 z M 8.3574219 3.2011719 C 9.008668 3.3215913 9.6089158 3.5824231 10.130859 3.9511719 L 10.136719 3.9101562 C 9.6077051 3.5610609 9.0351421 3.3117583 8.3710938 3.1855469 L 8.3574219 3.2011719 z M 8.3144531 3.2558594 L 8.078125 3.546875 L 8.0644531 5.8300781 C 8.1741688 5.8507937 8.282864 5.8984072 8.4140625 5.9609375 L 10.078125 4.3222656 L 10.123047 4.0117188 C 9.5936013 3.633034 8.980341 3.3734633 8.3144531 3.2558594 z M 6.7753906 3.2539062 C 6.1156428 3.3688683 5.5071251 3.6226321 4.9804688 3.9941406 L 5.0292969 4.34375 L 6.6933594 5.9824219 C 6.8245578 5.9198916 6.9328695 5.8707085 7.0429688 5.8496094 L 7.0292969 3.5664062 L 6.7753906 3.2539062 z M 3.9121094 5.0605469 C 3.5390036 5.584845 3.2780958 6.1899223 3.1601562 6.8476562 L 3.4863281 7.109375 L 5.7675781 7.125 C 5.7886773 7.0149007 5.8378604 6.9065891 5.9003906 6.7753906 L 4.2617188 5.1113281 L 3.9121094 5.0605469 z M 4.96875 11.265625 C 5.4926519 11.637911 6.0970009 11.895922 6.7539062 12.013672 L 7.0195312 11.685547 L 7.0332031 9.4023438 C 6.9234875 9.3816282 6.8163617 9.3320615 6.6855469 9.2695312 L 5.0214844 10.908203 L 4.96875 11.265625 z M 11.164062 10.214844 C 11.54152 9.6862252 11.802537 9.0745784 11.919922 8.4101562 L 11.623047 8.1699219 L 9.3398438 8.1542969 C 9.3187446 8.2647798 9.271131 8.3746609 9.2089844 8.5058594 L 10.845703 10.167969 L 11.164062 10.214844 z M 11.015625 4.4941406 C 11.013796 4.4920854 11.011598 4.4903332 11.009766 4.4882812 C 11.001538 4.4855235 10.992456 4.4855703 10.984375 4.4824219 C 10.994979 4.486565 11.004779 4.4906777 11.015625 4.4941406 z M 10.984375 4.4824219 C 10.932124 4.4620063 10.886034 4.428772 10.841797 4.3925781 C 10.886186 4.4285884 10.932007 4.4620187 10.984375 4.4824219 z M 10.841797 4.3925781 C 10.827049 4.3806141 10.808557 4.3749131 10.794922 4.3613281 C 10.795319 4.3617274 10.794524 4.362883 10.794922 4.3632812 C 10.808316 4.376763 10.827287 4.3807063 10.841797 4.3925781 z M 10.978516 4.4492188 C 10.958569 4.4273434 10.942221 4.4023585 10.921875 4.3808594 C 10.89236 4.3619512 10.85941 4.347586 10.833984 4.3222656 C 10.803918 4.2920788 10.786228 4.2558829 10.765625 4.2207031 C 10.745281 4.201135 10.72186 4.1852226 10.701172 4.1660156 C 10.726482 4.2298096 10.762841 4.2901851 10.814453 4.3417969 C 10.862785 4.3901284 10.919376 4.4239087 10.978516 4.4492188 z M 10.765625 4.2207031 C 10.819685 4.2727023 10.870314 4.3263768 10.921875 4.3808594 C 10.984437 4.4209388 11.052424 4.4465711 11.126953 4.4550781 C 10.992881 4.3016531 10.853263 4.1570329 10.701172 4.0214844 C 10.707934 4.0914488 10.729069 4.1582817 10.765625 4.2207031 z M 10.667969 4.1386719 C 10.665933 4.1368153 10.664149 4.1346656 10.662109 4.1328125 C 10.666158 4.1461359 10.668765 4.1589019 10.673828 4.171875 C 10.669704 4.1612139 10.671402 4.1495236 10.667969 4.1386719 z M 10.673828 4.171875 C 10.693063 4.2215938 10.727449 4.2651746 10.761719 4.3085938 C 10.727881 4.2657684 10.693309 4.2217937 10.673828 4.171875 z M 7.6015625 3.0703125 C 7.5802425 3.070018 7.5604511 3.0644531 7.5390625 3.0644531 C 7.5069466 3.0644531 7.4772727 3.073556 7.4453125 3.0742188 C 7.4695671 3.0769009 7.4908623 3.0898438 7.515625 3.0898438 C 7.5458078 3.0898438 7.5721514 3.0742949 7.6015625 3.0703125 z M 7.7636719 2.9160156 C 7.7609948 2.9158563 7.7585376 2.9142174 7.7558594 2.9140625 C 7.7491579 2.9174095 7.7451353 2.9246582 7.7382812 2.9277344 C 7.7468341 2.9239035 7.7553288 2.9202831 7.7636719 2.9160156 z M 7.7382812 2.9277344 C 7.689696 2.949496 7.6356991 2.9560785 7.5820312 2.9628906 C 7.636124 2.9560056 7.6902893 2.9492741 7.7382812 2.9277344 z M 7.5820312 2.9628906 C 7.5592759 2.965787 7.539157 2.9765625 7.515625 2.9765625 C 7.492093 2.9765625 7.4719741 2.965787 7.4492188 2.9628906 C 7.4721201 2.9657945 7.4921597 2.9785156 7.515625 2.9785156 C 7.5390364 2.9785156 7.5591708 2.9657924 7.5820312 2.9628906 z M 7.4492188 2.9628906 C 7.3954548 2.9560734 7.3416175 2.9495521 7.2929688 2.9277344 C 7.3409607 2.9492741 7.395126 2.9560056 7.4492188 2.9628906 z M 7.2929688 2.9277344 C 7.2826063 2.9230835 7.2756347 2.9134689 7.265625 2.9082031 C 7.2642485 2.9082672 7.2630949 2.910091 7.2617188 2.9101562 C 7.2724596 2.9158685 7.2818718 2.9227577 7.2929688 2.9277344 z M 7.7089844 2.9101562 C 7.6778863 2.9086682 7.6484376 2.9012745 7.6171875 2.9003906 C 7.5834473 2.9077285 7.5515418 2.9199219 7.515625 2.9199219 C 7.471756 2.9199219 7.4330774 2.907331 7.3925781 2.8964844 C 7.3639659 2.8970439 7.3370814 2.9032307 7.3085938 2.9042969 C 7.372347 2.9324184 7.4417372 2.9492188 7.515625 2.9492188 C 7.5842747 2.9492188 7.6489036 2.9345618 7.7089844 2.9101562 z M 7.3925781 2.8964844 C 7.4238943 2.895872 7.452915 2.8867188 7.484375 2.8867188 C 7.5298757 2.8867188 7.5719903 2.8991122 7.6171875 2.9003906 C 7.7011552 2.8821291 7.7779006 2.848171 7.8398438 2.7929688 C 7.7220255 2.784378 7.6043487 2.7753906 7.484375 2.7753906 C 7.3848327 2.7753906 7.2875309 2.7850823 7.1894531 2.7910156 C 7.2464312 2.8427255 7.3161311 2.8760102 7.3925781 2.8964844 z M 4.4453125 11.251953 C 4.404589 11.217677 4.3618075 11.185991 4.3222656 11.150391 C 4.3308128 11.173801 4.3267414 11.200188 4.3320312 11.224609 C 4.3386071 11.255282 4.3502987 11.284541 4.3515625 11.316406 C 4.3825694 11.342831 4.4136428 11.368878 4.4453125 11.394531 L 4.4648438 11.396484 C 4.4691532 11.346828 4.4519553 11.300261 4.4453125 11.251953 z M 3.9941406 10.826172 C 3.9950987 10.827219 3.9951348 10.829032 3.9960938 10.830078 C 4.0009997 10.831878 4.0068684 10.830091 4.0117188 10.832031 C 4.0059199 10.829725 4.0000158 10.828279 3.9941406 10.826172 z M 4.0117188 10.832031 C 4.0801042 10.859233 4.1423638 10.897854 4.1953125 10.951172 C 4.1422313 10.898288 4.0793691 10.859093 4.0117188 10.832031 z M 4.1953125 10.951172 C 4.2490649 11.004924 4.2872808 11.069809 4.3144531 11.138672 C 4.2874132 11.069548 4.2495187 11.005177 4.1953125 10.951172 z M 4.3144531 11.138672 C 4.3151957 11.14057 4.3156852 11.142625 4.3164062 11.144531 C 4.3181398 11.146097 4.3205298 11.146874 4.3222656 11.148438 C 4.3208329 11.14455 4.315974 11.142526 4.3144531 11.138672 z M 4.0390625 10.880859 C 4.0609671 10.9041 4.0772459 10.932282 4.0996094 10.955078 C 4.1173017 10.968576 4.1383207 10.976145 4.1542969 10.992188 C 4.1669207 11.004811 4.1725394 11.021468 4.1835938 11.035156 C 4.2065054 11.057402 4.2344585 11.073918 4.2578125 11.095703 C 4.2344571 11.052637 4.2122285 11.009104 4.1757812 10.972656 C 4.1354829 10.932358 4.0873402 10.905123 4.0390625 10.880859 z M 4.1835938 11.035156 C 4.1557177 11.008091 4.1268184 10.982814 4.0996094 10.955078 C 4.0346156 10.905493 3.9616456 10.873574 3.8808594 10.861328 C 4.0075789 11.002724 4.1409394 11.134001 4.2832031 11.259766 C 4.2695223 11.176586 4.2368906 11.101154 4.1835938 11.035156 z M 11.166016 11.863281 C 11.172793 11.863528 11.17873 11.867188 11.185547 11.867188 C 11.187643 11.867188 11.189313 11.865258 11.191406 11.865234 C 11.193863 11.863111 11.196766 11.861503 11.199219 11.859375 C 11.187933 11.859682 11.17737 11.863687 11.166016 11.863281 z M 11.724609 11.333984 C 11.726437 11.33192 11.728645 11.330192 11.730469 11.328125 C 11.730576 11.320803 11.730653 11.313962 11.730469 11.306641 C 11.730672 11.316107 11.724891 11.324558 11.724609 11.333984 z M 13.080078 8.0214844 C 13.094211 8.0085125 13.106432 7.9948445 13.119141 7.9804688 C 13.119339 7.9772346 13.118947 7.9739388 13.119141 7.9707031 C 13.105068 7.9870314 13.096165 8.0067618 13.080078 8.0214844 z M 13.117188 7.2636719 C 13.117102 7.2623796 13.117274 7.2610577 13.117188 7.2597656 C 13.108146 7.2496353 13.101557 7.2379502 13.091797 7.2285156 C 13.102362 7.2387523 13.107543 7.2526915 13.117188 7.2636719 z M 11.722656 4 C 11.723081 3.9911556 11.728516 3.9835227 11.728516 3.9746094 C 11.728516 3.9575226 11.720295 3.9425772 11.71875 3.9257812 C 11.716914 3.923714 11.71473 3.9219864 11.712891 3.9199219 C 11.715675 3.9469111 11.723948 3.9724659 11.722656 4 z M 11.232422 3.4394531 C 11.231369 3.4385249 11.22957 3.4384274 11.228516 3.4375 C 11.212379 3.436088 11.198027 3.4277344 11.181641 3.4277344 C 11.17692 3.4277344 11.17267 3.4295696 11.167969 3.4296875 C 11.190166 3.4291151 11.210562 3.4373644 11.232422 3.4394531 z M 6.8496094 13.53125 C 7.0764346 13.557733 7.3053254 13.574219 7.5390625 13.574219 C 7.7666236 13.574219 7.9918587 13.560277 8.2128906 13.535156 L 6.8496094 13.53125 z M 7.7734375 0.80078125 C 7.84786 0.81152264 7.9332467 0.84009523 7.9570312 0.93945312 C 7.9405355 1.0177119 7.8486273 1.0527344 7.7734375 1.0527344 C 7.884304 0.99979465 7.8754807 0.84604855 7.7734375 0.80078125 z M 7.25 0.81445312 C 7.1387498 0.86777647 7.1475731 1.0215226 7.25 1.0664062 C 7.1751939 1.0560485 7.0882376 1.0290454 7.0644531 0.9296875 C 7.0817161 0.85142877 7.1744266 0.81522037 7.25 0.81445312 z M 7.0644531 1.15625 L 7.0644531 1.2929688 L 8.0117188 1.2929688 L 8.0117188 1.15625 L 7.0644531 1.15625 z M 7.25 1.9609375 C 7.2028168 1.9878202 7.1570594 2.0182406 7.1191406 2.0585938 C 7.1566957 2.0184381 7.2019263 1.988355 7.25 1.9609375 z M 3.0664062 2.53125 C 3.104097 2.5200291 3.1441675 2.5212942 3.1777344 2.5429688 C 3.2310577 2.6296671 3.1897986 2.7093027 3.1445312 2.7695312 C 3.1851951 2.6655699 3.0826505 2.5507494 2.9667969 2.5917969 C 2.9934585 2.5647516 3.0287155 2.5424709 3.0664062 2.53125 z M 12.103516 2.5488281 C 12.141206 2.5601929 12.176463 2.5829051 12.203125 2.609375 C 12.087655 2.5679439 11.985494 2.6827644 12.025391 2.7871094 C 11.980123 2.7272645 11.938864 2.6476289 11.992188 2.5605469 C 12.025754 2.5388723 12.065825 2.5374633 12.103516 2.5488281 z M 3.3378906 2.703125 L 2.6679688 3.3730469 L 2.765625 3.4707031 L 3.4355469 2.7988281 L 3.3378906 2.703125 z M 11.832031 2.7207031 L 11.734375 2.8164062 L 12.404297 3.4882812 L 12.501953 3.390625 L 11.832031 2.7207031 z M 2.5859375 2.953125 C 2.5456573 3.05747 2.6478183 3.1722905 2.7636719 3.1308594 C 2.7103485 3.1845663 2.6202517 3.2246062 2.5527344 3.1816406 C 2.499411 3.0937914 2.5406702 3.0133535 2.5859375 2.953125 z M 12.583984 2.9707031 C 12.628868 3.030548 12.670511 3.1121367 12.617188 3.1992188 C 12.550054 3.2418007 12.459573 3.2017608 12.40625 3.1484375 C 12.522104 3.1891013 12.624265 3.0750481 12.583984 2.9707031 z M 7.5390625 6.9511719 C 7.1631137 6.9511719 6.8554688 7.2584332 6.8554688 7.6347656 C 6.8554688 8.0114817 7.1631137 8.3183594 7.5390625 8.3183594 C 7.9157785 8.3183594 8.2226562 8.0114817 8.2226562 7.6347656 C 8.2226563 7.2584332 7.9157785 6.9511719 7.5390625 6.9511719 z M 0.81835938 7.1503906 C 0.91771727 7.1737915 0.94433673 7.2595619 0.95507812 7.3339844 C 0.90981082 7.2315575 0.75801785 7.2227342 0.70507812 7.3339844 C 0.70507812 7.258411 0.74048427 7.1676536 0.81835938 7.1503906 z M 1.046875 7.1503906 L 1.046875 8.0976562 L 1.1835938 8.0976562 L 1.1835938 7.1503906 L 1.046875 7.1503906 z M 13.841797 7.1679688 L 13.841797 8.1152344 L 13.978516 8.1152344 L 13.978516 7.1679688 L 13.841797 7.1679688 z M 14.207031 7.1679688 C 14.28529 7.1844645 14.320312 7.2756055 14.320312 7.3515625 C 14.267756 7.240696 14.113627 7.2491356 14.068359 7.3515625 C 14.079101 7.27714 14.107673 7.1917533 14.207031 7.1679688 z M 1.8378906 7.3261719 C 1.8238823 7.3482735 1.8055943 7.3667801 1.7949219 7.390625 C 1.8056471 7.3667148 1.8239797 7.3481244 1.8378906 7.3261719 z M 1.7949219 7.390625 C 1.7733821 7.4386445 1.7666507 7.492772 1.7597656 7.546875 C 1.7665803 7.493083 1.7731322 7.4393088 1.7949219 7.390625 z M 1.7597656 7.546875 C 1.7568628 7.5697884 1.7441406 7.5898159 1.7441406 7.6132812 C 1.7441406 7.6366926 1.7568769 7.6568259 1.7597656 7.6796875 C 1.7568693 7.6569322 1.7460938 7.6368132 1.7460938 7.6132812 C 1.7460938 7.5897493 1.7568693 7.5696346 1.7597656 7.546875 z M 1.7597656 7.6796875 C 1.7666507 7.7337802 1.7733821 7.7879456 1.7949219 7.8359375 C 1.7732234 7.7873242 1.7665472 7.7333579 1.7597656 7.6796875 z M 1.7949219 7.8359375 C 1.8062359 7.8612854 1.8267184 7.8809118 1.8417969 7.9042969 C 1.8266854 7.8809838 1.8063979 7.8615067 1.7949219 7.8359375 z M 13.242188 7.5371094 C 13.246788 7.5655908 13.259766 7.5913509 13.259766 7.6210938 C 13.259766 7.6474179 13.247752 7.6699683 13.244141 7.6953125 C 13.244357 7.6748886 13.248047 7.6552397 13.248047 7.6347656 C 13.248047 7.6017508 13.242749 7.5699928 13.242188 7.5371094 z M 0.69140625 7.859375 C 0.73628993 7.9618019 0.88846652 7.9702415 0.94140625 7.859375 C 0.94102263 7.9349484 0.90561648 8.0260894 0.828125 8.0429688 C 0.72876711 8.0191842 0.70176402 7.9337975 0.69140625 7.859375 z M 14.082031 7.8769531 C 14.134587 7.987436 14.289101 7.97938 14.333984 7.8769531 C 14.323627 7.9513756 14.29624 8.0363787 14.197266 8.0605469 C 14.119007 8.0436675 14.082031 7.9525265 14.082031 7.8769531 z M 11.626953 11.625 C 11.608309 11.652101 11.596347 11.68295 11.572266 11.707031 C 11.572661 11.706639 11.573824 11.707425 11.574219 11.707031 C 11.597894 11.683439 11.608241 11.652142 11.626953 11.625 z M 2.7714844 11.755859 L 2.6757812 11.853516 L 3.3457031 12.523438 L 3.4414062 12.425781 L 2.7714844 11.755859 z M 12.373047 11.763672 L 11.703125 12.433594 L 11.800781 12.529297 L 12.470703 11.859375 L 12.373047 11.763672 z M 2.6367188 11.994141 C 2.6752727 12.003491 2.7120732 12.024241 2.7421875 12.046875 C 2.6382262 12.006595 2.5234057 12.108756 2.5644531 12.224609 C 2.5111298 12.170902 2.4707063 12.080806 2.5136719 12.013672 C 2.5572129 11.98701 2.5981648 11.98479 2.6367188 11.994141 z M 12.507812 12 C 12.546462 11.990601 12.589271 11.994823 12.632812 12.021484 C 12.675778 12.088618 12.634971 12.179099 12.582031 12.232422 C 12.623079 12.116568 12.509025 12.014024 12.404297 12.054688 C 12.434411 12.032246 12.469163 12.009399 12.507812 12 z M 3.1035156 12.427734 C 3.1564554 12.481058 3.1953093 12.571155 3.1523438 12.638672 C 3.0652617 12.691612 2.9844403 12.65112 2.9238281 12.605469 C 3.0281731 12.646133 3.1441795 12.543204 3.1035156 12.427734 z M 12.042969 12.433594 C 12.001921 12.549447 12.115975 12.653561 12.220703 12.613281 C 12.160091 12.658165 12.07927 12.699808 11.992188 12.646484 C 11.948838 12.579351 11.989645 12.487301 12.042969 12.433594 z M 7.046875 13.953125 L 7.046875 14.089844 L 7.9960938 14.089844 L 7.9960938 13.953125 L 7.046875 13.953125 z M 7.2324219 14.179688 C 7.1303786 14.224571 7.1215553 14.378317 7.2324219 14.431641 C 7.1568485 14.431641 7.0637543 14.394281 7.046875 14.316406 C 7.0706595 14.217048 7.1579994 14.190429 7.2324219 14.179688 z M 7.7558594 14.193359 C 7.8314328 14.193743 7.9241433 14.228766 7.9414062 14.306641 C 7.9176217 14.405999 7.8302819 14.435338 7.7558594 14.445312 C 7.8582862 14.400429 7.8667259 14.246683 7.7558594 14.193359 z "
       transform="matrix(2.606738,0,0,-2.606738,-19.652721,18.120476)"
       id="path3767" /></g></svg>