<?xml version="1.0" encoding="UTF-8" standalone="no"?>
<!-- Generado por Andres Lacquaniti  -->

<svg
   xmlns:dc="http://purl.org/dc/elements/1.1/"
   xmlns:cc="http://creativecommons.org/ns#"
   xmlns:rdf="http://www.w3.org/1999/02/22-rdf-syntax-ns#"
   xmlns:svg="http://www.w3.org/2000/svg"
   xmlns="http://www.w3.org/2000/svg"
   xmlns:sodipodi="http://sodipodi.sourceforge.net/DTD/sodipodi-0.dtd"
   xmlns:inkscape="http://www.inkscape.org/namespaces/inkscape"
   version="1.1"
   id="Layer_1"
   x="0px"
   y="0px"
   width="15px"
   height="15px"
   viewBox="0 0 15 15"
   style="enable-background:new 0 0 15 15;"
   xml:space="preserve"
   sodipodi:docname="area-comunicaciones.svg"
   inkscape:version="0.92.0 r15299"><metadata
     id="metadata9"><rdf:RDF><cc:Work
         rdf:about=""><dc:format>image/svg+xml</dc:format><dc:type
           rdf:resource="http://purl.org/dc/dcmitype/StillImage" /><dc:title /></cc:Work></rdf:RDF></metadata><sodipodi:namedview
     pagecolor="#ffffff"
     bordercolor="#666666"
     borderopacity="1"
     objecttolerance="10"
     gridtolerance="10"
     guidetolerance="10"
     inkscape:pageopacity="0"
     inkscape:pageshadow="2"
     inkscape:window-width="1920"
     inkscape:window-height="996"
     id="namedview5"
     showgrid="false"
     inkscape:zoom="11.125147"
     inkscape:cx="-5.0574992"
     inkscape:cy="13.445703"
     inkscape:window-x="-8"
     inkscape:window-y="-8"
     inkscape:window-maximized="1"
     inkscape:current-layer="Layer_1" /><path
     style="fill:#000000;fill-opacity:1;fill-rule:nonzero;stroke:none;stroke-width:0.39280555"
     d="M 11.146484 1.0605469 L 10.685547 2.1015625 C 12.004982 2.6852715 13.010486 3.8076064 13.443359 5.1816406 C 13.889978 6.6028112 13.685326 8.1379571 12.880859 9.3925781 C 12.711954 9.6569368 12.787603 10.009996 13.052734 10.179688 C 13.147004 10.240578 13.254495 10.269531 13.359375 10.269531 C 13.546351 10.269531 13.730645 10.17672 13.839844 10.007812 C 14.826572 8.4680129 15.078439 6.5839007 14.529297 4.8398438 C 13.998224 3.1531408 12.765629 1.7762387 11.146484 1.0605469 z M 10.210938 3.0117188 L 9.75 4.0527344 C 10.521471 4.3936898 11.109921 5.0510028 11.363281 5.8554688 C 11.624889 6.6862527 11.505344 7.5842058 11.035156 8.3183594 C 10.865463 8.5827177 10.941891 8.9338233 11.207031 9.1035156 C 11.301301 9.1643936 11.408007 9.1933594 11.513672 9.1933594 C 11.700648 9.1933594 11.884941 9.1013327 11.994141 8.9316406 C 12.646591 7.9130961 12.812564 6.6673416 12.449219 5.5136719 C 12.449219 5.5136719 12.449219 5.5117188 12.449219 5.5117188 C 12.09765 4.3949647 11.281331 3.4846564 10.210938 3.0117188 z M 4.8828125 4.296875 C 4.2924258 4.296875 3.7159216 4.4147177 3.1699219 4.6484375 C 2.1010981 5.1064484 1.2754435 5.9522128 0.84375 7.03125 C 0.41166373 8.1106789 0.42675305 9.2932896 0.88476562 10.361328 C 1.5717825 11.963189 3.1414946 12.998047 4.8847656 12.998047 C 5.4751522 12.998047 6.0520494 12.87981 6.5976562 12.646484 C 7.6154157 12.210077 8.4217454 11.412651 8.8671875 10.400391 L 9.3574219 9.2851562 L 8.2128906 8.8710938 L 6.4296875 8.2246094 L 7.4257812 6.3671875 L 7.9609375 5.3691406 L 6.9667969 4.828125 C 6.3280951 4.4800992 5.6079315 4.296875 4.8828125 4.296875 z M 9.2285156 4.8320312 L 8.7695312 5.8730469 C 9.0417456 5.9932453 9.2479376 6.2238135 9.3378906 6.5078125 C 9.4290174 6.8008453 9.3872416 7.1184867 9.2226562 7.3769531 C 9.0525706 7.6417039 9.1301686 7.9939779 9.3945312 8.1640625 C 9.4899882 8.2245535 9.5962926 8.2519531 9.7011719 8.2519531 C 9.8889339 8.2519531 10.071273 8.1603175 10.179688 7.9902344 C 10.527714 7.4473766 10.617088 6.781935 10.423828 6.1660156 C 10.236067 5.5701301 9.8012265 5.0842126 9.2285156 4.8320312 z M 4.8828125 5.4355469 C 5.4240986 5.4355469 5.9532579 5.5724082 6.421875 5.828125 L 4.8046875 8.8457031 L 7.8242188 9.9414062 C 7.507618 10.661027 6.9293235 11.265331 6.1503906 11.599609 C 5.7375517 11.776371 5.3066386 11.861328 4.8847656 11.861328 C 3.6387862 11.861328 2.4532863 11.13176 1.9316406 9.9140625 C 1.2320536 8.2831335 1.9862597 6.3941142 3.6171875 5.6953125 C 4.0300266 5.5185504 4.4601535 5.4355469 4.8828125 5.4355469 z M 4.1171875 6.3554688 C 4.0310162 6.3559653 3.9453885 6.371966 3.8613281 6.4082031 C 3.5231221 6.5523627 3.3663804 6.9446155 3.5117188 7.28125 C 3.6558785 7.6182765 4.0457852 7.7730659 4.3828125 7.6289062 C 4.7202323 7.4839605 4.8754136 7.0948396 4.7304688 6.7578125 C 4.6226433 6.5050421 4.3757027 6.3539773 4.1171875 6.3554688 z "
     id="path5846" /></svg>