<?xml version="1.0" encoding="UTF-8" standalone="no"?>
<!-- Generado por Andres Lacquaniti  -->

<svg
   xmlns:dc="http://purl.org/dc/elements/1.1/"
   xmlns:cc="http://creativecommons.org/ns#"
   xmlns:rdf="http://www.w3.org/1999/02/22-rdf-syntax-ns#"
   xmlns:svg="http://www.w3.org/2000/svg"
   xmlns="http://www.w3.org/2000/svg"
   xmlns:sodipodi="http://sodipodi.sourceforge.net/DTD/sodipodi-0.dtd"
   xmlns:inkscape="http://www.inkscape.org/namespaces/inkscape"
   version="1.1"
   id="Layer_1"
   x="0px"
   y="0px"
   width="15px"
   height="15px"
   viewBox="0 0 15 15"
   style="enable-background:new 0 0 15 15;"
   xml:space="preserve"
   sodipodi:docname="area-musulmanes.svg"
   inkscape:version="0.92.0 r15299"><metadata
     id="metadata9"><rdf:RDF><cc:Work
         rdf:about=""><dc:format>image/svg+xml</dc:format><dc:type
           rdf:resource="http://purl.org/dc/dcmitype/StillImage" /><dc:title></dc:title></cc:Work></rdf:RDF></metadata><sodipodi:namedview
     pagecolor="#ffffff"
     bordercolor="#666666"
     borderopacity="1"
     objecttolerance="10"
     gridtolerance="10"
     guidetolerance="10"
     inkscape:pageopacity="0"
     inkscape:pageshadow="2"
     inkscape:window-width="1920"
     inkscape:window-height="996"
     id="namedview5"
     showgrid="false"
     inkscape:zoom="15.733333"
     inkscape:cx="25.614888"
     inkscape:cy="8.7192877"
     inkscape:window-x="-8"
     inkscape:window-y="-8"
     inkscape:window-maximized="1"
     inkscape:current-layer="Layer_1" /><path
     style="fill:#000000;fill-opacity:1;fill-rule:evenodd;stroke:none;stroke-width:0.34573621"
     d="M 4.5976562 0.48632812 C 4.2747386 0.48632812 4.0136719 0.7470491 4.0136719 1.0703125 C 4.0136719 1.3755281 4.2500656 1.6203858 4.5488281 1.6464844 C 4.3955233 1.6652799 4.2714844 1.785394 4.2714844 1.9433594 C 4.2714844 2.0947002 4.3876898 2.2051862 4.53125 2.2324219 C 4.3262712 2.2665452 4.1660156 2.4380123 4.1660156 2.6523438 C 4.1660156 2.8597531 4.3164445 3.0263999 4.5117188 3.0683594 L 3.2285156 4.3496094 C 3.4324999 4.4643938 3.5960375 4.5979429 3.6738281 4.765625 L 3.6738281 6.0019531 L 4.2246094 6.5410156 L 3.3925781 7.3242188 L 3.3925781 8.8359375 L 4.2246094 9.6582031 L 3.6738281 10.144531 L 3.6738281 14.421875 L 4.2246094 14.421875 L 4.2246094 10.396484 L 4.5878906 10.058594 L 4.9628906 10.449219 L 4.9628906 14.421875 L 12.210938 14.421875 L 12.210938 13.898438 L 12.210938 11.863281 C 12.087165 10.899369 11.10832 9.9902202 9.2167969 9.1386719 C 7.7826831 9.7430188 6.5993081 10.52874 6.1757812 11.863281 L 6.1757812 13.898438 L 5.546875 13.898438 L 5.546875 10.152344 L 4.9628906 9.6542969 L 5.8164062 8.8359375 L 5.8164062 7.3242188 L 4.9628906 6.5410156 L 5.546875 6.0019531 L 5.546875 4.7324219 C 5.6447183 4.5550592 5.7940137 4.4391006 5.9765625 4.3671875 L 4.6503906 3.0761719 C 4.8640722 3.049848 5.0332031 2.8729325 5.0332031 2.6523438 C 5.0332031 2.4297616 4.8609953 2.2522098 4.6445312 2.2285156 C 4.7813877 2.1963137 4.8925781 2.0900886 4.8925781 1.9433594 C 4.8925781 1.7892769 4.7725965 1.6740569 4.625 1.6503906 C 4.9345076 1.6353489 5.1835938 1.3832173 5.1835938 1.0703125 C 5.1835938 0.99390475 5.1692001 0.92219585 5.1425781 0.85546875 C 5.1854494 1.5521272 4.5283187 1.496019 4.3613281 1.296875 C 4.0843934 1.0026535 4.2552822 0.46768898 4.7773438 0.51367188 C 4.7206431 0.49534827 4.6602343 0.48632813 4.5976562 0.48632812 z M 9.2929688 0.73046875 C 8.2146175 0.73046875 7.3398438 1.6048967 7.3398438 2.6835938 C 7.3398437 3.7615992 8.2146174 4.6367188 9.2929688 4.6367188 C 10.37132 4.6367188 11.246094 3.7615992 11.246094 2.6835938 C 11.246094 2.4291319 11.196272 2.1858905 11.107422 1.9628906 C 11.249865 4.2893496 9.0566353 4.1037337 8.5 3.4375 C 7.5741184 2.4559549 8.1493761 0.67105766 9.8925781 0.82421875 C 9.7034604 0.76336925 9.5024848 0.73046875 9.2929688 0.73046875 z M 4.5878906 3.8945312 L 4.9628906 4.2441406 L 4.9628906 5.7910156 L 4.5878906 6.171875 L 4.2246094 5.7910156 L 4.2246094 4.2441406 L 4.5878906 3.8945312 z M 9.21875 6.5234375 C 8.8954866 6.5234375 8.6328125 6.7845043 8.6328125 7.1074219 C 8.6328125 7.4137429 8.8717285 7.6566548 9.171875 7.6816406 C 9.0170305 7.698533 8.890625 7.8210319 8.890625 7.9804688 C 8.890625 8.1311084 9.0073717 8.2421393 9.1503906 8.2695312 C 8.9452745 8.3036579 8.7851563 8.4748111 8.7851562 8.6894531 C 8.7851562 8.9280111 8.9798463 9.1230469 9.21875 9.1230469 C 9.457308 9.1230469 9.6523438 8.9280111 9.6523438 8.6894531 C 9.6523438 8.4665485 9.4800956 8.2893207 9.2636719 8.265625 C 9.4008566 8.2334431 9.5117188 8.1266834 9.5117188 7.9804688 C 9.5117188 7.825738 9.3909496 7.7104321 9.2421875 7.6875 C 9.5539127 7.6745361 9.8027344 7.4220386 9.8027344 7.1074219 C 9.8027344 7.0310142 9.7879946 6.9593051 9.7617188 6.8925781 C 9.8042441 7.5888909 9.1474594 7.5331284 8.9804688 7.3339844 C 8.7035341 7.0397629 8.8767216 6.504798 9.3984375 6.5507812 C 9.3420825 6.5324563 9.281328 6.5234375 9.21875 6.5234375 z M 4.5878906 6.9003906 L 5.1855469 7.5058594 L 5.1855469 8.6367188 L 4.5878906 9.296875 L 3.9785156 8.6367188 L 3.9785156 7.5058594 L 4.5878906 6.9003906 z M 9.2265625 9.7382812 C 10.212603 10.245822 11.224869 10.758308 11.699219 11.863281 L 11.699219 13.900391 L 6.7441406 13.900391 L 6.7441406 11.863281 C 7.1126954 11.05979 7.9317804 10.345394 9.2265625 9.7382812 z M 8.9023438 10.695312 L 8.0664062 11.576172 L 8.0195312 13.080078 L 8.9121094 13.228516 L 10.707031 13.080078 L 10.648438 11.455078 L 8.9023438 10.695312 z M 8.8730469 10.751953 L 8.9882812 10.751953 L 8.9882812 11.236328 L 8.8730469 11.236328 L 8.8730469 10.751953 z M 9 11.251953 L 10.625 11.779297 L 10.625 12.103516 L 9.0078125 11.734375 L 9 11.251953 z M 8.8671875 11.259766 L 8.8671875 11.744141 L 8.1132812 12.113281 L 8.1210938 11.832031 L 8.8671875 11.259766 z M 8.8769531 11.769531 L 8.9902344 11.769531 L 8.9902344 13.175781 L 8.8769531 13.175781 L 8.8769531 11.769531 z "
     id="path5620" /></svg>